<svg width="459" height="329" viewBox="0 0 459 329" fill="none" xmlns="http://www.w3.org/2000/svg">
<path d="M401.957 192.818H358.469C358.482 203.266 358.985 240.191 365.123 268.22C372.331 301.193 381.311 318.439 381.311 318.439H396.416C396.416 318.439 397.809 294.022 396.416 282.556C395.029 271.085 392.716 263.443 392.716 254.36C392.716 245.283 401.976 210.868 401.976 193.391C401.976 193.191 401.963 193.004 401.957 192.818Z" fill="#F794B9"/>
<path d="M395.601 318.439C395.601 318.439 398.953 326.318 395.601 326.318C392.256 326.318 366.802 326.318 366.802 326.318C366.802 326.318 363.189 325.99 364.526 323.834C365.863 321.677 379.557 321.593 382.492 318.439C387.163 318.439 395.601 318.439 395.601 318.439Z" fill="#4A4157"/>
<path d="M438.536 192.818H395.042C395.06 203.266 395.564 240.191 401.702 268.22C408.916 301.193 417.889 318.439 417.889 318.439H433.001C433.001 318.439 434.388 294.022 433.001 282.556C431.608 271.085 429.295 263.443 429.295 254.36C429.295 245.283 438.554 210.868 438.554 193.391C438.554 193.191 438.548 193.004 438.536 192.818Z" fill="#FFBFFC"/>
<path d="M432.186 318.439C432.186 318.439 435.532 326.318 432.186 326.318C428.834 326.318 403.381 326.318 403.381 326.318C403.381 326.318 399.768 325.99 401.105 323.834C402.448 321.677 416.136 321.593 419.071 318.439C423.747 318.439 432.186 318.439 432.186 318.439Z" fill="#4A4157"/>
<path d="M310.243 321.651V315.954L319.82 316.302V321.651H310.243Z" fill="#FABB95"/>
<path d="M320.342 166.733C319.59 186.728 317.475 243.339 317.612 245.83C317.78 248.85 321.138 260.276 321.81 267.666C322.488 275.057 320.305 318.613 320.305 318.613H309.888C309.888 318.613 299.814 250.53 294.777 221.297C290.84 198.47 290.89 175.642 291.102 166.733H320.342Z" fill="#3D364A"/>
<path d="M319.82 321.651V327.065C319.82 328.102 318.986 328.939 317.954 328.939H298.657C298.657 328.939 296.835 327.979 297.793 326.544C298.751 325.102 310.243 321.651 310.243 321.651H319.82Z" fill="#3D364A"/>
<path d="M333.134 321.651V315.954L342.717 316.302V321.651H333.134Z" fill="#FABB95"/>
<path d="M343.227 166.733C342.475 186.728 340.367 243.339 340.51 245.83C340.678 248.85 344.036 260.276 344.707 267.666C345.373 275.057 343.196 318.613 343.196 318.613H332.78C332.78 318.613 322.705 250.53 317.668 221.297C313.732 198.47 313.781 175.642 313.993 166.733H343.227Z" fill="#4A4157"/>
<path d="M342.717 321.651V327.065C342.717 328.102 341.878 328.939 340.845 328.939H321.542C321.542 328.939 319.726 327.979 320.684 326.544C321.636 325.102 333.134 321.651 333.134 321.651H342.717Z" fill="#4A4157"/>
<path d="M132.828 310.856C132.828 310.856 133.724 312.523 134.028 316.437C134.339 320.338 134.028 322.327 134.028 324.246C134.028 326.158 133.835 328.939 130.073 328.939C126.305 328.939 123.575 328.939 123.575 328.939C123.575 328.939 122.15 328.823 121.802 327.059C121.46 325.295 123.805 323.943 124.576 321.799C125.341 319.662 127.157 313.057 127.157 313.057L132.828 310.856Z" fill="#F794B9"/>
<path d="M130.49 169.179L132.828 310.856L127.648 310.766C127.648 310.766 118.052 286.232 116.734 272.353C115.409 258.48 118.351 249.963 116.977 243.114C115.596 236.271 103.078 189.258 103.246 168.941C103.413 148.624 130.272 155.68 130.49 169.179Z" fill="#FABB95"/>
<path d="M127.648 310.765C127.648 310.765 125.086 322.965 124.265 323.866C123.444 324.773 122.598 325.771 126.504 325.771C130.415 325.771 132.573 325.269 132.828 323.467C133.083 321.664 133.295 312.858 132.828 310.856C132.362 308.847 127.648 310.765 127.648 310.765Z" fill="#FABB95"/>
<path d="M137.436 310.856C137.436 310.856 136.547 312.523 136.236 316.437C135.925 320.338 136.236 322.327 136.236 324.246C136.236 326.158 136.429 328.939 140.197 328.939C143.96 328.939 146.69 328.939 146.69 328.939C146.69 328.939 148.114 328.823 148.462 327.059C148.804 325.295 146.46 323.943 145.695 321.799C144.924 319.662 143.108 313.057 143.108 313.057L137.436 310.856Z" fill="#F794B9"/>
<path d="M132.586 169.868L137.281 311.487L142.449 311.145C142.449 311.145 150.819 286.161 151.447 272.237C152.081 258.319 148.723 249.957 149.756 243.043C150.794 236.142 160.968 188.575 159.787 168.291C158.611 148.006 132.138 156.375 132.586 169.868Z" fill="#FABB95"/>
<path d="M142.616 310.765C142.616 310.765 145.179 322.965 145.999 323.866C146.82 324.773 147.666 325.771 143.761 325.771C139.849 325.771 137.691 325.269 137.436 323.467C137.181 321.664 136.97 312.858 137.436 310.856C137.903 308.847 142.616 310.765 142.616 310.765Z" fill="#FABB95"/>
<path d="M55.865 158.152L54.8513 181.887C54.8513 181.887 60.0191 234.391 59.6024 239.483C59.1858 244.569 55.9831 251.824 55.7779 268.111C55.5665 284.398 59.335 314.074 59.335 314.074L64.7951 314.268C64.7951 314.268 80.342 203.015 80.5534 183.921C80.6529 175.031 79.2102 165.651 77.6368 158.152H55.865Z" fill="#AC6A58"/>
<path d="M55.6721 154.148L55.896 193.989L56.549 199.616C56.549 199.616 68.9367 196.526 79.4526 198.83C81.6541 186.805 84.1789 169.894 77.6492 152.532L55.6721 154.148Z" fill="#BD83EB"/>
<path d="M59.5215 317.467L59.136 310.444H65.2428L64.2478 318.973L59.5215 317.467Z" fill="#AC6A58"/>
<path d="M20.9031 317.467L21.1456 309.697L27.5571 310.218L25.3495 317.924L20.9031 317.467Z" fill="#AC6A58"/>
<path d="M32.9426 158.152C31.5185 166.289 30.3804 175.597 30.5483 183.921C30.965 204.54 35.0072 237.887 34.1366 243.23C33.2659 248.573 27.8307 256.465 24.0684 274.793C20.3061 293.114 21.0336 313.36 21.0336 313.36H26.6554C26.6554 313.36 47.4571 260.025 49.4471 247.813C51.4433 235.595 57.917 185.196 58.5451 175.778C58.8188 171.69 58.8499 164.731 58.8063 158.152H32.9426Z" fill="#AC6A58"/>
<path d="M20.9031 317.467C20.9031 317.467 18.8509 320.905 19.6033 323.686C20.362 326.46 21.0585 328.939 21.0585 328.939H22.408V324.168C22.408 324.168 23.5398 325.617 24.1866 326.763C24.8333 327.909 25.6355 328.939 27.2524 328.939C28.8693 328.939 34.149 328.939 34.149 328.939C34.149 328.939 35.1751 326.492 34.149 325.862C33.1291 325.224 29.3295 322.958 28.521 321.42C27.7126 319.881 29.23 315.626 28.1541 315.42C27.0783 315.214 24.1244 314.828 23.8818 315.368C23.6393 315.916 23.2102 317.519 23.2102 317.519L20.9031 317.467Z" fill="#4A4157"/>
<path d="M33.608 151.611C27.1965 165.239 27.3271 182.318 31.1516 197.305C31.1516 197.305 46.0455 196.732 55.9022 199.616C56.5552 194.221 58.825 176.846 58.825 176.846L60.4295 154.695L33.608 151.611Z" fill="#A365D5"/>
<path d="M59.5216 317.467C59.5216 317.467 57.4632 320.905 58.2219 323.686C58.9743 326.46 59.6708 328.939 59.6708 328.939H61.0203V324.168C61.0203 324.168 62.1521 325.617 62.7989 326.763C63.4456 327.909 64.254 328.939 65.8709 328.939C67.4878 328.939 72.7675 328.939 72.7675 328.939C72.7675 328.939 73.7874 326.492 72.7675 325.862C71.7414 325.224 67.9418 322.958 67.1333 321.42C66.3249 319.881 67.8485 315.626 66.7664 315.42C65.6906 315.214 62.7367 314.828 62.4941 315.368C62.2516 315.916 61.8287 317.519 61.8287 317.519L59.5216 317.467Z" fill="#3D364A"/>
<path fill-rule="evenodd" clip-rule="evenodd" d="M405.974 52.0231C407.939 51.0253 411.391 48.5082 412.939 46.7057C413.928 45.5534 415.246 44.6972 416.204 43.4741C418.884 40.0687 420.787 34.732 420.308 30.3674C419.879 26.4212 416.671 23.8912 415.93 20.1189C415.421 17.5181 415.377 14.0097 414.059 11.6664C410.906 6.04006 403.891 1.12825 397.181 1.88144C392.61 2.40287 388.767 4.30193 385.241 7.29537C384.289 8.10006 382.697 8.37043 381.603 9.00775C378.773 10.6557 374.812 14.4474 374.14 17.8336C373.637 20.4021 372.493 23.196 373.027 25.9062C373.45 28.0692 374.041 30.1549 374.514 32.2729C375.198 35.2727 376.404 39.6052 378.618 41.8583C380.384 43.6544 382.119 44.1307 384.308 45.0899C391.087 48.0512 397.971 49.4546 405.203 49.4546L405.974 52.0231Z" fill="#AC6A58"/>
<path fill-rule="evenodd" clip-rule="evenodd" d="M345.198 77.786C345.198 77.786 348.6 94.8776 351.958 101.746C357.524 110.508 359.638 126.042 359.638 126.042C359.638 126.042 351.996 138.55 344.378 127.632C336.76 116.714 337.475 89.4572 345.198 77.786Z" fill="#FABB95"/>
<path fill-rule="evenodd" clip-rule="evenodd" d="M370.944 69.2692C370.944 69.2692 357.176 86.7019 351.958 101.746C352.058 115.787 359.638 126.041 359.638 126.041C359.638 126.041 376.976 88.8456 370.944 69.2692Z" fill="#E2D3D9"/>
<path fill-rule="evenodd" clip-rule="evenodd" d="M383.867 60.4627C383.867 60.4627 375.235 65.4711 370.944 69.2692C361.734 91.5236 344.471 164.351 356.299 201.798C419.674 210.353 441.912 200.787 441.912 200.787L428.816 65.587C428.816 65.587 423.698 60.0378 411.403 57.1796C396.422 55.3449 383.867 60.4627 383.867 60.4627Z" fill="#F1E6EA"/>
<path fill-rule="evenodd" clip-rule="evenodd" d="M316.53 45.032C317.656 45.8109 318.968 45.1285 320.156 44.7165C323.309 43.6222 324.789 40.603 325.877 37.5773C327.04 34.3715 325.025 31.8544 325.572 28.7322C326.2 25.1723 326.325 22.5458 326.897 18.9858C327.649 14.2736 326.53 8.61502 325.199 6.79965C323.197 4.07015 319.776 0.413647 315.753 1.94577C314.54 2.40927 312.942 3.23327 311.611 2.95646C306.226 1.83633 304.627 -1.01548 296.288 1.55952C287.731 4.20533 284.062 11.6278 285.915 18.3678C287.607 24.4899 291.823 28.4296 297.184 30.8115C299.708 31.9316 302.917 31.79 305.169 33.6569C307.849 35.8843 310.803 38.3048 312.961 41.1115C313.999 42.4505 315.15 44.0792 316.53 45.032Z" fill="#4A4157"/>
<path fill-rule="evenodd" clip-rule="evenodd" d="M292.084 69.1984C292.084 69.1984 286.096 75.9513 280.548 93.3712C274.995 110.791 252.838 145.875 252.838 145.875L268.509 147.079C268.509 147.079 281.282 134.835 288.664 120.28C296.046 105.712 292.084 69.1984 292.084 69.1984Z" fill="#A365D5"/>
<path fill-rule="evenodd" clip-rule="evenodd" d="M299.279 63.572L292.084 69.1984C292.084 69.1984 288.589 100.279 288.054 144.794C316.493 152.802 334.695 79.7752 334.695 79.7752L336.231 64.5956L325.877 60.1279L299.279 63.572Z" fill="#BD83EB"/>
<path fill-rule="evenodd" clip-rule="evenodd" d="M346.119 101.206C346.119 101.206 348.314 161.519 350.292 180.986C319.117 186.908 298.365 186.329 287.408 183.528C301.207 160.308 346.119 101.206 346.119 101.206Z" fill="#BD83EB"/>
<path fill-rule="evenodd" clip-rule="evenodd" d="M345.199 81.3072L346.119 101.206C346.119 101.206 334.714 156.961 287.408 183.528C288.042 164.293 288.054 144.794 288.054 144.794C288.054 144.794 312.824 111.074 322.693 77.8181C331.157 79.3696 345.199 81.3072 345.199 81.3072Z" fill="#A365D5"/>
<path fill-rule="evenodd" clip-rule="evenodd" d="M96.4921 56.7097C96.6973 51.2828 89.7136 34.0303 99.4398 25.4041C109.166 16.7778 121.442 20.0545 126.466 27.3547C131.497 34.6612 135.055 39.1803 143.773 41.5493C152.492 43.9119 164.364 44.4655 164.432 57.2633C164.5 70.0675 158.53 77.0264 146.995 81.6164C135.453 86.2063 120.901 90.0302 112.922 93.648C104.937 97.2659 93.9175 95.6179 90.3169 86.6891C84.0173 71.0395 96.2184 63.8038 96.4921 56.7097Z" fill="#F48527"/>
<path fill-rule="evenodd" clip-rule="evenodd" d="M140.328 76.55C140.34 76.6337 140.284 75.5265 140.471 74.9342C140.776 73.9493 140.278 71.8442 141.149 71.1104C142.106 71.3035 144.693 71.2327 148.506 75.5587C149.706 76.9234 150.918 78.3332 151.976 79.8203C156.714 86.5153 161.198 93.2039 167.019 99.0491C168.735 100.774 170.638 102.352 172.473 103.929C173.654 104.939 175.613 105.3 176.627 106.459C177.168 107.077 176.838 108.847 176.844 109.574C176.869 112.413 176.801 115.355 176.521 118.143C176.44 118.967 176.925 119.99 176.366 120.698C175.918 121.246 174.233 120.119 173.791 119.945C171.397 118.98 169.382 117.763 167.118 116.585C163.325 114.609 160.477 111.242 157.255 108.467C151.982 103.935 147.28 97.5234 144.364 91.0344C142.927 87.8414 141.348 84.8351 140.477 81.4039C140.228 80.4254 139.874 79.0993 139.98 78.05C140.023 77.6509 140.278 76.2797 140.328 76.55Z" fill="#FABB95"/>
<path fill-rule="evenodd" clip-rule="evenodd" d="M130.098 132.196L130.378 132.749C130.378 132.749 130.745 132.891 130.832 132.93C130.571 132.711 130.347 132.44 130.098 132.196ZM151.845 112.735C148.916 114.383 146.049 116.102 143.723 118.696C140.993 121.735 140.521 125.984 139.824 129.859C139.669 130.689 139.768 133.67 138.68 134.005C138.17 134.166 137.673 134.307 137.163 134.455C140.894 134.848 145.875 134.603 151.572 132.17C149.874 123.872 151.416 118.58 151.746 113.289C151.758 113.076 151.827 112.935 151.845 112.735ZM141.136 71.1104L136.964 71.4258C132.797 74.3549 123.873 76.0479 114.097 77.2324C108.308 80.67 106.274 85.5819 106.274 85.5819L109.16 89.837L115.994 103.678C115.652 102.409 115.242 101.141 115.005 99.8409C114.589 97.4912 114.968 95.1609 114.757 92.8305L115.72 91.6202C115.565 91.7168 116.349 92.5923 116.554 92.882C117.213 93.8154 117.835 94.7488 118.475 95.6887C121.305 99.8602 125.291 103.6 130.123 104.959C137.069 106.916 144.121 104.669 150.427 101.785C151.783 101.167 152.946 100.279 154.103 99.3645C153.188 94.4785 149.414 90.2555 146.279 84.848C142.921 79.0607 141.136 71.1104 141.136 71.1104Z" fill="#FFBFFC"/>
<path fill-rule="evenodd" clip-rule="evenodd" d="M154.301 144.852C148.008 146.925 137.996 150.916 130.907 157.823C120.123 168.336 115.907 181.745 115.689 197.292C115.478 212.845 104.042 211.982 100.043 223.376C98.3017 228.333 99.9683 232.054 102.325 234.771C109.191 234.404 115.969 233.039 122.909 233.689C133.295 234.674 142.884 240.783 153.418 240.783C159.612 240.783 165.632 238.897 168.561 232.827C172.205 225.256 169.015 215.857 168.43 207.984C167.417 194.311 164.83 179.865 160.657 166.881C158.381 159.787 156.024 152.796 154.457 145.483C154.413 145.277 154.351 145.058 154.301 144.852ZM135.794 136.708C136.503 137.687 137.641 137.21 137.641 137.21C136.97 137.107 136.423 136.863 135.794 136.708ZM152.38 135.215C152.349 134.874 149.65 136.013 149.065 136.135C147.567 136.444 145.744 136.753 143.947 137.004L152.635 136.708C152.56 136.213 152.417 135.711 152.38 135.215Z" fill="#FFBFFC"/>
<path fill-rule="evenodd" clip-rule="evenodd" d="M115.72 91.6201L114.757 92.8304C114.968 95.1607 114.589 97.4911 115.005 99.8408C115.242 101.141 115.652 102.409 115.994 103.678L130.098 132.196C130.347 132.44 130.571 132.711 130.832 132.93C131.417 133.2 133.531 134.069 137.163 134.455C137.673 134.307 138.17 134.166 138.68 134.005C139.768 133.67 139.669 130.689 139.824 129.859C140.521 125.983 140.994 121.735 143.724 118.696C146.049 116.102 148.916 114.383 151.845 112.735C152.349 107.875 154.861 105.532 154.382 100.394C154.345 100.04 154.165 99.7121 154.103 99.3644C152.946 100.279 151.783 101.167 150.427 101.785C144.122 104.669 137.069 106.916 130.123 104.959C125.291 103.6 121.305 99.8601 118.475 95.6886C117.835 94.7487 117.213 93.8153 116.554 92.8819C116.349 92.5922 115.565 91.7167 115.72 91.6201Z" fill="#F794B9"/>
<path fill-rule="evenodd" clip-rule="evenodd" d="M120.577 129.807C120.074 129.73 119.62 129.743 119.29 129.885C117.99 130.419 117.399 132.511 116.603 133.67C114.669 136.47 113.04 139.792 110.982 142.463C108.737 145.373 107.362 149.435 106.019 152.918C103.022 160.682 100.752 168.587 99.0542 176.782C98.0467 181.661 95.9697 186.238 94.9311 191.099C93.8864 195.978 91.7534 201.708 89.2099 205.931C85.7771 211.628 80.0559 216.694 82.475 224.213C84.1727 229.492 90.9138 234.359 96.0692 234.771C98.1649 234.938 100.248 234.88 102.325 234.771C99.9683 232.054 98.3017 228.333 100.043 223.376C104.042 211.982 115.478 212.845 115.689 197.292C115.907 181.745 120.123 168.336 130.907 157.823C137.996 150.916 148.008 146.925 154.302 144.852C153.705 142.187 153.02 139.444 152.635 136.708L143.947 137.004C141.74 137.301 139.513 137.487 137.642 137.21C137.642 137.21 136.503 137.687 135.795 136.708C133.133 136.065 130.739 135.086 128.201 133.773C127.032 133.161 126.23 131.964 124.986 131.404C124.495 131.191 123.587 130.773 122.704 130.438C121.995 130.161 121.236 129.897 120.577 129.807Z" fill="#F794B9"/>
<path fill-rule="evenodd" clip-rule="evenodd" d="M35.5173 85.6783C35.5297 85.5044 35.6416 85.3499 35.6292 85.1761C35.6043 84.9122 35.1379 85.3306 34.8829 85.3306C34.3481 85.3306 33.8568 85.2534 33.3158 85.2534C32.1653 85.2534 30.8159 84.5903 29.7338 84.1719C25.9404 82.6913 21.0151 80.3287 18.7577 76.6593C16.0837 72.3011 16.6123 67.2606 18.31 62.5676C19.1433 60.2694 20.8721 57.0958 20.2502 54.5143C19.9082 53.0916 19.8149 51.6046 19.3547 50.1819C18.4095 47.2399 16.7864 44.3881 17.4891 41.1243C18.4219 36.7597 22.3459 34.7641 24.5785 31.2878C26.1705 28.8094 26.3384 25.6164 27.4142 22.9255C29.4229 17.9429 32.3768 13.6233 37.4948 11.853C40.0134 10.9839 43.6389 10.2951 46.3068 10.8488C49.1301 11.4346 51.941 12.7543 54.8887 12.2393C57.6063 11.7758 59.0428 11.7629 61.7044 11.1771C67.8299 9.8252 71.4368 12.0461 73.8496 13.4688C80.1368 17.1575 79.3284 21.4513 80.7151 23.8525C81.3992 25.037 82.7113 25.6293 83.7001 26.4854C85.9016 28.3909 89.0545 30.7149 89.9002 33.7663C91.1253 38.2081 89.7758 41.3303 89.0794 45.6885C88.103 51.7462 91.8964 56.8511 89.3779 62.9539C88.103 66.031 85.2113 67.7176 83.7748 70.6982C81.0447 76.3632 80.3171 82.4595 73.9243 84.9444C67.948 87.2683 61.4619 88.4657 55.1125 89.1223C51.4186 89.5086 47.7744 90.4098 44.1364 89.2768C42.0096 88.6138 40.1005 87.8412 38.0172 87.0301C37.0595 86.6632 35.4178 86.9915 35.5173 85.6783Z" fill="#4A4157"/>
<path fill-rule="evenodd" clip-rule="evenodd" d="M13.988 104.727C13.988 104.727 28.3596 87.1139 32.6194 82.4403C36.873 77.7731 40.5297 78.3009 43.9313 77.8503C47.3392 77.4061 67.5252 79.3953 67.5252 79.3953C67.5252 79.3953 74.1358 79.2473 77.8981 89.6052C81.6605 99.976 84.1791 110.379 84.1791 110.379L75.137 120.576L73.4579 117.248C73.4579 117.248 70.0003 126.338 70.4916 131.706C70.9891 137.082 77.6494 152.57 77.6494 152.57C77.6494 152.57 58.3402 161.016 33.6082 151.611C37.4327 140.667 39.4662 135.672 39.0931 128.192C38.7262 120.705 33.9751 104.836 33.9751 104.836L22.4953 114.132C22.4953 114.132 16.9482 109.162 13.988 104.727Z" fill="#F1E6EA"/>
<path fill-rule="evenodd" clip-rule="evenodd" d="M125.484 61.8661C125.869 64.969 127.436 69.707 130.328 71.1876C131.572 71.8249 133.239 72.0373 134.619 71.8506C135.141 71.7798 135.863 71.5738 136.951 71.4322C136.74 77.5478 129.358 81.0949 124.339 81.1142C123.052 81.1206 121.827 81.3202 120.546 80.979C118.767 80.5026 116.728 79.7752 115.353 78.4491C114.986 78.095 114.296 77.7345 114.103 77.226C114.01 76.9878 115.552 76.2153 115.776 76.0608C116.578 75.5007 117.549 74.1102 117.797 73.1124C118.332 70.9558 118.239 68.5675 117.959 66.3401C117.878 65.6964 117.07 63.8746 117.343 63.3016C117.542 62.8768 118.631 63.1278 118.985 63.0313C120.428 62.645 121.964 62.4068 123.332 61.8532C123.655 61.7245 124.526 61.7695 124.657 61.3768L125.484 61.8661Z" fill="#FABB95"/>
<path fill-rule="evenodd" clip-rule="evenodd" d="M132.996 130.586C132.293 129.595 131.765 128.224 131.354 127.097C130.502 124.741 129.389 122.443 128.488 120.106C124.98 111.01 120.907 101.959 116.709 93.2359C115.31 90.3391 112.978 86.5989 110.086 85.3951C108.948 84.9251 107.369 84.732 106.274 85.5818C104.894 86.6568 104.8 88.1632 104.576 89.7726C104.154 92.8304 104.278 96.6221 105.223 99.5576C108.314 109.182 112.679 118.316 117.057 127.393C118.401 130.187 119.993 132.897 121.162 135.723C121.833 137.352 122.785 139.393 124.147 140.526C127.132 142.998 132.014 142.927 133.935 138.949C135.073 136.58 134.402 132.563 132.996 130.586Z" fill="#FABB95"/>
<path fill-rule="evenodd" clip-rule="evenodd" d="M168.362 132.138C168.449 132.286 166.192 133.058 165.819 133.264C163.263 134.636 160.439 135.511 157.747 136.548C149.967 139.541 142.604 142.927 134.066 143.069C131.068 143.12 127.617 143.165 125.447 140.616C124.787 139.844 124.75 138.511 124.806 137.565C125.011 134.088 126.566 131.951 129.731 131.005C132.834 130.071 137.094 130.85 140.291 130.921C145.44 131.024 150.968 130.387 156.012 129.395C158.487 128.906 160.974 128.211 163.337 127.503C164.133 127.265 165.539 126.582 166.372 126.859C166.857 127.02 166.901 127.838 166.988 128.23C167.237 129.312 167.834 131.237 168.362 132.138Z" fill="#FABB95"/>
<path fill-rule="evenodd" clip-rule="evenodd" d="M173.325 144.247H283.608V172.095H173.325V144.247Z" fill="black"/>
<path fill-rule="evenodd" clip-rule="evenodd" d="M173.325 101.862H283.608V129.704H173.325V101.862Z" fill="black"/>
<path fill-rule="evenodd" clip-rule="evenodd" d="M117.356 64.1579C117.356 64.1579 121.759 65.5226 125.633 63.0635C125.981 64.3445 126.473 65.9089 126.473 65.9089C126.473 65.9089 124.582 69.7392 118.183 69.6812C118.133 68.2135 118.09 66.7135 117.356 64.1579Z" fill="#EDA170"/>
<path fill-rule="evenodd" clip-rule="evenodd" d="M53.0603 31.0497C52.8986 31.9702 53.253 32.408 53.3588 32.6333C54.0428 34.0496 54.9259 35.5624 56.2816 36.3671C58.4768 37.6674 61.2566 36.7018 63.6508 37.1138C65.9206 37.5065 65.7527 39.9527 67.04 41.2853C67.9106 42.193 69.372 42.6114 70.0437 43.6607C70.2302 43.944 70.1121 44.5942 70.1743 44.9354C70.4541 46.3967 70.1618 47.9288 70.3422 49.4159C70.4914 50.6454 70.3857 51.9008 70.3857 53.1496C70.3857 58.9305 68.2651 67.6791 61.9593 69.3142C60.6098 69.6618 58.7877 69.9837 57.3823 69.797C50.5603 68.9151 47.992 60.3918 46.1575 54.6882C45.4361 52.4415 45.1003 50.0982 44.8453 47.7486C44.7582 46.9374 44.5717 45.8624 44.7582 45.0641C44.8826 44.562 45.747 44.3431 46.1575 44.1886C46.9659 43.8732 47.7868 43.1715 48.446 42.605C51.1387 40.2746 51.7543 37.043 52.5565 33.7277C52.712 33.0711 52.7991 32.5432 53.0603 31.0497Z" fill="#AC6A58"/>
<path fill-rule="evenodd" clip-rule="evenodd" d="M61.9593 69.3142C61.9593 69.3142 61.2752 72.842 62.1086 75.5071C62.9419 78.1722 67.5251 79.3954 67.5251 79.3954C67.5251 79.3954 65.5724 89.5409 61.9531 94.6201C56.4744 91.8519 46.599 81.803 43.9312 77.8504C48.2345 77.9147 50.3738 76.1509 50.7158 73.357C51.0578 70.5631 51.2009 65.9796 51.2009 65.9796L61.9593 69.3142Z" fill="#AC6A58"/>
<path fill-rule="evenodd" clip-rule="evenodd" d="M75.137 120.576C75.137 120.576 81.6667 136.136 86.3742 134.797C91.0818 133.451 94.0233 123.325 96.2558 115.639C98.4884 107.952 100.199 95.1995 101.194 92.2125C102.195 89.219 103.295 87.7384 106.274 85.5818C109.253 83.4253 113.078 79.9619 109.695 80.7151C106.312 81.4747 99.6077 82.1249 97.2197 89.1032C94.838 96.0878 87.164 110.849 85.5223 114.28C83.7872 111.905 84.179 110.379 84.179 110.379L75.137 120.576Z" fill="#AC6A58"/>
<path fill-rule="evenodd" clip-rule="evenodd" d="M311.99 15.7606C311.99 15.7606 311.99 19.121 315.311 22.6552C318.632 26.1894 319.297 38.6781 315.311 45.1414C311.325 51.5982 299.534 52.3771 295.791 43.6736C292.053 34.9766 292.638 20.8462 292.638 20.8462C292.638 20.8462 305.759 20.6724 311.99 15.7606Z" fill="#FABB95"/>
<path fill-rule="evenodd" clip-rule="evenodd" d="M305.013 47.3816C305.013 47.3816 307.09 58.2288 299.279 63.572C301.437 71.5867 316.555 68.5675 323.949 60.1279C318.383 59.0078 317.805 48.167 317.096 40.8798C309.248 43.4161 305.013 47.3816 305.013 47.3816Z" fill="#FABB95"/>
<path fill-rule="evenodd" clip-rule="evenodd" d="M283.608 160.205C283.608 160.205 280.405 161.963 275.493 163.096C270.58 164.229 270.885 164.229 266.699 166.495C262.52 168.754 261.003 170.261 264.821 169.887C268.64 169.508 270.76 166.624 272.153 168.265C269.1 170.248 267.184 172.095 260.275 172.095C261.793 173.988 262.52 174.979 265.611 175.353C268.702 175.739 272.159 178.385 276.581 175.173C281.009 171.954 288.042 164.293 288.042 164.293L283.608 160.205Z" fill="#FABB95"/>
<path fill-rule="evenodd" clip-rule="evenodd" d="M382.399 62.3231C382.399 62.3231 386.286 58.4993 386.485 52.5961C386.684 46.6929 405.241 46.6221 405.241 46.6221C405.241 46.6221 405.844 54.2634 411.403 57.1796C403.966 70.1061 385.745 75.7324 382.399 62.3231Z" fill="#FABB95"/>
<path fill-rule="evenodd" clip-rule="evenodd" d="M51.201 65.9796C51.201 65.9796 55.6847 70.6275 61.9595 69.3142C61.7542 70.9107 61.6921 72.5394 61.6921 72.5394C61.6921 72.5394 55.2556 77.4255 50.8403 72.1596C51.0456 69.2821 51.201 65.9796 51.201 65.9796Z" fill="#8C4E41"/>
<path fill-rule="evenodd" clip-rule="evenodd" d="M305.249 50.0081C305.249 50.0081 312.164 49.3 317.096 40.8798C317.27 42.7402 317.537 45.4697 317.537 45.4697C317.537 45.4697 314.863 56.2911 304.596 55.8276C304.957 54.2118 305.498 52.6346 305.249 50.0081Z" fill="#EDA170"/>
<path fill-rule="evenodd" clip-rule="evenodd" d="M386.199 54.9586C386.199 54.9586 395.558 59.5936 405.819 49.5447C406.491 51.4502 407.268 53.0338 407.268 53.0338C407.268 53.0338 393.773 67.4731 383.867 60.4562C385.173 58.1066 385.913 57.3147 386.199 54.9586Z" fill="#EDA170"/>
<path fill-rule="evenodd" clip-rule="evenodd" d="M73.4578 117.248C73.4578 117.248 76.1381 110.656 75.6592 106.42C75.1742 102.178 72.2078 96.6929 71.8098 92.4055C73.5324 96.8989 81.5795 113.315 81.5795 113.315L75.1368 120.576L73.4578 117.248Z" fill="#E2D3D9"/>
<path fill-rule="evenodd" clip-rule="evenodd" d="M33.9751 104.836L37.47 99.9438C37.47 99.9438 39.3916 108.95 49.7769 113.224C60.1622 117.499 75.0997 112.001 75.0997 112.001L73.4579 117.248C73.4579 117.248 61.6734 118.812 54.3352 127.014C47.0033 135.221 39.4476 153.542 39.4476 153.542L33.6082 151.611C33.6082 151.611 39.3792 136.045 39.1242 130.889C38.863 125.739 35.8096 112.066 33.9751 104.836Z" fill="#E2D3D9"/>
<path fill-rule="evenodd" clip-rule="evenodd" d="M13.9878 104.727C13.9878 104.727 -1.04908 119.102 0.219539 124.316C1.48817 129.531 15.9965 142.766 31.7362 146.622C33.3095 145.94 33.5272 141.446 33.5272 141.446C33.5272 141.446 17.9678 130.026 13.8137 124.13C16.2577 120.55 22.4951 114.132 22.4951 114.132C22.4951 114.132 16.9604 108.396 13.9878 104.727Z" fill="#AC6A58"/>
<path fill-rule="evenodd" clip-rule="evenodd" d="M33.527 141.446C33.527 141.446 36.9847 136.741 38.8316 135.459C40.691 134.172 44.6897 133.161 45.5852 133.631C46.4869 134.095 43.6138 135.073 43.6138 135.073C43.6138 135.073 46.5988 134.288 47.0031 135.221C47.4011 136.155 45.6038 136.103 43.2532 137.854C40.9025 139.605 37.4884 144.008 36.1265 145.74C34.7646 147.478 33.6887 147.15 31.736 146.622C29.7771 146.088 30.4114 142.393 33.527 141.446Z" fill="#AC6A58"/>
<path fill-rule="evenodd" clip-rule="evenodd" d="M283.608 160.205C283.608 160.205 303.234 141.157 310.56 120.055C317.873 98.9589 322.494 66.6491 331.374 64.5054C342.338 61.8596 348.762 68.1491 343.165 97.5105C337.568 126.865 311.418 156.562 289.677 167.608C288.042 164.293 283.608 160.205 283.608 160.205Z" fill="#D7B0F5"/>
<path fill-rule="evenodd" clip-rule="evenodd" d="M332.245 57.3726C333.389 57.3726 331.206 57.0636 330.46 57.3726C328.781 58.0679 327.413 59.1751 325.877 60.1279C325.541 60.3403 323.638 61.8982 324.229 62.5098C324.77 63.0698 326.573 61.4218 326.971 61.8467C327.456 62.3488 325.1 63.366 325.417 64.029C326.076 65.3938 328.346 63.0055 329.173 63.1728C330.218 63.3917 328.19 65.1041 328.532 65.6448C328.874 66.1791 330.889 64.6084 331.374 64.5054C332.599 64.2479 331.38 65.883 331.922 66.0246C333.153 66.3401 334.614 64.2672 336.231 64.5955C337.22 64.808 338.196 65.3036 339.16 65.5547C339.459 65.6255 341.256 65.9152 342.493 67.2928C343.022 66.7456 342.12 64.1771 341.896 63.5526C340.765 60.4433 339.291 59.1623 337.512 58.422C336.598 58.0421 335.124 56.9027 334.216 56.9027C333.588 56.9027 331.02 57.3726 332.245 57.3726Z" fill="#FABB95"/>
<path fill-rule="evenodd" clip-rule="evenodd" d="M318.085 29.1052C318.004 28.9448 317.973 28.9833 318.141 28.9833L318.085 29.1052Z" fill="#4A4157"/>
<path fill-rule="evenodd" clip-rule="evenodd" d="M107.393 33.026C107.095 32.6655 107.816 33.4637 107.897 33.5667C108.233 34.0238 108.768 34.5323 109.209 34.88C110.509 35.9035 112.232 36.7855 113.774 37.3133C116.373 38.2017 119.557 38.3884 122.325 38.2146C123.058 38.1695 123.91 38.1824 124.601 37.9507C124.887 37.8605 125.621 37.3327 125.919 37.4614C126.274 37.6159 126.329 38.9356 126.417 39.2897C126.821 40.8668 127.492 42.3475 127.816 43.9568C128.829 49.0682 129.408 53.8513 128.717 59.0978C128.4 61.499 127.853 64.4152 125.764 65.8959C118.668 70.9557 112.306 63.2694 108.339 57.849C107.281 56.4005 106.38 54.965 105.503 53.3878C105.291 53.0208 104.694 52.0295 104.775 51.5788C105.005 50.3171 106.05 48.9588 106.386 47.6455C107.25 44.2916 107.922 40.5063 107.711 37.0043C107.648 35.9357 108.084 33.85 107.393 33.026Z" fill="#FABB95"/>
<path fill-rule="evenodd" clip-rule="evenodd" d="M161.478 130.207C161.988 129.486 164.83 127.303 165.495 126.833C166.994 125.771 173.43 124.715 178.113 126.132C182 127.31 183.026 126.788 183.76 128.288C184.158 129.086 182.547 129.061 182.485 129.666C182.429 130.2 183.412 130.425 183.293 131.146C183.175 131.88 182.385 131.771 182.062 132.234C181.77 132.653 182.137 133.116 181.919 133.586C181.714 134.03 180.974 133.889 180.738 134.23C180.371 134.751 180.539 135.646 179.643 135.743C175.582 136.155 171.639 134.217 168.362 132.138C167.591 131.642 166.503 131.378 165.862 130.895C164.936 130.2 164.886 128.514 165.9 127.966L161.478 130.207Z" fill="#FABB95"/>
<path fill-rule="evenodd" clip-rule="evenodd" d="M197.603 101.798C197.435 101.727 197.789 101.141 197.845 101C198.175 100.208 198.591 99.4288 199.406 99.0941C199.935 98.8688 200.326 99.7571 200.675 99.5769C201.203 99.3001 201.632 98.7722 202.155 98.4439C203.119 97.8452 203.622 98.8237 204.381 98.9846C204.897 99.0941 205.382 98.7529 205.911 98.8494C206.39 98.9331 206.471 99.6091 206.819 99.6799C207.963 99.9181 208.846 99.7636 209.051 101.218C209.157 102.017 208.896 103.047 208.063 103.266C207.559 103.401 206.949 102.989 206.402 103.13C205.606 103.336 204.835 103.967 203.915 103.781C203.318 103.658 202.739 103.233 202.099 103.349C201.222 103.497 200.445 103.999 199.506 103.806C199.263 103.755 199.101 103.517 198.884 103.426C198.423 103.233 197.603 103.381 197.435 102.673C197.385 102.474 197.677 101.83 197.603 101.798Z" fill="#FABB95"/>
<path fill-rule="evenodd" clip-rule="evenodd" d="M418.032 82.1184C418.032 82.1184 415.128 94.3432 415.899 102.77C416.683 111.203 421.36 135.028 418.238 154.218C417.075 161.383 409.283 168.555 411.621 170.171C413.959 171.786 417.274 165.136 418.244 172.095C419.214 179.054 419.444 195.914 416.801 205.358C430.072 203.6 438.554 201.862 438.554 201.862L443.162 118.671L418.032 82.1184Z" fill="#E2D3D9"/>
<path fill-rule="evenodd" clip-rule="evenodd" d="M432.97 137.899C432.97 137.899 435.768 148.489 435.974 167.377C436.173 186.277 436.272 194.163 437.174 203.607C438.069 213.057 440.271 219.289 444.381 223.956C448.48 228.63 450.183 227.072 451.284 222.507C452.385 217.937 450.886 208.39 447.783 204.444C451.987 193.957 460.892 161.982 457.292 133.535C446.179 135.196 432.97 137.899 432.97 137.899Z" fill="#FABB95"/>
<path fill-rule="evenodd" clip-rule="evenodd" d="M432.97 137.899C432.97 137.899 424.861 118.291 420.806 108.512C416.751 98.7336 413.449 73.4085 428.816 65.5869C448.43 70.0867 457.13 105.821 457.285 133.541C446.539 138.138 443.436 139.419 432.97 137.899Z" fill="#F1E6EA"/>
<path fill-rule="evenodd" clip-rule="evenodd" d="M390.446 13.7457C390.446 13.7457 392.616 21.5351 399.059 23.711C403.68 26.0735 409.14 28.8738 408.561 37.1718C407.983 45.4697 406.901 55.7762 392.977 55.847C379.053 55.9113 378.606 44.2144 378.22 34.8993C377.834 25.5843 379.165 18.7799 390.446 13.7457Z" fill="#FABB95"/>
</svg>
