<svg width="806" height="635" viewBox="0 0 806 635" fill="none" xmlns="http://www.w3.org/2000/svg">
<path d="M739.725 565.74C739.682 567.058 739.638 568.376 739.578 569.694C739.457 572.789 739.292 575.875 739.102 578.961C738.834 583.165 738.505 587.37 738.134 591.565C738.082 592.133 738.03 592.708 737.978 593.275C737.096 602.935 735.997 612.569 734.89 622.212C734.397 626.475 733.913 630.737 733.429 635H635.404C632.403 614.213 630.258 593.325 628.753 572.371C628.182 564.472 627.707 556.573 627.309 548.673C627.266 548.039 627.24 547.397 627.214 546.763C627.127 545.153 627.049 543.551 626.98 541.933C626.85 539.114 626.738 536.303 626.626 533.483C626.271 524.316 626.012 515.14 625.83 505.956C625.769 502.986 625.709 500.009 625.666 497.039C625.657 496.43 625.648 495.821 625.64 495.212C625.605 492.218 625.57 489.223 625.536 486.22C625.519 484.126 625.501 482.033 625.484 479.939V479.93C625.467 476.227 625.449 472.523 625.441 468.82C625.441 468.069 625.441 467.326 625.441 466.584C625.441 460.578 625.354 453.63 625.605 446.397C626.548 418.862 632.291 387.281 665.528 388.724C685.281 389.575 702.925 402.346 713.666 418.395C724.408 434.452 729.225 453.488 732.659 472.315C734.752 483.734 736.404 495.229 737.597 506.765C739.63 526.351 740.356 546.062 739.725 565.74Z" fill="#EFB6BC"/>
<path d="M737.597 506.765C736.845 508.092 736.058 509.393 735.228 510.686C730.28 518.385 724.088 525.25 718.458 532.499C717.48 533.767 716.52 535.035 715.578 536.328C714.211 538.205 712.914 540.106 711.668 542.042C707.759 548.106 704.395 554.421 701.446 560.927C699.699 564.747 698.107 568.635 696.611 572.572C689 592.658 684.183 614.079 678.103 635H569.708C570.487 629.102 571.559 623.155 572.692 617.274V617.266C573.228 614.463 573.782 611.677 574.327 608.924C575.192 604.57 576.031 600.299 576.748 596.153C577.172 593.718 577.605 591.282 578.054 588.846C578.781 584.834 579.542 580.822 580.329 576.818C580.346 576.701 580.372 576.576 580.398 576.467V576.459C580.753 574.666 581.107 572.872 581.471 571.087C582.258 567.183 583.071 563.288 583.91 559.4C584.273 557.732 584.636 556.056 585.008 554.396C585.216 553.428 585.432 552.469 585.657 551.509V551.501C585.769 550.967 585.89 550.433 586.02 549.891C586.34 548.456 586.669 547.022 587.006 545.587C587.68 542.651 588.372 539.723 589.082 536.803C589.557 534.818 590.042 532.849 590.534 530.872V530.864C591.14 528.412 591.763 525.968 592.394 523.515C594.4 515.716 596.511 507.925 598.716 500.167C599.313 498.073 599.918 495.98 600.532 493.886C600.87 492.718 601.216 491.55 601.562 490.382C601.57 490.349 601.579 490.332 601.588 490.307C602.279 487.98 602.971 485.653 603.689 483.326C605.998 475.751 608.403 468.194 610.911 460.678C611.447 459.06 611.992 457.442 612.528 455.832C614.111 451.177 615.728 446.539 617.38 441.901C619.888 434.878 622.474 427.879 625.147 420.914C635.395 394.221 648.931 365.76 675.43 353.323C682.211 350.144 688.663 351.446 695.322 354.849C695.962 355.174 696.585 355.508 697.216 355.842C706.73 360.938 715.5 367.461 722.514 375.444C723.803 376.904 725.013 378.414 726.181 379.965C731.984 387.773 736.066 396.649 739.465 405.691C751.729 438.348 754.774 476.536 737.597 506.765Z" fill="#FFCCD0"/>
<path d="M657.06 3.11903C647.279 1.34228 637.938 -4.21319 630.12 5.93847C628.796 7.66518 628.597 9.76725 626.963 11.3521C624.61 13.621 620.58 14.1799 617.804 15.9066C604.744 24.0396 609.536 38.5206 603.828 50.0986C602.47 52.8513 600.316 55.162 598.69 57.7812C593.216 66.6149 595.983 73.1463 599.365 81.5546C602.029 88.2112 601.311 96.0606 597.462 102.15C594.833 106.329 590.768 109.874 589.808 114.679C588 123.763 598.024 131.354 598.63 140.579C599.097 147.753 593.873 153.918 589.402 159.657C584.93 165.396 580.779 172.769 583.555 179.434C585.466 184.022 590.301 187.067 591.987 191.73C593.769 196.676 591.607 202.057 589.462 206.87C586.712 213.059 583.97 219.249 581.22 225.446C578.72 231.077 576.169 237.191 577.613 243.164C580.087 253.382 592.723 257.77 603.568 258.22C620.978 258.946 638.941 254.108 655.521 259.255C661.385 261.073 666.773 264.068 672.524 266.178C678.622 268.414 685.056 269.632 691.465 270.758C712.628 274.486 734.449 277.331 755.569 273.335C758.709 272.743 761.935 271.942 764.426 269.99C768.923 266.462 769.796 260.264 770.341 254.683C771.31 244.699 772.192 234.155 767.781 225.079C763.526 216.337 754.687 209.764 752.577 200.313C750.026 188.885 758.233 177.057 755.457 165.679C752.931 155.352 741.939 148.129 740.624 137.593C739.267 126.632 748.996 116.289 746.921 105.428C745.139 96.1106 735.383 90.1798 731.682 81.4045C728.136 72.9962 730.661 63.4952 730.661 54.4112C730.661 40.4058 720.43 36.2934 712.317 28.7526C710.06 26.6505 707.967 24.2899 706.306 21.3703C703.34 16.1652 698.842 11.569 693.48 8.61611C688.144 5.67155 682.929 2.66025 676.719 1.72599C669.964 0.699981 663.417 4.27016 657.06 3.11903Z" fill="#FF99B4"/>
<path d="M625.216 112.935C626.098 125.181 627.88 137.36 630.569 149.363C631.08 151.632 631.702 154.043 633.432 155.653C635.015 157.112 637.238 157.671 639.374 158.08C649.406 160.015 660.226 159.857 669.376 155.427C672.792 153.767 676.278 151.398 678.544 148.387C679.374 147.286 679.729 146.31 680.689 145.251C681.606 144.25 683.145 144.158 683.448 142.59C683.569 141.947 683.379 141.297 683.188 140.663C681.061 133.456 679.538 125.389 678.457 117.932C678.44 117.832 678.431 117.732 678.414 117.632C678.25 116.506 678.12 115.371 678.008 114.245C677.385 108.022 677.445 101.749 678.215 95.5433C678.328 94.559 678.466 93.5747 678.622 92.5987C679.91 84.5241 670.241 91.4476 667.352 93.2494C662.976 95.9938 658.487 98.5546 653.886 100.932C644.701 105.695 635.101 109.707 625.216 112.935Z" fill="#F7ABB1"/>
<path d="M606.439 48.4805C608.109 43.6424 609.847 38.7876 612.528 34.3999C613.609 32.6148 614.777 31.1634 616.022 29.9205C619.257 26.684 623.062 24.8405 627.551 22.3547C633.726 18.943 639.434 17.575 646.561 18.9013C654.812 20.4362 662.656 23.9646 669.195 29.078C675.404 33.9495 680.516 40.4142 682.565 47.8965C683.491 51.2832 683.785 54.795 683.88 58.2901C684.096 65.9894 683.396 73.697 681.813 81.2377C680.602 87.0268 680.005 94.3006 676.693 99.414C674.072 103.46 669.246 107.572 665.528 110.733C654.293 120.276 635.811 128.918 621.281 121.511C615.477 118.558 610.928 113.595 607.642 108.189C596.563 89.938 599.849 67.4992 606.439 48.4805Z" fill="#FFCCD0"/>
<path d="M607.521 57.4975C608.385 58.1565 609.466 58.6153 610.53 58.8656C612.727 59.3744 614.95 59.341 617.121 59.9166C619.395 60.5172 621.635 61.1845 623.867 61.9019C624.827 62.2105 625.778 62.5192 626.729 62.8278C625.432 60.0334 622.794 56.6467 619.914 55.2036C617.259 53.869 613.384 54.1276 610.53 54.5113C608.965 54.7198 607.391 54.9367 605.825 55.1452C606.102 56.0962 606.716 56.8803 607.521 57.4975Z" fill="#231F20"/>
<path d="M645.601 62.7443C646.509 63.4616 647.642 63.9621 648.775 64.2374C651.075 64.7963 653.419 64.7546 655.711 65.3802C658.107 66.0392 660.459 66.7649 662.812 67.549C663.815 67.8827 664.818 68.2247 665.822 68.5583C664.464 65.5137 661.679 61.8267 658.652 60.2501C655.85 58.7904 651.767 59.0823 648.775 59.4994C647.123 59.7246 645.471 59.9582 643.819 60.1834C644.105 61.2261 644.762 62.0769 645.601 62.7443Z" fill="#231F20"/>
<path d="M615.408 61.6182C615.607 57.681 619.689 56.5466 621.116 60.5672C622.881 65.5387 615.105 67.7326 615.408 61.6182Z" fill="#231F20"/>
<path d="M653.687 66.3896C653.895 62.4524 657.977 61.3263 659.404 65.3469C661.169 70.3101 653.393 72.5039 653.687 66.3896Z" fill="#231F20"/>
<path d="M644.632 52.7762C644.892 53.1098 645.194 53.4101 645.523 53.6854C647.184 55.0451 649.467 55.4288 651.646 55.5789C654.691 55.8042 657.796 55.9543 660.684 56.9469C662.327 57.5058 663.936 58.1398 665.588 58.657C666.271 58.8738 669.904 59.3827 670.181 59.8415C668.546 57.1722 666.911 55.4121 664.369 53.5019C662.457 52.0671 660.278 50.9327 657.752 50.207C653.039 48.8723 648.273 49.6397 643.456 50.0985C643.603 51.0662 644.018 51.9921 644.632 52.7762Z" fill="#232022"/>
<path d="M608.481 47.5629C608.705 47.8882 608.956 48.1885 609.242 48.4555C610.643 49.7901 612.589 50.1405 614.457 50.2656C617.06 50.4407 619.715 50.5575 622.171 51.5001C623.564 52.0423 624.939 52.6429 626.349 53.1434C626.928 53.3519 630.025 53.8107 630.267 54.2612C628.892 51.6252 627.525 49.8819 625.372 48.005C623.763 46.6036 621.921 45.5026 619.767 44.8185C615.745 43.5506 611.655 44.3764 607.521 44.902C607.633 45.8696 607.979 46.7955 608.481 47.5629Z" fill="#232022"/>
<path d="M747.63 551.626C755.12 528.37 761.84 504.805 763.656 480.573C765.083 461.412 763.241 441.709 756.486 423.558C750.224 406.716 737.355 393.303 731.552 376.312C720.585 344.205 739.301 319.022 742.458 288.6C745.45 259.73 737.052 227.59 723.543 202.032C717.8 191.163 712.455 179.968 706.254 169.333C703.374 164.378 699.136 160.257 696.083 155.394C694.596 153.025 692.987 150.614 692.875 147.803C692.71 143.707 695.227 140.388 693.826 136.025C692.563 132.104 687.85 128.935 684.019 130.728C681.078 132.113 680.014 135.566 679.244 138.636C678.881 132.705 672.645 127.767 666.565 128.584C660.494 129.402 655.893 135.808 657.225 141.597C654.449 136.625 650.496 130.937 644.65 131.095C638.267 131.27 634.556 138.711 635.369 144.825C632.662 143.057 629.843 141.247 626.626 140.704C623.4 140.162 619.646 141.263 618.15 144.074C617.475 145.359 617.328 146.844 617.389 148.27C617.674 156.145 623.296 162.76 628.623 168.707C622.016 181.778 616.584 194.841 609.147 207.562C601.709 220.291 593.83 232.779 586.392 245.508C582.846 251.564 579.231 257.862 578.539 264.785C577.691 273.36 581.523 281.869 587.127 288.558C592.731 295.248 600.005 300.403 607.192 305.483C614.638 351.654 606.197 392.252 593.069 436.88C580.338 480.122 566.015 525.242 574.759 570.578C574.967 571.654 734.665 575.733 741.316 568.851C742.328 567.808 742.804 566.399 743.254 565.039C744.724 560.576 746.194 556.105 747.63 551.626Z" fill="#9292FF"/>
<path d="M604.71 47.154C604.39 47.8297 604.061 48.5054 603.724 49.1727C608.801 45.1354 615.097 45.5775 619.421 40.5725C622.69 36.7938 625.908 34.3998 631.235 34.4749C636.745 34.5416 641.856 35.626 647.218 33.6574C652.269 31.7972 655.573 28.0269 656.68 23.097C656.671 23.0887 656.663 23.0803 656.654 23.0803C643.733 12.8786 624.749 18.9679 614.699 29.9454C610.184 34.8669 607.546 41.1898 604.71 47.154Z" fill="#FF99B4"/>
<path d="M701.368 68.2416C704.326 70.1351 706.064 73.5051 706.41 76.9168C706.747 80.3368 705.813 83.7819 704.274 86.8766C700.78 93.9085 693.671 99.514 685.61 100.09C682.514 100.306 679.184 99.7142 676.927 97.6455C674.548 95.4517 673.83 92.0233 674.038 88.8619C674.747 78.1513 688.654 60.0668 701.368 68.2416Z" fill="#FFCCD0"/>
<path d="M653.177 31.7972C656.213 36.3767 662.942 37.7698 665.709 42.5078C668.139 46.6452 666.704 51.8253 667.266 56.555C667.906 62.0437 671.512 67.132 676.572 69.7096C678.302 70.5854 680.239 71.186 682.185 71.0526C684.027 70.9108 685.774 70.1183 687.236 69.0256C691.897 65.5638 693.653 59.3327 692.901 53.7105C692.14 48.0716 689.242 42.9332 685.99 38.2035C682.038 32.4479 677.359 26.9675 671.21 23.464C666.652 20.8615 660.139 18.8845 654.829 20.2776C649.648 21.6372 650.704 28.0769 653.177 31.7972Z" fill="#FF99B4"/>
<path d="M638.967 90.0963C636.243 90.1297 634.928 92.8407 632.429 92.8657C629.739 92.8824 628.217 89.6208 625.346 92.9241C618.686 100.573 630.293 105.411 636.684 103.51C639.59 102.65 642.877 100.69 644.848 98.4545C645.782 97.4035 647.391 95.5016 647.443 94.0669C647.512 92.0065 644.65 92.3569 643.3 91.8397C641.865 91.2892 640.758 90.163 639.184 90.0963C639.106 90.0963 639.045 90.0963 638.967 90.0963Z" fill="#E95254"/>
<path d="M745.822 351.178C761.182 308.945 749.204 269.581 742.069 227.573C737.978 203.441 728.646 163.343 697.035 161.442C653.039 158.806 670.509 224.103 674.687 245.282C680.957 277.189 687.236 309.095 693.515 341.002C695.028 348.684 696.602 356.55 700.71 363.29C704.819 370.03 712.032 375.544 720.127 375.586C732.962 375.644 741.567 362.89 745.822 351.178Z" fill="#FFCCD0"/>
<path d="M627.153 85.7753C628.027 86.1841 628.044 84.449 627.828 84.0486C626.634 81.8798 624.1 79.3356 626.262 76.9166C627.084 75.999 628.234 75.4151 629.082 74.5226C629.817 73.7468 630.431 72.8626 630.933 71.9367C632.939 68.2914 634.081 63.1197 633.441 59.0073C633.302 58.1815 632.412 57.5559 632.031 58.6069C631.106 61.2011 631.175 64.0706 630.362 66.7065C629.471 69.5844 627.819 71.6281 625.596 73.6717C622.215 76.7998 622.604 83.6566 627.153 85.7753Z" fill="#231F20"/>
<path d="M656.87 9.88406C655.4 12.9704 653.108 15.6898 651.473 18.7094C649.977 21.4955 648.87 24.5985 647.037 27.2011C646.431 28.0603 645.947 26.7674 646.007 26.2669C646.44 22.8051 648.1 19.5185 649.795 16.4739C651.37 13.6461 653.099 10.151 655.72 8.09896C656.758 7.28149 657.164 9.2501 656.87 9.88406Z" fill="#231F20"/>
<path d="M549.401 177.291C556.908 166.897 563.481 155.369 561.596 142.223C560.022 131.312 554.314 121.127 544.783 115.463C538.123 111.518 532.441 112.377 525.211 111.493C515.533 110.317 506.798 111.91 498.651 117.824C490.979 123.404 485.055 132.18 484.043 141.689C482.287 158.214 484.986 174.863 498.011 186.358C506.832 194.157 519.918 197.669 530.91 193.382C537.855 190.671 543.33 185.274 547.879 179.343C548.398 178.667 548.908 177.975 549.401 177.291Z" fill="#2D252B"/>
<path d="M531.948 491.1C534.802 486.32 535.866 480.74 536.264 475.234C537.016 464.64 535.399 453.897 531.559 443.953C529.855 439.549 527.615 435.161 523.879 432.158C520.143 429.156 514.599 427.838 510.309 430.031C507.221 431.608 505.249 434.653 503.805 437.714C496.644 452.896 498.33 473.182 502.482 489.048C506.279 503.495 524.484 503.612 531.948 491.1Z" fill="#E28883"/>
<path d="M484.908 232.403C487.943 236.157 489.569 242.271 490.918 248.653C493.444 260.598 492.553 272.952 491.628 285.013C490.893 294.498 490.149 303.999 489.154 313.475C489.085 314.017 489.033 314.576 488.973 315.126C487.961 324.377 486.698 333.603 484.96 342.762C481.569 360.588 477.34 376.212 470.585 393.061C468.786 397.558 468.562 404.798 462.68 405.799C455.978 406.942 451.351 398.108 449.534 393.403C444.726 380.9 443.809 367.37 442.927 354.056C441.318 329.599 439.709 305.15 438.101 280.701C437.668 274.144 437.245 267.446 438.983 261.09C442.797 247.059 455.986 237.792 468.536 231.26C476.639 227.04 481.612 228.316 484.908 232.403Z" fill="#E28883"/>
<path d="M562.789 344.689C560.601 325.353 559.096 305.926 557.808 286.765C556.995 274.695 556.225 262.333 558.872 250.413C559.961 245.491 561.639 237.992 564.519 233.796C569.951 225.897 583.209 235.773 588.891 239.218C591.936 241.062 594.919 243.08 597.35 245.641C610.115 259.096 607.867 282.778 607.901 299.453C607.944 329.824 606.396 360.196 603.248 390.417C602.695 395.781 602.037 401.294 599.425 406.058C596.813 410.821 591.763 414.733 586.193 414.508C581.315 414.307 577.025 410.996 574.517 406.942C572.018 402.896 570.988 398.175 570.098 393.529C566.984 377.471 564.64 361.113 562.789 344.689Z" fill="#E28883"/>
<path d="M582.491 287.332C582.059 291.22 581.67 295.107 581.272 299.002C581.185 299.953 581.081 300.912 580.986 301.863C580.58 305.884 580.165 309.905 579.68 313.917C578.591 323.126 575.788 329.366 572.329 337.932C569.994 343.696 567.538 350.169 567.451 356.551C567.425 358.386 567.598 360.213 568.022 362.014C569.034 366.235 571.066 370.139 572.995 374.051C578.98 386.196 579.343 398.517 568.091 408.343C567.685 408.702 567.269 409.052 566.846 409.378C562.046 413.131 556.182 415.442 550.318 417.335C531.308 423.475 510.785 425.919 491.066 422.457C483.801 421.173 476.51 419.02 470.62 414.7C462.533 408.76 459.653 401.044 462.655 391.994C465.993 381.926 469.055 371.866 473.734 362.273C474.676 360.338 475.091 358.436 475.109 356.551C475.152 352.388 473.318 348.318 471.251 344.18C467.844 337.348 464.678 332.102 462.828 324.653C461.625 319.773 460.665 314.893 459.844 310.005C459.645 308.795 459.446 307.577 459.264 306.36C456.843 290.602 455.649 274.787 452.25 258.971C450.252 249.704 451.679 241.396 461.599 237.417C467.861 234.914 473.846 231.886 479.943 229.075C481.033 228.575 482.123 228.082 483.221 227.599H483.23C484.605 226.998 485.989 226.406 487.39 225.847C488.54 225.38 489.69 224.938 490.858 224.512C491.256 224.37 491.654 224.237 492.052 224.095C492.977 223.778 493.911 223.453 494.845 223.119C505.25 219.449 516.095 215.403 527.347 216.279C535.001 216.871 541.237 219.999 547.507 223.269C549.635 224.37 551.754 225.497 553.942 226.539C555.732 227.39 557.566 228.199 559.468 228.892C559.935 229.067 560.411 229.234 560.887 229.4C565.306 230.902 570.063 232.07 574.344 233.721C574.344 233.721 574.361 233.73 574.37 233.73C581.427 236.474 587.17 240.536 587.853 249.654C588.77 262.016 583.875 275.07 582.491 287.332Z" fill="#E28883"/>
<path d="M627.966 588.521L608.437 588.471L606.664 588.462L596.736 588.446L594.963 588.437L583.529 588.412L581.765 588.404L568.722 588.371H566.949L553.051 588.337L551.287 588.329L534.915 588.287C534.75 588.287 518.525 463.756 516.752 458.468C513.89 463.281 500.363 587.269 500.363 587.269H416.92C421.435 545.77 452.691 389.566 463.666 350.745H577.89C585.293 365.092 626.859 565.014 627.966 588.521Z" fill="#FFE97B"/>
<path d="M566.828 233.538H478.404C478.931 233.371 479.45 233.188 479.952 233.012C484.346 231.427 488.013 229.375 491.031 226.898C491.169 226.781 491.316 226.656 491.463 226.539C491.559 226.456 491.654 226.372 491.749 226.289C492.882 225.296 493.911 224.237 494.845 223.119C497.085 220.45 498.78 217.422 499.965 214.06C502.603 206.628 502.785 197.577 500.968 187.226H543.805C542.82 192.464 542.413 197.285 542.586 201.69C542.768 206.253 543.563 210.382 544.973 214.06C545.89 216.454 547.057 218.648 548.484 220.675C550.015 222.836 551.831 224.796 553.942 226.539C556.052 228.291 558.456 229.834 561.138 231.161C561.267 231.227 561.397 231.286 561.518 231.352C561.527 231.352 561.527 231.352 561.527 231.352C563.187 232.153 564.952 232.887 566.828 233.538Z" fill="#E28883"/>
<path d="M542.586 201.681C529.198 201.54 515.844 198.345 503.978 192.347C513.379 190.954 522.573 189.236 531.723 187.226H543.805C542.82 192.464 542.422 197.285 542.586 201.681Z" fill="#BF5E5E"/>
<path d="M546.919 127.341C541.375 120.209 531.256 116.706 521.327 116.806C511.399 116.706 501.28 120.209 495.736 127.341C487.571 137.843 483.394 152.049 485.764 164.953C489.076 183.038 501.236 198.52 520.454 199.512V199.571C520.739 199.571 521.042 199.562 521.327 199.554C521.621 199.562 521.907 199.571 522.201 199.571V199.512C541.418 198.52 553.579 183.038 556.891 164.953C559.261 152.049 555.083 137.843 546.919 127.341Z" fill="#E28883"/>
<path d="M496.021 167.031C496.021 173.737 490.4 179.176 483.463 179.176C476.527 179.176 470.905 173.737 470.905 167.031C470.905 160.332 476.527 154.894 483.463 154.894C490.4 154.894 496.021 160.332 496.021 167.031Z" fill="#E28883"/>
<path d="M571.576 167.031C571.576 173.737 565.963 179.168 559.027 179.168C552.091 179.168 546.469 173.737 546.469 167.031C546.469 160.332 552.091 154.894 559.027 154.894C565.963 154.894 571.576 160.332 571.576 167.031Z" fill="#E28883"/>
<path d="M497.734 147.603C501.652 148.387 506.097 148.27 509.989 147.436C511.286 147.161 512.549 146.435 513.128 145.276C509.643 143.374 505.241 142.665 501.262 143.182C498.158 143.591 494.257 143.941 492.155 146.485C493.911 147.002 495.926 147.236 497.734 147.603Z" fill="#231F20"/>
<path d="M540.899 147.603C536.982 148.387 532.536 148.27 528.644 147.436C527.347 147.161 526.084 146.427 525.505 145.276C528.999 143.374 533.392 142.656 537.371 143.182C540.476 143.591 544.376 143.941 546.469 146.485C544.722 147.002 542.707 147.236 540.899 147.603Z" fill="#231F20"/>
<path d="M583.122 323.46C583.053 326.963 578.348 357.685 579.239 357.685C579.239 357.685 576.878 356.551 567.451 356.551H475.1C466.33 356.551 464.09 356.793 464.09 356.793L459.835 335.722C459.463 327.397 459.23 318.647 459.844 310.005C459.956 308.345 460.112 306.685 460.302 305.033V305.025C461.366 295.574 463.632 286.382 468.077 278.198C475.524 264.468 479.606 249.036 479.943 233.538C479.952 233.363 479.961 233.187 479.961 233.012C479.987 231.694 479.978 230.393 479.943 229.083C479.935 228.758 479.926 228.433 479.917 228.116C481.016 227.924 488.263 225.455 490.858 224.521C491.126 225.121 514.408 239.886 553.942 226.539C555.732 227.39 557.566 228.199 559.468 228.9C559.935 229.067 560.411 229.234 560.887 229.4C560.973 229.959 561.051 230.552 561.137 231.161C561.146 231.211 561.155 231.261 561.163 231.311C561.267 232.028 561.362 232.77 561.457 233.538C562.322 240.028 563.222 247.844 563.646 249.57C567.183 263.801 572.787 276.347 578.366 289.727C579.239 291.804 579.957 293.922 580.545 296.066C580.813 297.042 581.055 298.018 581.272 299.002C581.592 300.429 581.86 301.872 582.085 303.315C583.114 309.955 583.235 316.761 583.122 323.46Z" fill="#FFE97B"/>
<path d="M492.337 149.004C493.401 148.929 494.534 149.029 495.615 148.988C498.988 148.854 502.257 147.044 504.091 144.3C505.051 142.857 505.699 141.113 507.161 140.137C509.185 138.786 511.295 138.994 513.57 138.744C516.259 138.461 518.828 137.251 520.86 135.541C523.732 133.13 525.635 129.785 526.906 126.315C528.35 130.161 534.794 129.777 536.93 133.314C537.821 134.782 537.734 136.592 538.019 138.269C538.512 141.305 540.389 144.049 542.949 145.834C544.982 147.253 547.533 147.67 548.865 149.863C550.197 152.074 552.126 155.035 552.022 157.721C551.97 159.089 551.442 160.39 551.2 161.733C550.854 163.669 551.131 165.696 551.97 167.481C552.247 168.065 552.696 168.69 553.354 168.699C554.089 168.707 554.547 167.965 554.841 167.314C557.22 162.05 559.537 155.919 559.736 150.155C559.927 144.191 558.24 138.252 555.646 132.88C552.394 126.157 546.954 120.66 540.052 117.39C528.195 111.759 513.423 112.852 502.11 119.45C495.2 123.487 489.379 129.669 485.989 136.759C484.276 140.354 483.187 144.266 483.135 148.237C483.109 150.089 483.559 151.815 483.619 153.634C483.706 156.253 483.697 158.822 484.077 161.442C484.294 162.885 484.631 164.444 485.773 165.404C486.058 165.646 486.439 165.846 486.793 165.721C487.044 165.629 487.217 165.387 487.347 165.162C489.146 162.151 489.353 158.505 489.111 155.044C489.042 154.076 488.947 153.1 489.102 152.141C489.396 150.331 490.46 149.138 492.337 149.004Z" fill="#2D252B"/>
<path d="M518.076 152.708C518.006 154.994 517.929 157.321 517.609 159.59C517.479 160.583 517.254 161.575 516.649 162.409C516.112 163.143 515.299 163.586 514.884 164.403C514.14 165.879 514.46 167.698 515.144 169.133C515.671 170.225 517.003 172.536 518.473 172.353C519.26 172.261 518.975 170.676 518.724 170.267C518.266 169.5 517.583 169.041 517.012 168.357C516.666 167.931 516.346 167.481 516.112 166.989C516 166.747 516.009 166.23 515.887 166.513C516.147 165.913 517.081 165.387 517.47 164.82C517.894 164.211 518.188 163.519 518.404 162.81C519.416 159.548 519.148 155.82 518.854 152.475C518.767 151.465 518.093 151.941 518.076 152.708Z" fill="#231F20"/>
<path d="M527.606 178.258C526.249 177.216 523.827 176.348 522.573 176.573C521.397 176.79 520.246 177.416 519.433 178.292C516.207 175.848 512.419 177.449 510.093 180.144C509.885 180.394 509.678 180.677 509.712 180.994C509.721 181.178 509.807 181.336 509.894 181.495C512.791 186.742 519.684 188.86 525.046 185.566C526.889 184.439 529.76 181.453 528.419 179.118C528.246 178.834 527.97 178.542 527.606 178.258Z" fill="#AF514F"/>
<path d="M537.258 158.122C537.137 156.737 536.212 154.343 534.301 155.01C532.623 155.594 532.337 157.972 532.631 159.406C532.804 160.265 533.315 161.241 534.223 161.575C534.586 161.709 534.897 161.692 535.165 161.575C536.791 161.7 537.379 159.381 537.258 158.122Z" fill="#231F20"/>
<path d="M528.255 158.297C529.276 158.397 530.564 157.388 531.516 157.054C533.038 156.537 534.499 156.354 536.151 156.387C538.85 156.437 542.551 155.903 543.667 153.643C543.84 153.309 543.762 152.625 543.243 152.483C541.929 152.108 540.476 152.783 539.109 152.767C537.345 152.75 535.641 152.516 533.877 152.783C531.282 153.175 527.736 154.777 527.485 157.129C527.442 157.588 527.563 158.222 528.255 158.297Z" fill="#231F20"/>
<path d="M500.994 158.122C501.115 156.737 502.041 154.343 503.961 155.01C505.63 155.594 505.907 157.972 505.621 159.406C505.448 160.265 504.938 161.25 504.03 161.583C503.675 161.709 503.355 161.692 503.087 161.583C501.461 161.7 500.873 159.39 500.994 158.122Z" fill="#231F20"/>
<path d="M509.998 158.297C508.977 158.397 507.688 157.388 506.737 157.062C505.215 156.537 503.753 156.353 502.101 156.387C499.412 156.437 495.701 155.903 494.586 153.651C494.421 153.309 494.499 152.625 495.009 152.483C496.333 152.116 497.777 152.792 499.143 152.775C500.908 152.75 502.612 152.516 504.376 152.783C506.971 153.175 510.517 154.777 510.767 157.138C510.811 157.588 510.681 158.23 509.998 158.297Z" fill="#231F20"/>
<path d="M529.743 117.382C519.157 118.358 505.967 118.324 500.337 107.964C498.261 104.152 498.91 99.1803 501.902 95.9521C497.976 92.3152 496.462 86.5512 498.132 81.6046C499.792 76.6665 504.558 72.7793 509.998 71.9368C512.964 66.056 519.157 61.4181 526.067 61.1845C532.977 60.951 540 65.9225 540.597 72.4039C545.509 72.6625 549.704 76.4663 551.079 80.904C552.463 85.35 551.373 90.2298 549.073 94.3172C553.068 96.5277 554.478 101.708 552.964 105.837C551.451 109.966 547.585 113.027 543.312 114.729C539.04 116.439 534.352 116.956 529.743 117.382Z" fill="#2D252B"/>
<path d="M435.61 445.455C441.872 446.214 459.731 446.097 462.957 439.316C463.632 437.881 463.753 436.271 463.813 434.703C464.626 415.392 459.515 396.39 455.476 377.471C450.745 355.341 447.441 332.919 445.591 310.397C444.708 299.653 444.146 288.834 441.837 278.299C438.438 262.842 430.888 248.761 416.998 239.978C400.842 229.759 377.24 226.256 360.764 237.775C343.51 249.846 334.636 267.713 331.488 287.766C329.317 301.605 329.274 315.66 327.406 329.532C325.797 341.478 320.738 351.863 317.84 363.491C312.236 385.996 309.572 410.237 310.169 434.327C328.703 437.973 346.165 439.399 364.639 437.163C381.357 435.17 397.824 439.716 414.178 442.335C421.262 443.47 428.518 444.587 435.61 445.455Z" fill="#B1B1EF"/>
<path d="M418.252 553.986C418.503 552.777 418.745 551.559 419.005 550.341C417.577 544.694 416.834 538.788 416.323 533.491C414.204 511.711 408.514 491.291 404.163 470.012C401.404 456.474 399.242 442.802 398.559 429.013C398.127 420.388 398.299 411.604 400.825 403.313C404.241 392.068 412.57 380.165 425.975 382.05C437.193 383.627 445.841 391.701 451.42 400.81C455.58 407.592 457.976 415.233 460.06 422.857C462.784 432.8 465.422 442.635 465.829 452.895C466.287 464.406 467.264 476.151 468.138 487.871C468.57 493.652 468.985 499.424 469.297 505.163C469.349 506.147 469.392 507.132 469.444 508.108C469.695 513.697 469.824 519.277 469.738 524.849C471.018 527.977 471.9 531.222 472.48 534.133C477.228 558.082 479.009 576.15 479.753 600.557H423.476C417.776 580.929 414.109 574.048 418.252 553.986Z" fill="#EA94D7"/>
<path d="M430.62 360.73C453.271 381.567 465.413 409.753 471.615 438.973C467.654 437.706 462.992 438.832 460.112 441.743C458.555 443.311 457.526 445.296 456.03 446.906C452.432 450.793 446.516 452.02 441.171 451.319C419.42 448.491 427.939 433.652 428.881 418.145C429.478 408.277 430.066 398.4 430.412 388.515C430.576 384.111 433.716 363.583 430.62 360.73Z" fill="#826DF7"/>
<path d="M345.205 355.341C347.54 366.777 357.884 378.013 371.108 377.838C376.332 377.763 381.806 377.171 386.131 374.418C390.048 371.916 392.643 367.803 393.629 363.449C394.771 358.419 393.456 354.582 392.072 349.927C390.706 345.348 390.931 340.151 391.207 335.405C391.32 333.586 391.553 331.935 391.77 330.35C391.778 330.283 391.787 330.225 391.796 330.158C392.314 326.379 392.721 322.959 391.112 318.522C390.386 316.528 389.452 314.634 388.319 312.891C388.232 312.749 388.137 312.607 388.042 312.466C383.017 305.008 374.455 300.345 364.457 301.48C359.709 302.022 355.229 303.79 350.835 305.55C348.552 306.468 344.798 306.843 344.79 309.171C344.79 317.195 344.79 325.228 344.781 333.261C344.781 340.426 343.761 348.292 345.205 355.341Z" fill="#FCC0F5"/>
<path d="M351.709 316.519C354.9 322.217 361.378 325.72 367.942 327.797C375.562 330.2 383.752 331.067 391.77 330.35C391.778 330.283 391.787 330.225 391.796 330.158C392.315 326.379 392.721 322.959 391.112 318.521C390.386 316.528 389.452 314.634 388.319 312.891C376.868 316.328 363.419 316.419 351.709 316.519Z" fill="#EA94D7"/>
<path d="M294.108 443.503C289.317 457.642 300.206 462.163 308.249 470.705C314.701 477.553 320.037 485.736 321.585 494.97C324.145 510.252 324.656 525.859 323.099 541.266C321.949 552.619 325.754 555.238 334.662 559.909C344.513 565.089 352.513 570.036 364.146 571.821C390.801 575.9 418.65 572.346 443.29 561.719C446.94 560.143 450.728 558.241 452.743 554.904C455.407 550.492 454.222 544.928 452.925 539.973C449.941 528.595 447.735 515.891 442.866 505.122C438.871 496.28 434.019 488.514 433.093 478.446C431.744 463.831 439.917 449.909 441.725 435.603C443.766 419.471 446.481 403.488 445.902 387.164C445.314 370.664 424.592 360.755 409.223 357.969C405.305 357.26 401.344 356.809 397.383 356.359C388.76 355.391 380.154 354.398 371.532 353.447C364.18 352.63 359.328 354.69 352.306 356.517C341.451 359.353 329.274 362.114 319.743 367.712C311.579 372.508 303.06 380.583 301.832 389.692C300.811 397.224 300.56 405.157 301.84 412.581C303.138 420.088 302.584 427.337 298.926 434.31C297.317 437.38 295.215 440.25 294.108 443.503Z" fill="#FCC0F5"/>
<path d="M332.803 299.986C333.711 305.8 336.271 311.181 341.123 315.627C355.402 328.706 379.445 323.977 394.624 314.667C395.982 313.825 397.305 312.932 398.585 311.99C405.902 306.626 411.921 299.644 416.678 292.028C421.046 285.038 422.187 278.574 423.683 270.783C424.09 268.68 424.436 266.637 424.635 264.618C421.279 252.59 412.267 242.53 400.652 237.233C394.295 234.338 386.407 232.778 378.736 233.062C368.427 235.865 359.406 241.854 352.332 249.87C352.063 250.171 351.795 250.488 351.519 250.804C341.538 262.491 330.156 283.061 332.803 299.986Z" fill="#FCC0F5"/>
<path d="M343.172 286.073C344.331 285.164 345.629 284.421 347.013 283.871C348.388 283.32 349.875 282.911 350.714 284.496C351.095 285.214 351.147 286.048 351.19 286.857C352.055 286.356 353.196 286.457 354.079 286.94C357.616 288.867 359.138 295.716 360.037 299.194C355.782 300.537 351.415 300.078 347.886 297.409C344.357 294.74 342.852 290.402 343.172 286.073Z" fill="#E95F7F"/>
<path d="M305.084 600.549H476.908C474.875 591.407 471.917 582.415 468.397 573.431C463.831 561.786 461.392 549.199 455.831 537.996C454.853 538.463 453.833 538.922 452.769 539.372C445.997 542.242 437.755 544.711 431 546.204C420.241 548.581 409.257 549.966 398.239 550.35C380.855 550.95 363.108 548.581 345.802 545.361C344.539 545.128 343.276 544.886 342.014 544.636C338.805 544.018 335.614 543.376 332.439 542.717C330.225 542.267 328.02 541.8 325.823 541.332C324.941 541.149 323.998 540.965 323.116 541.082C322.762 541.132 322.416 541.232 322.087 541.399C320.729 542.092 320.193 543.71 319.778 545.17C318.005 551.451 316.128 557.874 314.26 564.38C314.165 564.739 314.061 565.098 313.957 565.456C310.662 577.001 307.462 588.804 305.084 600.549Z" fill="#2D2827"/>
<path d="M306.061 369.088C308.275 366.427 312.201 363.95 316.656 361.789C326.42 357.035 337.196 354.557 348.128 354.39C357.633 354.248 367.259 354.015 376.747 354.04C388.077 354.065 399.995 352.93 411.229 354.273C428.077 356.284 442.2 364.267 448.35 380.141C459.039 407.726 448.427 435.795 445.106 463.331C441.664 491.801 455.597 528.603 464.255 555.638C451.463 560.285 437.988 563.171 424.367 564.189C414.914 564.889 405.417 564.697 395.938 564.506C374.602 564.072 353.257 563.638 331.912 563.196C325.927 562.987 320.08 563.48 314.07 563.379C316.327 546.121 316.898 528.654 315.756 511.295C315.289 504.046 314.632 498.866 311.094 492.585C307.592 486.345 302.93 480.548 299.86 474.108C296.374 466.793 295.89 458.192 298.536 450.56C300.742 444.204 304.997 438.573 306.545 432.042C308.284 424.735 306.467 417.135 304.651 409.845C301.451 396.94 296.348 380.833 306.061 369.088Z" fill="#826DF7"/>
<path d="M289.421 455.707C291.003 477.345 294.022 498.299 293.321 520.162C292.768 537.454 293.771 561.344 315.817 564.672C321.075 565.456 326.506 563.663 330.727 560.535C334.939 557.407 338.027 553.052 340.353 548.431C344.176 540.84 344.885 532.891 346.347 524.725C347.73 517.009 348.639 509.201 349.287 501.352C349.374 500.376 349.443 499.4 349.521 498.415C349.953 492.685 350.29 486.904 350.602 481.123C351.242 469.378 351.778 457.617 352.799 446.139C353.724 435.904 352.366 425.827 350.948 415.634C349.858 407.826 348.448 399.96 345.196 392.728C340.837 383.018 333.287 373.968 322.364 371.048C309.304 367.57 299.514 378.38 294.671 389.124C291.099 397.049 289.801 405.749 289.118 414.358C288.028 428.121 288.418 441.951 289.421 455.707Z" fill="#FCC0F5"/>
<path d="M287.423 438.781C291.073 441.017 294.463 444.462 298.64 445.605C307.799 448.116 318.731 439.157 326.342 444.679C328.34 446.13 329.62 448.366 331.652 449.767C335.389 452.345 340.569 451.461 344.833 449.817C349.097 448.166 353.257 445.83 357.849 445.763C365.019 445.672 361.344 421.64 360.626 416.91C358.723 404.331 356.198 392.886 349.624 381.767C344.885 373.759 338.044 366.736 329.464 363.766C291.393 350.578 284.681 415.383 280.461 436.813C283.012 436.554 285.269 437.455 287.423 438.781Z" fill="#826DF7"/>
<path d="M360.012 243.122C361.672 242.63 364.985 244.348 366.697 246.559C368.479 248.861 374.291 261.131 366.749 255.793C363.834 253.733 361.465 250.955 359.934 247.785C358.515 244.832 358.879 243.464 360.012 243.122Z" fill="#2D2827"/>
<path d="M385.344 262.249C387.004 261.757 390.308 263.475 392.02 265.686C393.811 267.988 399.623 280.259 392.072 274.92C389.158 272.86 386.797 270.082 385.266 266.912C383.839 263.959 384.211 262.591 385.344 262.249Z" fill="#2D2827"/>
<path d="M355.609 262.875C355.756 263.459 356.094 264.009 356.639 264.31C357.192 264.627 357.884 264.643 358.515 264.502C361.283 263.909 363.67 260.464 361.862 257.97C359.354 254.5 355.341 259.847 355.532 262.399C355.549 262.558 355.566 262.716 355.609 262.875Z" fill="#1D1D1B"/>
<path d="M382.161 283.27C382.42 283.82 382.905 284.263 383.735 284.521C384.816 284.846 386.018 284.546 387.004 284.012C388.414 283.253 390.282 281.385 390.075 279.65C389.832 277.581 387.402 275.471 385.422 276.497C383.242 277.614 381.045 280.834 382.161 283.27Z" fill="#1D1D1B"/>
<path d="M382.81 277.281C383.034 277.422 383.259 277.573 383.476 277.723C385.56 279.182 386.97 281.468 388.933 282.97C389.858 283.687 390.74 284.262 391.891 284.613C392.211 284.705 395.134 284.963 395.134 284.946C393.984 282.094 392.09 279.099 389.919 276.88C388.509 275.445 386.373 273.585 384.314 273.118C382.057 272.609 379.679 272.584 377.404 273.051C378.701 275.003 380.872 276.038 382.81 277.281Z" fill="#1D1D1B"/>
<path d="M364.042 263.092C364.5 260.097 362.355 257.203 360.401 254.934C358.939 253.249 357.14 251.864 355.35 250.521C355.203 250.421 355.047 250.313 354.874 250.321C354.606 250.338 354.45 250.621 354.364 250.863C353.75 252.715 354.303 254.775 355.35 256.427C356.405 258.079 357.91 259.405 359.389 260.723C360.859 262.041 362.347 263.4 363.315 265.094C363.713 264.426 363.938 263.751 364.042 263.092Z" fill="#1D1D1B"/>
<path d="M290.121 600.557H346.831C349.227 576.242 350.593 551.876 348.958 527.544C348.336 518.176 345.093 505.172 334.411 502.002C330.338 500.793 325.659 501.418 321.36 502.703C303.682 507.983 298.035 524.958 292.603 540.724C285.909 560.143 286.99 580.396 290.121 600.557Z" fill="#FCC0F5"/>
<path d="M370.572 264.218C368.626 265.569 367.354 267.913 365.763 269.631C364.855 270.624 363.826 271.809 362.563 272.401C361.413 272.943 360.262 272.659 359.095 272.985C355.704 273.919 355.938 279.358 357.927 281.36C358.584 282.01 359.285 281.001 359.354 280.459C359.441 279.766 359.095 278.265 359.276 277.698C359.735 276.263 360.479 276.947 361.473 276.922C363.212 276.88 364.587 275.921 365.789 274.803C368.409 272.368 371.073 269.131 371.947 265.694C372.137 264.927 371.497 263.576 370.572 264.218Z" fill="#1D1D1B"/>
<path d="M360.946 456.716C359.155 439.04 351.518 420.814 360.807 405.983C365.832 397.975 375.354 392.177 376.729 382.91C377.741 376.112 373.927 369.563 372.959 362.765C371.246 350.687 378.485 339.359 384.669 328.748C394.044 312.666 392.565 298.335 392.522 280.709C392.505 272.91 396.068 251.205 389.703 245.007C405.547 260.431 408.366 280.567 415.545 300.103C422.334 318.597 439.009 334.17 444.233 352.63C446.551 360.78 444.682 369.505 446.092 377.838C447.986 389.058 454.118 399.351 454.585 410.921C454.974 420.689 451.359 429.923 452.224 439.808C454.118 461.504 468.812 480.623 467.671 502.811C467.671 513.48 461.245 523.332 460.985 533.809C460.752 542.884 463.995 553.053 464.869 562.312C464.998 563.688 465.076 565.231 464.177 566.307C463.364 567.267 461.989 567.575 460.726 567.809C424.444 574.599 387.22 576.684 350.368 573.998C347.869 573.815 345.066 573.464 343.518 571.554C342.584 570.411 342.29 568.918 342.091 567.467C340.932 559.159 341.849 550.575 344.746 542.667C347.047 536.378 350.567 530.547 352.842 524.241C356.197 514.948 352.781 507.332 353.317 498.115C353.897 488.33 359.406 479.397 360.833 469.745C361.464 465.475 361.387 461.112 360.946 456.716Z" fill="#B1B1EF"/>
<path d="M351.129 248.219C350.965 248.627 350.809 249.044 350.68 249.47C362.156 246.851 373.564 242.254 384.461 237.917C386.39 256.168 389.997 273.627 398.317 290.235C399.588 292.779 400.989 295.448 400.773 298.26C400.626 300.17 399.752 301.955 399.45 303.84C399.147 305.725 399.64 307.986 401.404 308.845C402.831 309.537 404.552 309.07 406.014 308.436C422.196 301.438 430.464 279.349 426.105 263.417C426.088 263.35 426.079 263.292 426.053 263.233C422.697 251.205 413.694 241.137 402.079 235.84C395.722 232.954 387.834 231.385 380.163 231.677C369.24 232.094 355.428 237.658 351.129 248.219Z" fill="#B1B1EF"/>
<path d="M706.669 402.754C703.193 418.937 701.973 435.128 699.5 451.252C699.309 452.503 699.111 453.746 698.903 454.989C698.064 459.994 697.078 464.991 695.85 469.979C693.956 477.603 690.721 482.975 687.227 489.965C685.108 494.203 683.231 498.365 683.283 502.636H588.753C588.666 496.105 586.141 489.473 583.763 483.584C580.217 474.809 577.354 468.419 576.23 458.993C575.737 454.881 575.313 450.768 574.898 446.656C574.794 445.68 574.699 444.696 574.604 443.72C574.197 439.741 573.799 435.762 573.35 431.775C571.94 419.221 566.924 405.866 567.875 393.212C568.567 383.878 574.439 379.715 581.678 376.912C581.678 376.904 581.687 376.904 581.696 376.904C586.072 375.211 590.95 374.018 595.473 372.475C595.957 372.308 596.442 372.141 596.917 371.957C598.872 371.248 600.749 370.423 602.574 369.547C604.814 368.479 606.993 367.336 609.164 366.202C615.581 362.857 621.973 359.645 629.8 359.045C641.32 358.152 652.425 362.29 663.071 366.052C664.031 366.385 664.983 366.719 665.925 367.053C666.341 367.186 666.756 367.336 667.153 367.478C667.24 367.511 667.326 367.545 667.413 367.578C668.511 367.979 669.61 368.396 670.699 368.838C672.135 369.413 673.554 370.014 674.963 370.631H674.972C676.096 371.123 677.212 371.632 678.328 372.149C684.572 375.027 690.695 378.13 697.104 380.691C707.258 384.762 708.711 393.262 706.669 402.754Z" fill="#FFAFE0"/>
<path d="M626.444 247.001C627.932 247.493 629.385 247.693 630.768 246.993C632.386 246.167 633.216 244.34 634.738 243.364C636.952 241.929 639.979 242.68 642.314 243.915C644.658 245.141 646.846 246.834 649.467 247.268C653.333 247.91 658.332 246.067 660.58 249.161C661.515 250.454 661.506 252.164 662.146 253.608C664.239 258.362 671.677 258.087 675.249 261.941C678.89 265.886 677.281 272.81 681.251 276.455C683.984 278.957 688.412 278.932 691.275 281.293C698.825 287.516 692.036 303.198 701.359 308.403C702.492 309.029 703.764 309.412 704.767 310.222C708.754 313.433 705.727 320.407 708.987 324.302C710.734 326.379 713.865 327.03 715.491 329.199C718.068 332.627 715.474 337.54 716.581 341.644C718.207 347.692 727.236 350.228 727.72 356.467C727.945 359.337 726.146 362.023 725.93 364.9C725.299 373.2 737.364 378.681 736.473 386.964C736.291 388.749 735.47 390.451 735.478 392.244C735.487 397.574 740.399 401.537 739.569 407.109C738.618 413.515 734.7 415.817 728.629 416.118C718.319 416.626 709.022 425.31 698.938 423.141C696.896 422.699 694.89 421.806 692.806 421.973C690.332 422.165 688.23 423.792 685.826 424.359C683.076 425.001 680.213 424.209 677.385 424.084C673.104 423.884 672.758 426.202 669.826 427.796C666.176 429.789 661.039 430.273 656.939 430.273C641.899 430.265 628.191 421.081 613.16 420.514C603.715 420.155 593.786 423.175 585.077 419.621C578.08 416.76 573.012 409.995 565.574 408.527C558.37 407.1 547.611 412.089 541.808 405.799C535.581 399.059 544.705 392.044 542.811 385.254C542.309 383.444 540.874 381.892 540.752 380.015C540.467 375.603 546.936 373.851 548.874 369.847C550.664 366.16 548.182 361.414 550.257 357.86C552.108 354.699 556.796 353.94 558.673 350.795C560.792 347.241 558.344 342.537 559.875 338.725C561.518 334.621 567.114 333.011 568.74 328.907C569.899 325.995 568.688 322.684 569.285 319.614C570.322 314.267 576.394 311.122 578.322 306.009C580.476 300.32 577.19 293.096 581.073 288.333C582.18 286.99 583.737 286.048 584.896 284.747C589.747 279.291 585.613 273.052 590.647 268.364C592.87 266.287 595.706 264.66 597.038 261.974C598.5 259.046 598.258 254.9 601.25 253.416C603.309 252.398 605.843 253.307 608.091 252.79C612.589 251.756 614.431 245.55 619.023 244.991C621.523 244.674 624.04 246.217 626.444 247.001Z" fill="#2D252B"/>
<path d="M589.393 376.712H679.902C679.365 376.537 678.829 376.353 678.31 376.17C673.822 374.552 670.068 372.458 666.98 369.914C666.833 369.797 666.686 369.672 666.539 369.547C666.444 369.463 666.34 369.38 666.245 369.288C665.078 368.279 664.031 367.194 663.071 366.052C660.779 363.316 659.05 360.213 657.83 356.776C655.132 349.16 654.95 339.901 656.81 329.307H612.961C613.972 334.671 614.388 339.601 614.206 344.105C614.024 348.785 613.211 353.005 611.758 356.776C610.824 359.22 609.631 361.472 608.169 363.541C606.595 365.76 604.736 367.762 602.582 369.547C600.42 371.34 597.955 372.917 595.213 374.276C595.084 374.343 594.954 374.41 594.824 374.468C594.816 374.477 594.816 374.477 594.816 374.477C593.112 375.302 591.304 376.045 589.393 376.712Z" fill="#D47B69"/>
<path d="M613.704 344.113C627.413 343.955 641.078 340.685 653.229 334.546C643.603 333.119 634.202 331.359 624.827 329.307H612.468C613.471 334.671 613.886 339.601 613.704 344.113Z" fill="#B15448"/>
<path d="M609.769 268.013C615.451 260.706 625.804 257.119 635.966 257.219C646.128 257.119 656.49 260.706 662.172 268.013C670.527 278.757 674.799 293.297 672.377 306.51C668.978 325.011 656.533 340.869 636.866 341.886V341.945C636.563 341.936 636.26 341.936 635.966 341.928C635.672 341.936 635.369 341.936 635.075 341.945V341.886C615.408 340.869 602.954 325.011 599.564 306.51C597.134 293.297 601.415 278.757 609.769 268.013Z" fill="#D47B69"/>
<path d="M665.64 304.9C665.64 311.765 671.391 317.329 678.492 317.329C685.593 317.329 691.344 311.765 691.344 304.9C691.344 298.035 685.593 292.471 678.492 292.471C671.391 292.471 665.64 298.035 665.64 304.9Z" fill="#D47B69"/>
<path d="M580.519 304.9C580.519 311.757 586.271 317.329 593.371 317.329C600.472 317.329 606.223 311.757 606.223 304.9C606.223 298.035 600.472 292.471 593.371 292.471C586.271 292.471 580.519 298.035 580.519 304.9Z" fill="#D47B69"/>
<path d="M659.707 288.5C655.599 288.575 651.162 287.641 647.408 286.081C646.154 285.564 645.039 284.596 644.684 283.328C648.559 282.052 653.125 282.152 657.026 283.403C660.062 284.387 663.928 285.463 665.528 288.408C663.659 288.608 661.592 288.475 659.707 288.5Z" fill="#2D252B"/>
<path d="M615.529 288.175C619.611 288.525 624.117 287.891 627.966 286.59C629.255 286.156 630.44 285.264 630.889 284.029C627.11 282.494 622.543 282.277 618.574 283.27C615.469 284.046 611.542 284.847 609.726 287.674C611.568 288.008 613.644 288.008 615.529 288.175Z" fill="#2D252B"/>
<path d="M657 376.662V376.712C656.991 377.313 657 377.938 657.06 378.589C657.467 383.527 659.759 389.783 661.342 394.046C665.675 405.799 673.234 416.168 680.663 426.253C686.501 434.185 692.365 442.118 698.436 449.892V449.901C698.791 450.351 699.136 450.802 699.491 451.252C705.459 458.843 711.625 466.275 718.164 473.399C729.234 485.436 739.673 498.49 753.961 507.166C762.393 512.287 774.155 521.855 784.767 516.333C785.823 515.782 786.826 515.065 787.474 514.089C788.763 512.162 788.46 509.651 788.071 507.391C783.193 479.313 768.257 455.615 753.355 431.458C744.3 416.785 735.063 400.594 721.026 389.792C720.672 389.516 720.309 389.249 719.945 388.982C707.716 379.974 693.446 373.767 678.362 371.157C677.229 370.965 676.105 370.79 674.972 370.631H674.963C672.836 370.339 670.682 370.131 668.529 369.98C668.01 369.947 667.491 369.922 666.981 369.914C666.609 369.905 666.237 369.905 665.873 369.922C661.212 370.039 657.173 371.532 657 376.662Z" fill="#D47B69"/>
<path d="M549.522 477.495C563.161 462.663 575.131 446.497 587.032 430.356C594.461 420.272 602.011 409.903 606.353 398.15C608.143 393.303 610.859 385.896 610.686 380.758C610.487 374.677 604.839 373.701 599.166 374.084C580.476 375.327 562.608 382.142 547.749 393.086C547.386 393.353 547.023 393.62 546.668 393.896C532.631 404.69 523.386 420.889 514.331 435.562C506.538 448.199 498.633 460.828 492.173 474.175C486.871 485.144 476.363 503.445 482.694 515.315C490.036 529.087 504.817 516.683 513.725 511.27C528.022 502.586 538.461 489.54 549.522 477.495Z" fill="#D47B69"/>
<path d="M631.158 315.493C629.393 315.894 625.588 317.395 626.254 319.547C626.738 321.149 629.558 323.76 630.82 324.878C632.351 326.246 634.34 327.238 636.425 327.197C637.35 327.172 638.258 326.938 639.14 326.663C644.027 325.111 650.081 320.548 642.73 317.337C641.761 316.92 640.74 316.503 639.677 316.486C638.604 316.478 637.462 316.936 636.987 317.862C634.989 316.177 634.236 314.784 631.158 315.493Z" fill="#D34A51"/>
<path d="M708.468 555.855C711.807 565.723 714.644 575.75 716.97 585.877C718.207 591.257 725.109 608.791 717.48 610.626C703.738 613.929 687.72 612.294 673.579 612.294C637.376 612.294 601.164 612.294 564.952 612.294C566.906 579.328 583.425 547.447 579.473 514.648C578.357 505.381 575.598 496.43 573.765 487.288C572.035 478.671 572.571 470.922 572.606 462.372C572.675 442.986 572.009 423.542 571.438 404.164C571.213 396.74 570.997 389.291 571.404 381.867C571.438 381.133 571.499 380.374 571.905 379.757C572.346 379.098 573.107 378.731 573.834 378.397C578.392 376.32 583.157 374.635 588.018 373.342C592.939 372.041 597.99 371.741 602.574 369.547C643.041 383.21 664.576 367.787 664.671 367.812C673.744 369.614 693.056 371.941 698.41 373.534C696.879 382.46 697.363 392.002 697.389 401.011C697.433 415.859 699.128 430.632 699.82 445.463C699.889 446.998 699.984 448.558 700.088 450.118C700.555 457.292 701.203 464.624 700.693 471.706C699.707 485.336 695.245 499.016 696.464 512.604C697.813 527.561 703.694 541.708 708.468 555.855Z" fill="#85AEFF"/>
<path d="M666.6 287.85C664.957 284.079 663.262 280.075 661.229 276.488C657.415 269.774 652.33 261.707 643.456 264.051C642.721 264.243 636.476 267.78 636.476 267.78C631.279 263.809 623.408 264.61 617.882 268.155C612.286 271.784 608.429 276.922 606.111 282.995C604.978 285.998 604.321 298.035 600.403 298.243C598.759 298.327 597.255 297.167 596.554 295.732C590.214 282.711 605.54 263.159 616.801 257.812C628.943 252.056 644.07 253.174 655.642 259.93C664.014 264.819 670.743 272.201 673.649 281.327C674.453 283.846 677.921 296.149 672.689 296.6C670.137 296.825 667.422 289.735 666.635 287.925C666.617 287.9 666.609 287.875 666.6 287.85Z" fill="#2D252B"/>
<path d="M618.003 297.601C618.003 299.686 619.473 301.38 621.289 301.38C623.114 301.38 624.584 299.686 624.584 297.601C624.584 295.507 623.114 293.814 621.289 293.814C619.473 293.814 618.003 295.507 618.003 297.601Z" fill="#2D252B"/>
<path d="M611.343 291.528C611.646 292.054 611.957 292.563 612.044 292.663C612.545 293.222 613.22 293.914 613.851 294.356C615.477 295.482 617.752 295.641 619.689 295.899C623.313 296.366 627.17 296.767 630.042 298.952C629.064 295.924 626.773 292.913 623.521 291.979C619.361 290.786 614.863 290.903 610.582 290.169C610.574 290.169 610.963 290.861 611.343 291.528Z" fill="#2D252B"/>
<path d="M657.605 297.209C657.605 299.211 656.196 300.837 654.449 300.837C652.71 300.837 651.292 299.211 651.292 297.209C651.292 295.215 652.71 293.589 654.449 293.589C656.196 293.589 657.605 295.215 657.605 297.209Z" fill="#2D252B"/>
<path d="M664.057 291.528C663.755 292.054 663.452 292.563 663.365 292.663C662.855 293.222 662.18 293.914 661.558 294.356C659.923 295.482 657.649 295.641 655.711 295.899C652.096 296.366 648.239 296.767 645.367 298.952C646.345 295.924 648.637 292.913 651.88 291.979C656.04 290.786 660.537 290.903 664.818 290.169C664.836 290.169 664.446 290.861 664.057 291.528Z" fill="#2D252B"/>
<path d="M638.829 291.053C638.128 292.921 638.215 295.115 638.059 297.075C637.973 298.193 637.878 299.294 637.834 300.412C637.791 301.446 637.687 302.489 637.86 303.515C638.042 304.558 638.544 305.425 639.305 306.176C639.564 306.434 639.858 306.651 640.118 306.91C640.282 307.068 640.187 306.935 640.317 307.135C640.308 307.11 640.299 307.085 640.291 307.052C640.412 307.369 640.403 307.277 640.273 306.801C640.342 307.118 640.178 306.843 640.299 306.743C640.178 306.843 640.247 306.893 640.152 307.035C639.997 307.26 639.798 307.444 639.555 307.611C639.218 307.836 638.82 307.978 638.44 308.153C637.8 308.445 637.428 308.77 637.168 309.429C637.289 309.245 637.411 309.054 637.532 308.87C637.212 309.154 637.021 309.437 636.771 309.763C636.416 310.23 636.589 311.039 637.091 311.331C637.532 311.581 638.016 311.956 638.561 311.906C639.097 311.848 639.659 311.631 640.118 311.381C641.017 310.905 641.778 310.246 642.254 309.362C642.851 308.269 643.058 306.977 642.747 305.775C642.461 304.674 641.787 303.907 640.948 303.156C640.818 303.031 640.671 302.923 640.55 302.789C640.49 302.731 640.36 302.547 640.377 302.589C640.446 302.797 640.317 302.239 640.351 302.522C640.325 302.305 640.342 302.08 640.342 301.872C640.351 300.662 640.394 299.469 640.368 298.268C640.36 297.134 640.342 296.007 640.325 294.873C640.308 293.68 640.325 292.412 639.988 291.244C639.815 290.627 639.114 290.285 638.829 291.053Z" fill="#231F20"/>
<path d="M582.647 434.527C576.351 446.281 568.627 457.308 561.63 468.686C542.716 462.163 525.349 452.111 509.531 440.15C516.571 427.47 523.948 414.8 533.911 404.106C545.077 392.136 562.097 382.076 577.812 376.712C582.163 394.713 591.443 418.111 582.647 434.527Z" fill="#85AEFF"/>
<path d="M702.276 465.842C698.22 453.922 694.172 441.993 690.125 430.073C686.847 420.422 683.534 410.562 683.629 400.402C683.724 390.251 689.294 379.14 698.073 373.559C707.578 377.613 717.221 381.75 725.204 388.173C733.809 395.097 740.365 404.681 746.531 413.59C753.546 423.717 759.859 434.286 765.429 445.221C758.596 450.043 750.579 451.336 742.406 453.446C729.511 456.766 716.849 460.945 704.551 465.95L702.276 465.842Z" fill="#85AEFF"/>
<path d="M540.112 568.542C546.167 573.689 551.503 580.521 559.088 583.607C569.328 587.778 579.654 584.75 588.805 579.637C592.454 581.856 596.096 584.074 599.745 586.293C600.896 586.994 602.115 587.72 603.473 587.811C604.831 587.903 606.362 587.119 606.595 585.801C606.803 584.625 605.972 583.541 605.194 582.623C602.582 579.545 599.97 576.467 597.367 573.397C600.109 575.157 615.348 584.608 617.112 580.171C618.444 576.809 609.432 566.148 607.088 564.847C612.052 567.608 617.544 570.461 623.157 569.485C626.409 568.926 611.361 554.796 610.928 554.312C614.344 556.197 618.236 557.248 622.146 557.365C622.734 557.373 623.356 557.365 623.841 557.039C624.896 556.355 624.645 554.72 623.918 553.703C622.829 552.201 621.047 551.342 619.335 550.591C609.181 546.187 599.616 540.465 588.424 545.595C583.46 547.872 576.757 552.443 573.747 556.956C562.833 548.956 555.957 535.443 548.121 524.749C540.086 513.78 532.467 498.006 520.151 491.592C509.384 485.986 495.07 485.502 485.781 493.252C479.191 498.757 479.796 509.126 483.472 516.825C486.283 522.706 491.429 527.143 496.419 531.389C510.984 543.776 525.557 556.155 540.112 568.542Z" fill="#D47B69"/>
<path d="M734.821 568.542C729.277 573.689 724.399 580.521 717.472 583.607C708.105 587.778 698.661 584.75 690.289 579.637C686.95 581.856 683.621 584.074 680.291 586.293C679.227 586.994 678.111 587.72 676.875 587.811C675.629 587.903 674.237 587.119 674.029 585.801C673.83 584.625 674.591 583.541 675.301 582.623C677.688 579.545 680.083 576.467 682.462 573.397C679.954 575.157 666.012 584.608 664.403 580.171C663.184 576.809 671.426 566.148 673.571 564.847C669.022 567.608 664.005 570.461 658.868 569.485C655.902 568.918 669.67 554.796 670.059 554.312C666.929 556.197 663.383 557.248 659.793 557.365C659.266 557.373 658.686 557.365 658.245 557.039C657.285 556.355 657.51 554.72 658.185 553.711C659.179 552.201 660.797 551.342 662.379 550.591C671.651 546.187 680.403 540.465 690.635 545.595C695.175 547.872 701.307 552.443 704.058 556.956C714.038 548.956 720.326 535.443 727.487 524.758C734.838 513.78 741.809 498.006 753.07 491.592C762.912 485.986 776.006 485.502 784.499 493.252C790.527 498.757 789.974 509.134 786.618 516.825C784.041 522.706 779.345 527.143 774.769 531.389C761.45 543.776 748.131 556.155 734.821 568.542Z" fill="#D47B69"/>
<path d="M521.293 635C521.293 632.489 521.319 629.978 521.371 627.467C521.371 627.459 521.371 627.459 521.371 627.459C521.578 616.59 522.244 605.721 523.36 594.902C524.086 587.77 525.747 580.663 528.835 574.123C532.061 567.316 535.105 559.976 542.595 566.099C542.794 566.249 542.984 566.416 543.183 566.591C546.011 569.093 548.675 571.737 551.183 574.499C553.838 577.41 556.32 580.454 558.673 583.608C560.082 585.493 561.449 587.411 562.763 589.372C566.993 595.628 570.781 602.209 574.327 608.924C575.961 612.002 577.544 615.105 579.092 618.225C580.787 621.612 582.439 625.015 584.083 628.41C585.112 630.52 586.158 632.731 586.651 635H521.293Z" fill="#FFC4D7"/>
<path d="M374.801 635H309.685C310.255 628.919 311.44 622.888 313.196 617.007C314.874 611.377 317.079 605.879 319.752 600.599C325.417 589.422 333.201 579.22 342.636 570.787C345.456 568.267 348.431 565.907 351.536 563.721C352.66 562.92 353.81 562.153 354.969 561.411C359.052 561.477 363.955 564.305 365.702 567.867C368.712 573.99 369.586 580.863 370.373 587.603C372.12 602.66 373.426 619.318 374.801 635Z" fill="#FFC4D7"/>
<path d="M405.659 425.168C401.387 413.407 394.978 402.229 386.935 391.91C359.077 421.99 373.555 466.901 364.267 502.778C378.2 499.133 391.649 493.769 404.189 486.862C405.288 486.253 406.403 485.611 407.234 484.677C408.349 483.409 408.808 481.716 409.188 480.089C413.642 461.054 411.956 442.469 405.659 425.168Z" fill="#E95254"/>
<path d="M488.843 542.559C488.774 543.101 488.609 543.668 488.358 544.269C487.191 546.972 484.64 548.848 482.175 550.55C477.833 553.561 473.405 556.464 468.743 558.983C466.633 560.126 464.479 561.186 462.274 562.161C459.844 563.238 457.361 564.213 454.836 565.073C452.51 565.873 450.148 566.574 447.77 567.175H411.419C411.644 567.508 411.861 567.834 412.068 568.167C410.65 567.884 409.249 567.55 407.856 567.175C398.974 564.797 390.585 560.793 383.406 555.213C381.625 553.837 379.86 552.268 379.039 550.216C377.344 545.962 381.339 543.718 385.413 541.975C387.411 541.116 389.434 540.382 390.81 539.598C396.959 536.077 403.437 532.065 407.709 527.06C412.12 521.872 412.509 516.183 412.189 510.144C412.172 509.718 412.146 509.301 412.12 508.892C412.025 507.157 411.904 505.439 411.748 503.737C411.203 497.381 410.373 491.175 409.525 484.794C409.517 484.727 409.499 484.66 409.491 484.585C409.439 484.185 409.387 483.784 409.335 483.376C409.257 482.883 409.188 482.383 409.128 481.891C409.128 481.799 411.065 481.073 414.031 479.997C415.675 479.405 417.629 478.713 419.748 477.962C425.612 475.893 432.739 473.399 437.859 471.556C441.18 470.371 443.653 469.453 444.397 469.111C444.734 468.953 445.063 468.795 445.4 468.644C445.85 468.419 446.3 468.194 446.75 467.969C447.035 467.827 447.32 467.677 447.597 467.535C447.908 467.368 448.211 467.21 448.514 467.043C449.171 466.684 449.811 466.325 450.443 465.958C451.074 465.591 451.688 465.216 452.293 464.841C452.561 464.674 452.83 464.507 453.089 464.34C453.426 464.123 453.772 463.906 454.101 463.689C454.352 463.523 454.603 463.356 454.853 463.189C455.087 463.03 455.329 462.864 455.563 462.705C455.779 462.563 455.986 462.422 456.203 462.271C456.453 462.096 456.704 461.921 456.946 461.746C457.111 461.637 457.266 461.521 457.413 461.412C457.95 461.029 458.469 460.653 458.987 460.269C459.515 459.886 460.043 459.494 460.562 459.102C460.587 459.085 460.613 459.068 460.631 459.052C461.046 458.743 461.461 458.426 461.867 458.109C462.507 457.625 463.147 457.133 463.787 456.641C464.185 456.332 464.575 456.024 464.972 455.715C465.37 455.406 465.768 455.098 466.166 454.789C466.962 454.172 467.766 453.554 468.57 452.937C468.977 452.629 469.383 452.32 469.79 452.011C470.456 451.511 471.122 451.01 471.796 450.518C472.073 450.318 472.358 450.109 472.644 449.909C472.938 449.692 473.241 449.475 473.543 449.259C473.569 449.242 473.604 449.217 473.63 449.2C473.803 449.075 473.976 448.95 474.157 448.825C474.287 448.733 474.417 448.641 474.555 448.55C474.408 448.65 474.287 448.908 474.175 449.284C474.114 449.517 474.054 449.801 474.002 450.109C473.976 450.226 473.958 450.343 473.941 450.46C473.889 450.81 473.846 451.202 473.803 451.619V451.628C473.768 451.911 473.751 452.203 473.725 452.503C473.699 452.887 473.664 453.279 473.638 453.68C473.586 454.422 473.543 455.181 473.509 455.915C473.5 456.074 473.491 456.232 473.491 456.399C473.483 456.407 473.483 456.407 473.483 456.416C473.474 456.532 473.465 456.658 473.465 456.774C473.448 457 473.439 457.216 473.422 457.433C473.414 457.634 473.405 457.842 473.388 458.042C473.388 458.067 473.388 458.092 473.388 458.117C473.379 458.267 473.362 458.426 473.353 458.568C473.327 459.002 473.292 459.394 473.258 459.719C473.241 459.844 473.232 459.969 473.215 460.078C473.189 460.261 473.163 460.411 473.128 460.536C473.102 460.636 473.085 460.72 473.068 460.82C472.929 461.354 472.808 461.888 472.696 462.422C472.644 462.697 472.583 462.964 472.523 463.231C472.419 463.773 472.315 464.315 472.22 464.857C472.159 465.124 472.116 465.399 472.073 465.666C471.986 466.167 471.909 466.659 471.831 467.16C471.814 467.26 471.805 467.368 471.788 467.477C471.718 467.96 471.641 468.453 471.58 468.945C471.442 470.021 471.321 471.105 471.208 472.181C471.148 472.74 471.104 473.291 471.052 473.849C470.871 475.985 470.689 478.129 470.542 480.281C470.508 480.723 470.473 481.173 470.447 481.624C470.222 484.81 470.049 488.013 469.902 491.208C469.721 495.196 469.599 499.191 469.53 503.187C469.522 504.088 469.504 505.005 469.496 505.914C469.461 509.159 469.522 512.412 470.162 515.599C470.525 517.451 471.087 519.278 471.935 521.071C473.31 523.991 475.299 526.593 477.556 528.962C477.556 528.97 477.565 528.979 477.574 528.979C479.13 530.622 480.817 532.149 482.529 533.592C482.901 533.9 483.282 534.217 483.68 534.534C483.688 534.543 483.697 534.543 483.697 534.551C483.714 534.559 483.723 534.568 483.723 534.568C483.731 534.576 483.74 534.584 483.749 534.584C483.757 534.601 483.766 534.609 483.775 534.609C483.783 534.618 483.792 534.626 483.801 534.626C486.464 536.795 489.31 539.172 488.843 542.559Z" fill="#FFC4D7"/>
<path d="M474.555 448.55C474.408 448.65 474.287 448.908 474.175 449.292C473.976 450.018 473.829 451.185 473.725 452.503C473.474 455.565 473.396 459.452 473.137 460.536C472.047 464.891 471.442 469.412 471.052 473.849C470.862 475.993 470.689 478.129 470.542 480.281C470.508 480.723 470.473 481.173 470.447 481.624C456.073 485.261 440.817 485.661 426.261 482.733C425.802 482.641 425.353 482.55 424.894 482.45C425.188 482.091 425.491 481.732 425.785 481.374C426.728 480.239 427.67 479.105 428.613 477.962C428.829 477.703 429.046 477.445 429.253 477.186C431.562 475.66 434.65 473.649 437.859 471.556C441.18 470.371 443.653 469.453 444.397 469.111C456.133 463.689 463.77 456.182 473.552 449.259C473.751 449.117 473.95 448.967 474.157 448.825C474.287 448.733 474.417 448.641 474.555 448.55Z" fill="#FCA7D4"/>
<path d="M501.781 440.358C498.088 446.297 494.145 453.146 486.689 454.681C483.602 455.323 480.134 454.881 477.764 452.854C472.921 463.372 465.266 469.987 455.381 476.152C442.875 483.943 427.593 491.567 412.509 485.845C407.675 484.001 403.056 481.44 398.939 478.371C388.673 470.713 383.017 457.642 381.452 445.446C380.829 440.542 380.362 435.67 380.18 430.865C379.584 414.875 382.265 399.551 393.352 386.03C402.278 375.144 414.801 365.668 429.132 365.426C436.051 365.317 442.875 367.395 449.016 370.498C469.461 380.833 482.019 401.353 481.353 423.533C481.457 419.921 490.019 417.552 492.735 417.736C496.782 417.994 502.361 420.772 504.367 424.292C507.325 429.481 504.653 435.737 501.781 440.358Z" fill="#FFC4D7"/>
<path d="M448.306 418.562C448.254 418.595 448.203 418.62 448.159 418.645C446.032 419.93 443.498 420.63 441.007 421.248C438.516 421.865 435.973 422.449 433.699 423.55C431.087 424.818 428.951 426.728 426.252 427.863C427.359 422.165 431.26 418.804 437.625 416.576C439.934 415.776 442.373 415.525 444.76 415.042C447.173 414.558 449.526 413.682 451.965 413.323C451.973 415.325 450.365 417.277 448.306 418.562Z" fill="#2D252B"/>
<path d="M436.155 425.594C434.027 422.432 435.498 415.909 440.661 417.853C444.38 419.254 447.39 427.955 438.775 427.195C437.625 427.095 436.743 426.478 436.155 425.594Z" fill="#2D252B"/>
<path d="M384.764 419.346C384.807 419.371 384.851 419.396 384.894 419.421C386.883 420.581 389.227 421.139 391.527 421.615C393.828 422.099 396.172 422.533 398.282 423.508C400.712 424.626 402.719 426.411 405.227 427.387C404.077 421.773 400.418 418.645 394.511 416.777C392.375 416.101 390.135 415.993 387.93 415.651C385.707 415.3 383.519 414.558 381.279 414.333C381.313 416.326 382.836 418.178 384.764 419.346Z" fill="#2D252B"/>
<path d="M400.081 426.411C401.958 423.15 400.462 416.735 395.765 418.954C392.384 420.555 389.824 429.381 397.72 428.155C398.775 427.988 399.562 427.32 400.081 426.411Z" fill="#2D252B"/>
<path d="M435.238 457.233C435.203 457.341 435.178 457.45 435.143 457.558C433.439 462.646 426.408 466.4 421.106 466.484C417.154 466.55 413.201 464.974 410.451 462.229C410.183 461.971 409.932 461.687 409.837 461.328C409.759 460.995 409.828 460.644 409.915 460.319C410.857 456.557 412.276 454.322 416.626 454.68C419.151 454.88 421.02 453.22 423.286 452.511C425.24 451.911 427.359 452.153 429.331 452.578C430.758 452.878 433.292 453.062 434.425 453.879C435.446 454.605 435.549 456.023 435.238 457.233Z" fill="#E96588"/>
<path d="M414.801 361.998C416.358 361.356 417.941 360.788 419.541 360.296C414.429 369.655 409.301 379.048 403.004 387.606C396.708 396.156 389.175 403.897 380.111 409.153C379.981 409.236 381.088 402.137 381.313 401.303C382.1 398.492 382.844 395.731 383.951 393.028C386.079 387.832 389.011 382.993 392.531 378.681C398.507 371.374 406.213 365.56 414.801 361.998Z" fill="#E95254"/>
<path d="M493.496 426.986C492.389 429.047 491.074 431.024 489.561 432.901C488.419 434.319 486.741 435.778 485.037 435.203C483.835 434.794 483.143 433.501 482.65 432.292C481.241 428.897 481.388 424.067 479.615 421.031C477.859 418.044 472.428 416.059 469.703 414.015C462.127 408.368 456.92 400.344 449.958 394.346C445.461 390.475 440.038 387.372 435.186 383.986C433.552 382.851 410.269 366.719 410.148 366.927C412.639 362.69 417.508 360.621 422.204 359.612C434.235 357.026 447.225 354.215 459.385 357.526C463.07 358.527 466.598 360.096 469.894 362.073C482.59 369.697 491.904 383.168 496.22 397.549C499.23 407.559 498.296 418.044 493.496 426.986Z" fill="#E95254"/>
<path d="M456.678 444.087C453.911 465.016 449.05 485.828 443.627 506.048C456.194 500.626 467.109 491.358 477.496 482.842C478.542 481.983 479.606 481.098 480.315 479.964C480.99 478.871 481.293 477.612 481.587 476.369C483.109 470.037 484.631 463.698 486.144 457.358C486.871 463.589 487.589 469.829 488.307 476.06C490.616 474.483 493.773 474.559 496.203 473.149C503.84 468.711 504.307 452.554 504.843 445.138C506.132 427.179 502.465 409.645 493.392 393.846C489.154 386.472 477.608 369.864 467.039 376.42C457.448 382.359 459.039 398.817 459.091 408.035C459.169 420.038 458.27 432.083 456.678 444.087Z" fill="#E95254"/>
<path d="M541.911 582.072C538.971 589.663 537.552 597.596 536.904 605.671C536.705 608.123 536.575 610.592 536.489 613.061C536.264 620.118 536.428 627.217 536.489 634.249C536.489 634.499 536.489 634.749 536.471 635H354.148C351.285 616.448 349.573 598.539 344.158 580.279C343.242 577.176 342.264 573.981 342.636 570.786C342.645 570.695 342.654 570.603 342.671 570.511C343.268 566.324 346.018 563.079 349.529 560.426C352.107 558.483 355.082 556.864 357.919 555.43C364.985 551.859 373.028 548.531 380.682 544.594C380.682 544.594 380.682 544.594 380.682 544.586H380.691C380.691 544.586 380.691 544.577 380.699 544.577C382.446 543.693 384.159 542.767 385.854 541.791C385.854 541.783 385.854 541.783 385.854 541.783C394.494 536.82 402.165 530.755 406.706 522.264C408.574 518.76 407.735 513.505 410.442 510.318C410.927 509.743 411.506 509.376 412.137 509.167C416.038 507.866 422.308 512.546 424.912 514.873C426.019 515.866 435.731 525.859 434.849 526.768C440.047 521.479 446.032 516.908 452.536 513.213C453.513 512.646 454.516 512.104 455.519 511.586C458.244 510.177 465.716 504.705 469.496 505.806C470.335 506.048 470.983 506.615 471.372 507.616C471.814 508.767 471.865 510.018 471.952 511.244C472.298 516.091 473.353 520.929 475.515 525.308C476.294 526.901 477.202 528.336 478.214 529.638C478.214 529.638 478.214 529.638 478.214 529.646C480.298 532.332 482.823 534.434 485.626 536.177H485.634C485.634 536.177 485.634 536.177 485.643 536.186C489.301 538.446 493.427 540.081 497.682 541.549C502.335 543.151 507.126 544.552 511.598 546.354C516.484 548.323 521.397 550.308 526.076 552.694C527.693 553.519 529.293 554.395 530.85 555.338C531.083 555.48 531.317 555.621 531.55 555.772C534.024 557.306 536.143 558.808 537.898 560.334C539.991 562.17 541.565 564.055 542.603 566.098C544.731 570.336 544.541 575.291 541.911 582.072Z" fill="#2D252B"/>
<path d="M412.708 420.739C412.968 423.892 413.193 427.037 413.478 430.173C413.59 431.524 413.807 433.068 413.305 434.369C412.76 435.779 411.368 436.413 410.373 437.472C408.695 439.249 408.142 441.86 409.465 443.987C410.563 445.747 413.634 448.641 415.943 448.149C416.808 447.957 417.007 446.631 416.488 446.014C415.225 444.537 410.14 442.635 411.887 440.392C412.501 439.607 413.504 439.099 414.153 438.323C414.896 437.447 415.355 436.463 415.623 435.37C416.816 430.557 414.732 425.193 413.711 420.514C413.539 419.696 412.648 419.971 412.708 420.739Z" fill="#231F20"/>
<path d="M456.782 403.396C444.881 405.231 433.828 409.778 425.621 416.217C425.171 410.37 427.913 404.272 435.1 401.503C442.295 398.733 450.218 399.909 456.782 403.396Z" fill="#2D252B"/>
<path d="M381.089 403.396C391.623 405.231 401.413 409.778 408.687 416.217C409.084 410.37 406.654 404.272 400.289 401.503C393.915 398.733 386.9 399.909 381.089 403.396Z" fill="#2D252B"/>
<path d="M418.953 378.263C429.236 393.595 444.181 406.975 462.577 411.129C464.35 411.53 466.495 411.738 467.723 410.437C469.297 408.777 468.121 406.133 466.875 404.231C461.798 396.531 456.22 389.149 450.166 382.134C444.83 375.961 438.75 369.838 430.81 367.428C427.774 366.51 424.583 366.177 421.417 365.943C418.105 365.701 414.689 365.568 411.558 366.627C406.308 368.412 402.857 373.167 399.761 377.646C395.385 383.977 391.009 390.309 386.632 396.64C384.747 399.368 374.317 410.604 379.177 413.106C382.862 415.008 392.142 408.393 395.108 406.45C400.124 403.171 404.674 399.217 408.583 394.746C410.226 392.87 420.544 380.632 418.953 378.263Z" fill="#E95254"/>
<path d="M806 635H510.525C509.098 632.998 507.965 630.721 507.074 628.327C505.198 623.272 504.437 617.724 504.367 613.27C504.186 601.091 507.481 588.946 505.613 576.776C504.142 567.233 499.801 558.708 498.469 548.982C498.132 546.513 497.872 544.027 497.691 541.549C497.12 533.992 497.249 526.393 498.054 518.852C499.325 506.94 502.292 495.187 506.884 484.051C513.172 468.794 528.419 451.369 543.987 444.445C547.334 442.961 550.854 441.901 554.366 440.85C561.691 438.656 568.809 436.187 576.342 434.886C582.085 433.902 587.931 433.885 593.726 434.644C601.908 435.72 609.96 438.331 617.389 441.901C620.226 443.269 622.976 444.779 625.596 446.397C626.505 446.956 627.395 447.523 628.269 448.107C643.11 457.975 654.829 471.656 664.775 486.17C667.422 490.04 669.964 493.978 672.377 497.981L672.386 497.99C675.828 503.704 679.045 509.535 682.021 515.499C684.979 521.438 687.686 527.494 690.15 533.642C693.783 542.734 696.992 552.218 701.446 560.927C703.495 564.922 705.796 568.76 708.546 572.305C709.766 573.89 711.08 575.416 712.49 576.876C719.539 584.191 728.421 589.171 737.978 593.275C738.281 593.409 738.575 593.534 738.869 593.651C741.403 594.727 743.971 595.744 746.575 596.72C766.389 604.203 787.509 609.883 800.465 625.632C802.783 628.46 804.763 631.58 806 635Z" fill="#F4EFF0"/>
<path d="M639.676 509.776C636.935 506.757 632.723 505.364 628.71 505.564C624.706 505.772 620.891 507.441 617.596 509.718C610.098 514.906 604.926 523.949 605.73 533.174C606.042 536.728 607.339 540.406 610.141 542.6C613.108 544.911 617.198 545.136 620.831 544.352C633.077 541.683 651.439 522.764 639.676 509.776Z" fill="#FFCCD0"/>
<path d="M636.26 541.024C636.26 545.287 632.697 548.732 628.286 548.732C623.884 548.732 620.312 545.287 620.312 541.024C620.312 536.77 623.884 533.316 628.286 533.316C632.697 533.316 636.26 536.77 636.26 541.024Z" fill="#E2B459"/>
<path d="M615.149 563.471C614.111 578.01 611.983 592.466 608.801 606.705C608.195 609.4 607.46 612.261 605.402 614.171C603.534 615.898 600.896 616.565 598.353 617.049C586.444 619.343 573.6 619.159 562.755 613.904C558.699 611.936 554.556 609.124 551.866 605.546C550.88 604.236 550.448 603.077 549.315 601.826C548.234 600.641 546.4 600.524 546.045 598.664C545.907 597.905 546.132 597.129 546.357 596.387C548.874 587.828 550.681 578.252 551.97 569.402C551.987 569.285 551.996 569.16 552.022 569.043C552.212 567.709 552.368 566.366 552.506 565.023C553.25 557.649 553.172 550.191 552.255 542.826C552.126 541.658 551.961 540.499 551.771 539.339C550.24 529.755 561.717 537.971 565.151 540.115C570.34 543.368 575.676 546.413 581.125 549.224C592.031 554.879 603.43 559.651 615.149 563.471Z" fill="#F7ABB1"/>
<path d="M628.502 491.642C627.196 485.719 625.83 479.772 623.287 474.241C622.249 472.006 621.082 470.137 619.784 468.502C616.42 464.265 612.191 461.596 607.235 458.084C600.437 453.254 593.899 450.902 585.302 451.536C575.365 452.278 565.618 455.423 557.211 460.603C549.194 465.533 542.275 472.49 538.815 481.048C537.25 484.919 536.419 489.023 535.814 493.135C534.491 502.169 534.24 511.361 535.062 520.454C535.684 527.444 535.373 536.094 538.564 542.559C541.098 547.664 546.21 553.144 550.162 557.357C562.072 570.077 582.673 582.673 600.835 575.825C608.083 573.097 614.137 567.834 618.764 561.886C634.375 541.816 633.622 514.923 628.502 491.642Z" fill="#FFCCD0"/>
<path d="M553.008 508.225C554.167 509 555.559 509.484 556.926 509.701C559.719 510.143 562.478 509.86 565.254 510.377C568.152 510.927 571.023 511.57 573.886 512.279C575.122 512.579 576.342 512.888 577.561 513.188C575.607 509.643 571.914 505.455 568.152 503.862C564.683 502.394 559.892 503.161 556.398 503.971C554.469 504.413 552.541 504.855 550.612 505.305C551.07 506.531 551.935 507.499 553.008 508.225Z" fill="#231F20"/>
<path d="M559.442 512.112C559.243 507.324 563.948 505.539 566.085 510.252C568.722 516.091 559.771 519.536 559.442 512.112Z" fill="#231F20"/>
<path d="M621.973 509.91C620.77 510.619 619.343 511.019 617.968 511.153C615.157 511.42 612.416 510.969 609.614 511.328C606.682 511.695 603.776 512.162 600.87 512.696C599.624 512.921 598.388 513.155 597.142 513.38C599.322 509.96 603.283 506.014 607.14 504.646C610.703 503.387 615.434 504.446 618.868 505.464C620.762 506.023 622.656 506.582 624.55 507.14C624.022 508.342 623.088 509.259 621.973 509.91Z" fill="#231F20"/>
<path d="M605.575 512.379C606.552 507.691 611.56 507.032 612.468 512.112C613.592 518.385 604.052 519.661 605.575 512.379Z" fill="#231F20"/>
<path d="M627.292 635H516.873C517.608 633.765 518.335 632.523 519.07 631.28C519.831 630.003 520.592 628.735 521.362 627.468C521.362 627.459 521.362 627.459 521.362 627.459C526.058 619.71 531.057 612.102 536.904 605.671C539.671 602.626 542.629 599.849 545.838 597.446C545.933 597.371 546.028 597.305 546.123 597.238C546.244 597.146 546.365 597.054 546.487 596.971C546.954 596.62 547.429 596.287 547.905 595.97C552.342 592.975 557.246 590.69 562.763 589.372C564.554 588.946 566.405 588.621 568.333 588.412C571.516 588.054 574.785 588.237 578.054 588.846C587.957 590.706 597.886 596.529 605.73 603.494C605.791 603.552 605.86 603.611 605.921 603.661C606.941 604.57 607.918 605.504 608.861 606.447C609.259 606.847 609.657 607.256 610.046 607.673C611.291 608.983 612.459 610.326 613.54 611.66C619.188 618.667 623.573 626.683 627.292 635Z" fill="#E95254"/>
<path d="M633.086 482.266C633.181 483.125 633.043 483.843 632.619 484.351C631.633 485.536 629.921 485.845 628.355 486.003C626.245 486.22 624.126 486.32 621.999 486.303C611.395 486.228 600.861 483.267 591.728 478.087C583.849 473.624 573.652 466.1 570.962 457.342C568.255 448.474 588.286 447.49 594.331 448.441C604.122 449.984 613.436 455.156 620.001 462.321C622.301 464.841 632.515 476.652 633.086 482.266Z" fill="#F4EFF0"/>
<path d="M519.373 507.332C515.861 509.484 513.803 513.296 513.388 517.159C512.981 521.021 514.097 524.916 515.922 528.42C520.073 536.378 528.515 542.717 538.071 543.368C541.747 543.618 545.708 542.942 548.372 540.598C551.2 538.129 552.056 534.25 551.806 530.664C550.975 518.552 534.465 498.09 519.373 507.332Z" fill="#FFCCD0"/>
<path d="M581.358 543.034H581.367C583.633 542.925 585.086 544.344 586.842 545.486C586.989 545.578 587.153 545.678 587.326 545.687C587.654 545.712 587.905 545.445 588.13 545.211C589.488 543.818 591.789 543.017 593.778 543.334C596.044 543.701 600.576 547.663 600.974 549.891C601.492 552.844 597.315 555.671 595.092 556.914C592.256 558.482 588.926 559.425 585.657 559.508C580.528 559.642 576.057 555.888 573.064 552.276C569.7 548.214 573.964 546.971 577.034 545.086C578.323 544.302 579.784 543.109 581.358 543.034Z" fill="#F289A1"/>
<path d="M608.887 635H524.579C525.202 633.74 525.833 632.472 526.456 631.213C529.535 624.973 532.951 619.009 536.489 613.062C537.682 611.06 538.893 609.058 540.104 607.047C541.963 603.986 543.823 600.9 545.838 597.922C545.907 597.813 545.985 597.713 546.045 597.613C546.054 597.613 546.054 597.613 546.054 597.613C546.192 597.396 546.34 597.179 546.487 596.971C547.101 596.07 547.741 595.186 548.389 594.301C548.389 594.301 548.389 594.301 548.398 594.301C549.998 592.141 551.71 590.072 553.596 588.129C553.795 587.92 554.002 587.712 554.21 587.503C555.602 586.118 557.09 584.8 558.673 583.608C563.611 579.846 569.423 577.168 575.65 576.684C577.259 576.567 578.815 576.617 580.329 576.818C580.986 576.909 581.635 577.018 582.275 577.168C591.503 579.245 598.794 586.994 602.608 595.286C603.862 598.013 604.891 600.749 605.73 603.494C605.799 603.711 605.86 603.919 605.929 604.136C606.595 606.405 607.131 608.674 607.564 610.951C607.668 611.485 607.763 612.011 607.849 612.544C609.086 619.91 609.224 627.384 608.887 635Z" fill="#FFCCD0"/>
<path d="M587.058 510.502C586.53 514.489 586.046 519.069 588.986 522.355C589.67 523.123 590.5 523.757 591.244 524.474C591.546 524.766 591.858 525.075 592.126 525.408C592.567 525.976 592.662 526.034 592.247 526.635C590.742 528.787 588.208 529.905 586.85 532.115C586.539 532.616 586.193 534.601 587.161 534.701C589.488 534.951 592.083 532.015 593.216 530.272C594.582 528.178 594.971 525.383 593.778 523.123C592.714 521.113 590.431 520.187 589.107 518.393C587.507 516.233 587.611 513.238 587.75 510.711C587.784 510.035 587.179 509.626 587.058 510.502Z" fill="#231F20"/>
<path d="M579.611 481.065C585.406 487.004 593.76 490.808 602.193 490.357C598.301 490.566 592.394 480.414 590.69 477.786C587.568 472.982 584.766 467.835 580.623 463.748C577.501 460.661 571.654 455.948 570.746 462.98C569.925 469.245 575.451 476.794 579.611 481.065Z" fill="#F4EFF0"/>
<path d="M540.554 541.024C540.554 545.287 536.99 548.732 532.579 548.732C528.177 548.732 524.605 545.287 524.605 541.024C524.605 536.762 528.177 533.308 532.579 533.308C536.99 533.308 540.554 536.762 540.554 541.024Z" fill="#E2B459"/>
<path d="M570.331 491.409C571.62 491.7 572.891 492.051 574.137 492.451C576.973 493.36 582.863 494.62 579.646 498.357C577.83 500.451 573.151 499.934 570.729 499.575C566.5 498.949 562.815 497.423 558.846 496.13C556.813 495.471 549.237 492.993 547.602 493.994C554.4 489.849 562.686 489.648 570.331 491.409Z" fill="#231F20"/>
<path d="M606.716 492.71C605.402 492.885 604.104 493.127 602.824 493.41C599.918 494.053 593.933 494.778 596.779 498.782C598.379 501.035 603.084 500.943 605.531 500.809C609.804 500.567 613.618 499.375 617.691 498.449C619.776 497.982 627.568 496.196 629.099 497.339C622.725 492.601 614.491 491.65 606.716 492.71Z" fill="#231F20"/>
<path d="M574.387 466.784C572.294 472.106 568.878 477.386 567.252 479.655C560.74 488.739 551.589 496.105 541.012 500.342C536.489 502.161 540.164 513.255 540.164 517.142C540.164 518.961 539.844 521.188 538.097 521.88C536.964 522.331 535.624 521.897 534.724 521.104C533.825 520.312 533.271 519.219 532.77 518.143C529.276 510.619 525.055 500.726 526.171 492.401C527.07 485.711 530.512 479.614 534.37 474C539.057 467.168 544.61 460.662 551.909 456.499C557.323 453.413 565.064 451.069 571.36 452.72C577.475 454.33 576.835 460.578 574.387 466.784Z" fill="#F4EFF0"/>
<path d="M561.466 442.168C563.213 445.83 565.929 449.058 567.866 452.637C569.648 455.948 570.954 459.627 573.133 462.713C573.851 463.739 574.431 462.204 574.353 461.612C573.842 457.5 571.871 453.604 569.864 449.984C567.996 446.622 565.946 442.485 562.833 440.049C561.605 439.082 561.112 441.417 561.466 442.168Z" fill="#231F20"/>
<path d="M600.091 550.942C599.322 551.643 598.344 552.118 597.384 552.56C593.432 554.337 589.756 555.096 585.397 554.454C581.41 553.87 577.561 552.444 573.972 550.7C573.41 550.425 571.827 549.516 572.286 548.707C572.692 548.014 574.37 548.256 575.019 548.281C576.238 548.34 577.406 548.356 578.608 548.39C580.9 548.456 583.166 548.924 585.319 549.691C587.308 550.4 589.03 549.9 591.036 549.432C592.169 549.165 600.809 548.532 600.844 549.816C600.852 550.066 600.697 550.292 600.541 550.483C600.403 550.642 600.247 550.8 600.091 550.942Z" fill="#F0F3F7"/>
<path d="M744.992 612.253C740.244 597.396 735.47 582.49 728.611 568.426C721.753 554.362 712.689 541.082 700.486 530.956C697.277 528.295 693.869 525.868 690.626 523.248C682.254 516.508 674.963 508.517 669.082 499.642C666.245 495.362 661.982 491.425 659.949 486.737C669.203 497.848 682.885 504.43 695.011 512.563C711.893 523.882 726.38 538.855 735.504 556.648C744.629 574.449 749.221 592.817 744.992 612.253Z" fill="#F4EFF0"/>
<path d="M317.252 635H0C2.20542 629.461 5.26707 624.214 10.8974 622.446C13.5525 621.611 16.4066 621.678 19.131 621.103C27.8748 619.242 33.5484 611.351 40.4068 605.796C47.369 600.149 56.1821 596.687 65.2459 596.011C79.1531 594.977 94.8418 599.957 106.102 591.991C116.792 584.417 118.245 568.167 129.592 561.536C140.498 555.163 155.063 560.793 167.041 556.622C173.588 554.345 178.925 549.048 181.104 542.667C183.327 536.177 182.445 528.787 185.757 522.756C190.912 513.338 203.824 510.994 211.686 503.537C217.956 497.598 220.473 488.939 225.386 481.907C230.817 474.15 239.388 468.569 248.78 466.317C251.219 465.725 253.727 465.366 256.244 465.249C257.351 465.199 258.458 465.199 259.565 465.241C259.617 463.94 263.985 465.625 264.867 466.609C285.321 489.49 295.829 519.111 302.679 548.615C307.782 570.595 309.079 594.36 313.196 617.007C314.303 623.105 315.609 629.127 317.252 635Z" fill="#231F20"/>
<path d="M343.596 518.068C342.654 524.875 339.946 531.406 335.181 537.229C332.785 540.157 329.732 542.851 326.982 545.745C324.491 548.381 322.251 551.184 321.014 554.454C318.325 561.503 317.633 570.587 317.443 578.077C317.244 585.635 318.022 593.225 319.752 600.599C320.617 604.295 321.724 607.948 323.073 611.518C323.497 612.653 326.385 618.05 329.179 623.147C331.964 628.193 334.645 632.948 334.757 632.948C332.984 633.632 331.211 634.316 329.438 635H265.784C267.046 630.287 265.836 625.507 265.23 620.652C264.486 614.663 264.045 608.649 263.206 602.668C262.748 599.44 261.926 596.137 260.465 593.209C260.447 593.184 260.439 593.167 260.43 593.142C259.254 590.798 257.663 588.713 255.518 587.119C254.246 586.169 252.863 585.451 251.401 584.884C251.366 584.876 251.34 584.867 251.314 584.859C244.975 582.423 237.252 582.774 231.215 579.437C224.218 575.583 223.146 569.11 222.471 562.095C222.056 557.674 222.601 552.202 220.577 548.098C218.544 543.969 211.046 544.361 211.401 539.039C211.669 534.943 218.173 533.3 219.747 529.112C221.2 525.225 220.464 520.729 220.776 516.692C221.156 512.046 222.566 507.291 224.062 502.87C224.235 502.336 224.426 501.819 224.616 501.285C225.299 499.425 226.069 497.598 226.925 495.805C228.932 491.575 231.405 487.563 234.268 483.834C239.431 477.103 245.883 471.305 253.278 466.893C254.246 466.309 255.241 465.767 256.244 465.249C280.305 452.887 312.677 459.177 330.442 478.512C332.249 480.481 333.901 482.583 335.389 484.819C336.565 486.579 337.62 488.422 338.563 490.349C342.956 499.341 344.868 508.951 343.596 518.068Z" fill="#BF5E5E"/>
<path d="M233.507 521.738C233.507 525.017 232.382 527.678 230.999 527.678C229.615 527.678 228.49 525.017 228.49 521.738C228.49 518.46 229.615 515.808 230.999 515.808C232.382 515.808 233.507 518.46 233.507 521.738Z" fill="#232022"/>
<path d="M240.339 520.404C240.14 519.903 239.838 519.069 239.751 518.919C239.258 518.168 238.618 517.693 237.918 517.142C236.482 516.033 234.942 515.341 233.126 514.948C229.918 514.248 226.545 514.99 223.379 514.106C223.284 514.306 223.422 514.531 223.552 514.715C224.132 515.507 224.728 516.291 225.507 516.9C227.531 518.494 230.359 518.577 232.832 518.894C235.548 519.236 237.918 519.995 240.512 520.796C240.495 520.788 240.426 520.629 240.339 520.404Z" fill="#232022"/>
<path d="M228.75 549.724C229.494 549.465 230.324 549.39 231.12 549.324C235.375 548.973 239.881 548.189 244.127 548.331C244.819 548.356 243.254 554.57 243.046 555.096C242.207 557.19 240.893 559.225 239.025 560.61C235.098 563.496 228.093 563.004 228.439 557.098C228.456 556.697 228.508 556.289 228.343 555.922C228.179 555.588 227.85 555.355 227.574 555.096C225.567 553.252 226.224 550.575 228.75 549.724Z" fill="#9E4246"/>
<path d="M247.154 514.89C247.63 515.131 248.331 515.332 248.625 514.898C250.96 511.428 244.335 507.023 241.887 505.664C238.428 503.745 234.346 503.095 230.54 503.22C229.407 503.253 228.222 503.362 227.254 503.92C226.285 504.479 225.585 505.63 225.905 506.681C226.302 507.966 227.876 508.45 229.226 508.75C235.842 510.202 241.17 511.786 247.154 514.89Z" fill="#232022"/>
<path d="M228.698 557.098C234.657 556.213 243.02 554.195 245.658 548.206C245.797 547.897 245.624 546.913 245.087 547.171C243.833 547.763 242.77 548.764 241.645 549.557C240.331 550.483 238.895 551.242 237.416 551.901C234.51 553.194 231.44 554.153 228.499 555.371C227.911 555.613 227.937 557.206 228.698 557.098Z" fill="#1E1A1C"/>
<path d="M364.881 631.246C364.786 632.789 364.371 634.015 363.722 635H281.836C281.542 630.103 283.194 624.94 282.121 620.068C280.902 614.546 276.396 610.275 274.112 605.078C270.195 596.161 273.239 585.968 272.988 576.283C272.521 558.366 260.768 546.062 257.196 529.888C256.236 525.558 257.196 521.054 256.927 516.633C256.556 510.16 253.442 503.879 248.46 499.533C243.358 495.087 234.121 490.491 234.268 483.834C234.302 482.149 234.934 480.331 236.387 478.345C239.76 473.757 244.006 469.703 248.78 466.317C255.293 461.704 262.783 458.334 270.324 456.54C288.089 452.328 314.614 459.176 330.424 472.431C333.287 474.842 335.804 477.453 337.854 480.255C339.038 481.874 340.059 483.559 340.907 485.294C343.691 490.999 345.369 496.521 349.071 501.827C352.703 507.024 357.149 512.162 357.72 518.677C358.766 530.58 346.26 540.582 347.09 552.502C347.281 555.338 348.206 557.949 349.529 560.426C350.126 561.552 350.809 562.637 351.536 563.721C356.215 570.628 363.021 576.901 364.163 585.034C365.538 594.743 358.342 604.228 359.977 613.895C360.799 618.784 363.817 623.13 364.656 628.009C364.872 629.219 364.941 630.295 364.881 631.246Z" fill="#231F20"/>
<path d="M228.317 499.508C227.807 500.751 226.311 501.41 224.616 501.285C225.299 499.425 226.069 497.598 226.925 495.804C228.214 496.839 228.819 498.29 228.317 499.508Z" fill="#E23C46"/>
</svg>
