<svg width="62" height="73" viewBox="0 0 62 73" fill="none" xmlns="http://www.w3.org/2000/svg">
<path d="M37.3894 58.6643C37.3246 57.1939 37.7957 26.7134 37.7957 26.7134C37.7957 26.7134 40.5827 24.7048 40.9711 21.6456C42.2442 16.1869 41.8989 11.6893 41.8989 11.0775C41.8989 10.4656 40.5827 8.93757 40.385 8.6781C40.1908 8.41541 38.9213 7.75871 38.1374 7.67222C37.357 7.58573 37.0621 8.02139 37.0621 8.02139C37.0621 8.02139 36.7708 6.27553 36.6234 6.01285C36.4759 5.75017 35.1561 4.96533 34.0341 4.87884C32.9085 4.78914 32.272 5.79501 32.272 5.48749C32.272 5.18316 32.1282 3.61028 32.0275 3.12977C31.9304 2.64925 30.5135 2.21359 29.4382 2.1271C28.363 2.0374 27.6797 3.21626 27.6797 3.21626C27.6797 3.21626 27.5826 1.55689 27.4352 1.03473C27.2877 0.509366 25.335 0.160193 24.5511 0.205042C23.7707 0.249889 22.9903 1.86441 22.9903 1.86441C22.9903 1.86441 18.9806 2.64925 17.6141 2.91193C16.2439 3.17461 15.6578 9.46293 15.6578 9.46293C15.6578 9.46293 15.3916 11.7342 16.341 14.0054C18.8835 19.4192 22.9903 23.526 22.9903 23.526C22.9903 23.526 23.9649 26.7582 23.7707 29.0262C23.5729 31.2975 20.901 57.793 20.901 57.793C20.901 57.793 29.4382 61.0541 37.3894 58.6643Z" fill="#D89B86"/>
<path d="M22.9831 1.84828C23.4074 1.74257 23.8426 1.66248 24.2777 1.59521C24.4971 1.56638 24.7165 1.54395 24.9394 1.52794C25.1624 1.51512 25.3853 1.50872 25.6191 1.53434C25.7342 1.54716 25.8528 1.56958 25.9751 1.62404C26.0326 1.64967 26.0938 1.69131 26.1441 1.74897L26.1765 1.80023L26.1837 1.80984L26.1873 1.81624V1.81945C26.1837 1.81304 26.1945 1.83546 26.1945 1.83226L26.1981 1.85148L26.2196 1.92196C26.2376 1.9636 26.2448 2.02447 26.2556 2.07892C26.2628 2.13338 26.2736 2.18784 26.2736 2.2391C26.2772 2.34161 26.2808 2.44732 26.27 2.54662C26.2664 2.59788 26.2664 2.64913 26.2592 2.70039L26.2089 3.00151L26.1693 3.14887C26.1226 3.35068 26.0398 3.53969 25.9607 3.72869L25.8169 4.00739C25.7665 4.09708 25.7018 4.18037 25.6479 4.27007C25.5903 4.35656 25.5292 4.44305 25.4573 4.51993L25.2487 4.76019C25.1732 4.83707 25.0905 4.90755 25.0113 4.97802C24.9322 5.0485 24.8567 5.12538 24.7632 5.18624C24.587 5.30797 24.4216 5.44572 24.2274 5.54503C24.0368 5.65074 23.8534 5.76606 23.6484 5.84615C23.447 5.92944 23.2528 6.02554 23.0406 6.08961L22.7314 6.19212L22.5731 6.24658C22.5228 6.2626 22.4689 6.2722 22.4149 6.28822L21.7784 6.4516L21.8143 6.42277L21.7496 6.59255C21.728 6.65021 21.7029 6.70467 21.6921 6.76233L21.6525 6.93852C21.6345 6.99618 21.6381 7.05704 21.6273 7.11471C21.6238 7.17237 21.613 7.23323 21.6202 7.29089L21.6273 7.47029C21.6309 7.52795 21.6453 7.58561 21.6525 7.64647C21.6597 7.70413 21.6813 7.7618 21.6993 7.81626C21.7137 7.87392 21.7316 7.93158 21.7568 7.98604C21.782 8.04049 21.8 8.09816 21.8323 8.14941C21.8863 8.25833 21.9474 8.36084 22.0193 8.46335C22.0913 8.56265 22.1668 8.65875 22.2531 8.74845C22.2926 8.7901 22.3394 8.83494 22.3825 8.87659C22.4293 8.91823 22.476 8.95988 22.5228 8.99511L22.5084 8.9855C22.7422 9.10723 22.9615 9.23857 23.1737 9.37953C23.3895 9.52048 23.598 9.66783 23.7994 9.8216C24.0044 9.97216 24.195 10.1355 24.3856 10.3021L24.6661 10.5584C24.7596 10.6417 24.8459 10.7346 24.9322 10.8211C25.1156 10.9941 25.2739 11.1863 25.4429 11.3689C25.6011 11.5611 25.7629 11.7501 25.9068 11.9519C26.047 12.1569 26.1945 12.3523 26.3167 12.5669L26.5037 12.8841C26.5613 12.9898 26.6116 13.1019 26.6656 13.2108C26.7195 13.3197 26.7771 13.4287 26.8238 13.5376L26.9569 13.8771C27 13.9893 27.0504 14.0982 27.0863 14.2167L27.1906 14.5563L27.6186 15.9081C27.6905 16.1355 27.7552 16.363 27.8092 16.5936L27.9818 17.2824C28.0429 17.513 28.0932 17.7437 28.1292 17.9743C28.1688 18.2082 28.2191 18.4388 28.2335 18.6759L28.2011 18.6791C28.158 18.4484 28.0861 18.221 28.0249 17.9935C27.9926 17.8814 27.9674 17.7661 27.9278 17.654L27.8199 17.3176L27.6006 16.6449C27.5646 16.5328 27.5322 16.4206 27.4927 16.3085L27.3668 15.9754L26.8849 14.6363L26.7663 14.3032C26.7267 14.1943 26.6764 14.0886 26.6332 13.9796L26.5001 13.6561C26.4498 13.5472 26.3923 13.4447 26.3383 13.3422C26.2844 13.2364 26.234 13.1307 26.1765 13.0282L25.9931 12.7239C25.8816 12.5157 25.7378 12.3267 25.6011 12.1281C25.468 11.9327 25.3134 11.7469 25.166 11.5579C25.0077 11.3753 24.8567 11.1863 24.6841 11.0133C24.5978 10.9268 24.5187 10.8371 24.4288 10.7538L24.1626 10.5007C24.0763 10.4142 23.9792 10.3373 23.8893 10.2541C23.7994 10.174 23.7023 10.0939 23.6052 10.017C23.4182 9.86004 23.2204 9.70948 23.0155 9.56532C22.8141 9.42117 22.6055 9.27702 22.3933 9.15529L22.3825 9.14568H22.3789C22.3214 9.09762 22.2783 9.05278 22.2279 9.00472C22.1848 8.95667 22.138 8.90862 22.0984 8.85737C22.0121 8.75806 21.9366 8.65235 21.8647 8.54343C21.8 8.43451 21.7388 8.3224 21.6849 8.20387C21.6561 8.14941 21.6417 8.08855 21.6166 8.02768C21.595 7.97002 21.5806 7.90915 21.5662 7.84829C21.5482 7.78742 21.5338 7.72656 21.5267 7.66249C21.5195 7.60163 21.5087 7.54076 21.5015 7.47669L21.4979 7.29089C21.4943 7.23003 21.5087 7.16596 21.5123 7.10509C21.5231 7.04423 21.5231 6.98016 21.541 6.9193L21.5878 6.7399C21.5986 6.67904 21.6273 6.62138 21.6489 6.56372L21.7208 6.38753L21.728 6.36831L21.7532 6.3619L22.3825 6.19212C22.4329 6.17931 22.4868 6.16649 22.5372 6.15048L22.9903 5.97749C23.1917 5.91022 23.3751 5.80451 23.5657 5.71161C23.7599 5.62191 23.9289 5.50338 24.1051 5.39126C24.2885 5.28555 24.436 5.1446 24.5978 5.01967C24.6805 4.9588 24.7452 4.88192 24.8171 4.81144C24.8891 4.74097 24.961 4.67049 25.0293 4.60002C25.148 4.44305 25.2882 4.2989 25.3889 4.12912C25.4393 4.04583 25.5004 3.96894 25.5436 3.88245L25.6766 3.62297C25.7557 3.44999 25.8313 3.2706 25.878 3.088L25.9176 2.95026L25.9463 2.8093L25.9715 2.67156L25.9859 2.53061C25.9967 2.4345 26.0003 2.34161 25.9967 2.24871C26.0003 2.20065 25.9931 2.15901 25.9895 2.11737C25.9823 2.07572 25.9859 2.03728 25.9679 1.98603L25.9463 1.91555L25.9427 1.89633C25.9391 1.89313 25.9499 1.91555 25.9463 1.90594V1.90274H25.9427L25.9391 1.89953C25.9391 1.89313 25.9356 1.88992 25.932 1.88352C25.914 1.86109 25.8888 1.84187 25.8528 1.82265C25.7809 1.78421 25.6802 1.75858 25.5831 1.73936C25.3781 1.70733 25.1624 1.70092 24.9466 1.70412C24.7308 1.70733 24.5115 1.72014 24.2957 1.73616C23.8606 1.76499 23.4254 1.82265 22.9939 1.87711L22.9831 1.84828Z" fill="#1B3A5D"/>
<path d="M27.6976 3.21939C27.6976 3.21939 27.6976 3.35393 27.6796 3.58458C27.6617 3.81523 27.6257 4.14198 27.561 4.53279C27.525 4.7282 27.489 4.93963 27.4315 5.16066C27.3812 5.3785 27.302 5.60914 27.2265 5.8462C27.1474 6.08325 27.0755 6.32991 27.0215 6.58298C26.9604 6.83605 26.928 7.09874 26.8849 7.35821C26.8417 7.62089 26.8058 7.88357 26.7518 8.13664C26.6907 8.39292 26.6332 8.64279 26.572 8.88304C26.5504 9.00477 26.5037 9.1265 26.4641 9.24183C26.4246 9.36035 26.3814 9.47247 26.3383 9.58139C26.234 9.79922 26.1369 9.98182 26.0182 10.1612C25.9067 10.3406 25.7881 10.4912 25.6802 10.6225C25.5723 10.7538 25.4716 10.8628 25.3781 10.9492C25.2882 11.0325 25.2163 11.0966 25.1623 11.1383C25.1084 11.1799 25.0796 11.2023 25.0796 11.2023L25.0544 11.1799C25.0544 11.1799 25.076 11.1511 25.112 11.0998C25.1515 11.0486 25.2055 10.9749 25.2702 10.8756C25.3026 10.8275 25.3385 10.7699 25.3745 10.7122C25.4105 10.6513 25.45 10.5873 25.4932 10.5168C25.5687 10.3758 25.6622 10.2189 25.7449 10.0427C25.8348 9.8761 25.9211 9.66147 26.0074 9.46606C26.0722 9.25144 26.1621 9.04001 26.234 8.80296C26.3059 8.56911 26.3814 8.32565 26.4569 8.07898C26.5289 7.82591 26.6152 7.57605 26.7015 7.32618C26.7842 7.07311 26.8633 6.82004 26.9209 6.56697C26.9784 6.3139 27.0215 6.06083 27.0467 5.81416C27.0755 5.5707 27.0971 5.33045 27.1402 5.10941C27.1798 4.88837 27.2301 4.67695 27.2733 4.48474C27.3704 4.10033 27.4639 3.78319 27.5358 3.56216C27.6113 3.34112 27.6617 3.21619 27.6617 3.21619L27.6976 3.21939Z" fill="#1B3A5D"/>
<path d="M32.29 5.49066C32.29 5.49066 32.2864 5.53871 32.2792 5.62841C32.2648 5.7181 32.2504 5.84944 32.2288 6.01602C32.1857 6.34918 32.103 6.82008 31.9807 7.38388C31.9124 7.66258 31.8476 7.97011 31.7505 8.28725C31.6534 8.60439 31.5384 8.93434 31.4053 9.2739C31.283 9.61667 31.1212 9.96584 30.9917 10.3182C30.8479 10.6738 30.7652 11.0454 30.6825 11.417C30.607 11.7918 30.5314 12.1666 30.4595 12.535C30.384 12.9034 30.3085 13.2686 30.233 13.6177C30.2006 13.7939 30.1502 13.9701 30.1071 14.1399C30.0927 14.22 30.0495 14.3225 30.0172 14.409C29.9812 14.5019 29.9525 14.5467 29.9237 14.6268C29.8086 14.9344 29.6863 15.2387 29.5281 15.5014C29.3699 15.764 29.1757 15.9947 28.9419 16.1388C28.7082 16.2862 28.4564 16.3407 28.2587 16.3342C28.0573 16.331 27.9134 16.2862 27.8163 16.2574C27.7228 16.2221 27.6725 16.2029 27.6725 16.2029L27.6869 16.1741C27.6869 16.1741 27.7372 16.1837 27.8343 16.2029C27.9314 16.2125 28.0753 16.2349 28.2515 16.2125C28.3378 16.2029 28.4313 16.1805 28.5284 16.1452C28.6219 16.1068 28.7154 16.0555 28.8053 15.9851C28.9815 15.8409 29.1325 15.6327 29.2584 15.3828C29.3843 15.133 29.4778 14.8447 29.5856 14.5275C29.6 14.4859 29.6108 14.4506 29.6324 14.4026C29.6432 14.3738 29.654 14.3545 29.6612 14.3353C29.6755 14.3065 29.6755 14.3001 29.6827 14.2776C29.7043 14.204 29.7367 14.1495 29.7547 14.0598C29.7978 13.8932 29.8446 13.7267 29.8877 13.5537C29.9776 13.2045 30.0711 12.8457 30.1646 12.4805C30.2114 12.2947 30.2653 12.1121 30.3193 11.9295C30.3804 11.7437 30.4379 11.5611 30.4991 11.3753C30.6249 11.0102 30.7544 10.6418 30.8946 10.2894C31.0277 9.9274 31.1536 9.58463 31.2291 9.22905C31.319 8.88308 31.3765 8.54352 31.4592 8.22318C31.5384 7.90604 31.6211 7.60492 31.6966 7.32622C31.8476 6.77203 31.9843 6.31074 32.0886 5.99039C32.1929 5.67005 32.2576 5.48425 32.2576 5.48425L32.29 5.49066Z" fill="#1B3A5D"/>
<path d="M29.4598 15.3476C29.3555 15.6712 29.2584 15.9947 29.1865 16.3247C29.1145 16.6514 29.057 16.9846 29.0318 17.3146C29.0067 17.6413 29.0103 17.9745 29.0894 18.2852C29.1289 18.439 29.1829 18.5895 29.2656 18.7209C29.3519 18.8522 29.4598 18.9675 29.5928 19.0604C29.7187 19.1501 29.8877 19.2142 30.0388 19.2558L30.3121 19.3135L30.384 19.3263L30.4451 19.3327L30.5746 19.3423L30.7076 19.3519C30.7508 19.3519 30.7976 19.3487 30.8407 19.3455C30.9306 19.3391 31.0205 19.3455 31.1104 19.3231C31.1967 19.3039 31.2866 19.2943 31.3729 19.2686L31.6319 19.1886L31.88 19.0796C31.9591 19.038 32.0346 18.9899 32.1137 18.9451C32.1893 18.897 32.2576 18.8426 32.3331 18.7945C32.405 18.7401 32.4698 18.6792 32.5381 18.6248C32.6028 18.5639 32.664 18.503 32.7287 18.4422C32.7862 18.3749 32.8474 18.3108 32.9013 18.2435C33.0128 18.1122 33.1171 17.968 33.1998 17.8239L33.1962 17.8303C33.5091 17.0102 33.786 16.1773 34.0916 15.3541L34.5483 14.1207L34.7749 13.5057L34.9907 12.8906L35.0842 12.5895C35.1165 12.4838 35.1453 12.3813 35.1849 12.2756L35.4258 11.6445C35.5912 11.2345 35.7639 10.8276 35.9365 10.424C36.1091 10.0172 36.2961 9.61673 36.4795 9.2163C36.6593 8.81267 36.8499 8.41544 37.0477 8.01501L37.08 8.02783C36.9398 8.44427 36.7995 8.85752 36.6521 9.27076L36.4327 9.89222L36.2098 10.5105L35.7531 11.7438L35.5373 12.346L35.3395 12.9835C35.2676 13.1949 35.1885 13.3968 35.1093 13.605L34.8648 14.22C34.6994 14.6269 34.534 15.0337 34.3613 15.4405C34.0233 16.2542 33.6493 17.0551 33.3041 17.8655V17.8719C33.207 18.0225 33.1027 18.1635 32.984 18.3012C32.8689 18.4357 32.7467 18.5671 32.6136 18.692C32.4806 18.8138 32.3403 18.9291 32.1893 19.038C32.1102 19.086 32.031 19.1373 31.9519 19.1886L31.7038 19.3199L31.4341 19.4256C31.3442 19.4576 31.2471 19.4801 31.1536 19.5057C31.0565 19.5345 30.9594 19.5345 30.8587 19.5505C30.8119 19.5569 30.7616 19.5634 30.7112 19.5666H30.5602C30.348 19.573 30.1646 19.5377 29.9812 19.5089C29.9129 19.4993 29.8769 19.4801 29.8266 19.4673C29.7762 19.4544 29.7259 19.4416 29.6791 19.4192C29.6324 19.3968 29.5856 19.3776 29.5389 19.3551L29.4094 19.275C29.2404 19.1629 29.1002 19.0156 28.9995 18.8522C28.8988 18.6888 28.8448 18.5126 28.8017 18.3364C28.7585 18.1635 28.7477 17.9873 28.7477 17.8111C28.7441 17.6349 28.7585 17.4651 28.7837 17.2921C28.8305 16.9494 28.9168 16.6162 29.0246 16.2895C29.0786 16.1261 29.1433 15.9659 29.208 15.8057C29.2764 15.6456 29.3483 15.4886 29.431 15.3348L29.4598 15.3476Z" fill="#1B3A5D"/>
<path d="M40.306 11.1927C40.306 11.1927 40.3096 11.3945 40.2808 11.7468C40.2664 11.923 40.2448 12.1345 40.2017 12.3779C40.1585 12.6246 40.101 12.8969 39.9895 13.198C39.9607 13.2717 39.9284 13.3454 39.8816 13.4254C39.8313 13.5055 39.7881 13.5664 39.7378 13.6369C39.6443 13.7746 39.5472 13.9156 39.4501 14.0629C39.2487 14.3544 39.0186 14.6556 38.7956 14.9727C38.5654 15.2866 38.3425 15.6198 38.1339 15.9658C38.0296 16.1419 37.9325 16.3181 37.839 16.4975C37.7923 16.5904 37.7491 16.6801 37.7095 16.7698C37.6988 16.7954 37.6988 16.8147 37.6916 16.8339C37.688 16.8467 37.6844 16.8467 37.6808 16.8691C37.6772 16.8819 37.6772 16.8915 37.67 16.9076C37.6556 16.9652 37.6376 17.0101 37.6196 17.0581C37.4758 17.4457 37.3032 17.8205 37.0946 18.1761C36.886 18.5285 36.6523 18.8681 36.3826 19.1756C36.2459 19.3261 36.0949 19.4703 35.9259 19.592C35.7604 19.717 35.5662 19.8227 35.3433 19.8739C35.2893 19.8899 35.2318 19.8932 35.1743 19.9028C35.1167 19.9028 35.0592 19.906 35.0016 19.8996C34.9441 19.8899 34.8866 19.8867 34.8326 19.8707C34.7895 19.8579 34.7427 19.8451 34.6996 19.8323C34.6169 19.8131 34.5198 19.7682 34.4334 19.7362C34.3471 19.6977 34.2716 19.6561 34.1925 19.6145C33.8904 19.4383 33.6639 19.2236 33.5092 19.0058C33.351 18.7944 33.2539 18.5862 33.2108 18.4068C33.1676 18.2274 33.164 18.0832 33.1892 17.9871C33.2072 17.8878 33.2395 17.843 33.2359 17.843L33.2683 17.8526C33.2719 17.8526 33.2503 17.9006 33.2539 17.9903C33.2467 18.08 33.2719 18.2146 33.3438 18.3715C33.4121 18.5285 33.52 18.7111 33.6854 18.8905C33.8545 19.0667 34.0738 19.2461 34.3471 19.3838C34.4191 19.4126 34.491 19.4479 34.5629 19.4735C34.5989 19.4863 34.6384 19.4991 34.6744 19.5119C34.7104 19.5248 34.7499 19.5376 34.7967 19.544C34.8398 19.5568 34.883 19.5664 34.9261 19.576C34.9585 19.5888 34.998 19.5856 35.0304 19.592C35.0664 19.5952 35.1023 19.5888 35.1383 19.5888C35.1779 19.5824 35.2138 19.5792 35.2534 19.5696C35.5554 19.4831 35.8503 19.2429 36.1093 18.9706C36.3754 18.6983 36.6091 18.3779 36.8285 18.0448C37.0479 17.7084 37.2636 17.3592 37.447 17.0005C37.465 16.9556 37.4902 16.9076 37.5046 16.8691C37.5082 16.8595 37.5118 16.8467 37.5154 16.8339L37.5297 16.7986C37.5405 16.7698 37.5549 16.7378 37.5657 16.7186C37.616 16.6257 37.67 16.536 37.7239 16.4495C37.8318 16.2733 37.9361 16.0971 38.044 15.9241C38.2526 15.5781 38.4504 15.2322 38.6374 14.8926C38.8244 14.5563 39.0006 14.2263 39.1912 13.9252C39.2883 13.7746 39.3818 13.6305 39.4825 13.4895C39.5903 13.3486 39.6587 13.2428 39.7198 13.1051C39.8385 12.8392 39.9104 12.5733 39.9787 12.3395C40.0435 12.1056 40.0938 11.8974 40.1406 11.7276C40.2233 11.3849 40.27 11.1895 40.27 11.1895L40.306 11.1927Z" fill="#1B3A5D"/>
<path d="M37.6018 58.6643C37.4831 55.6948 37.6414 52.6964 37.6773 49.7268C37.7421 44.707 37.814 39.6905 37.8895 34.6707C37.9183 32.7711 37.947 30.8746 37.9758 28.9782C37.983 28.424 37.9902 27.8666 38.001 27.3124C38.001 27.1683 38.0046 27.0241 38.0082 26.88C38.0082 26.6653 38.0621 26.7646 37.9542 26.8447C38.7957 26.2265 39.4898 25.4128 40.0508 24.5863C41.2052 22.8821 41.4281 20.7678 41.723 18.833C42.0035 17.0038 42.1366 15.1618 42.1545 13.3167C42.1617 12.5062 42.3092 11.4619 42.0179 10.6771C41.6978 9.82174 40.9067 8.70695 40.0544 8.188C39.2776 7.71069 37.591 6.9739 36.879 7.92532C37.0084 7.94133 37.1379 7.95735 37.2674 7.97016C37.1055 7.00914 37.1343 6.01287 36.1885 5.42344C35.4585 4.97176 34.4767 4.60657 33.5813 4.70908C33.2828 4.74432 33.0131 4.87245 32.7614 5.0134C32.6571 5.07106 32.5564 5.14795 32.4629 5.21522C32.1356 5.44266 32.4881 5.45227 32.4809 5.32093C32.4485 4.64821 32.3802 3.97229 32.2723 3.30598C32.186 2.74538 31.7329 2.48911 31.1575 2.2969C29.6974 1.80998 28.3129 1.76834 27.4966 3.12018C27.6296 3.15222 27.7627 3.18745 27.8922 3.21628C27.8454 2.43144 28.0288 1.04757 27.2089 0.547832C26.2559 -0.031988 24.4794 -0.307481 23.6487 0.519001C23.2927 0.874582 23.0302 1.31986 22.8108 1.75232C22.8791 1.62418 22.8935 1.68825 22.6454 1.7363C22.3433 1.79717 22.0376 1.85483 21.7355 1.91569C20.333 2.18799 18.873 2.38339 17.4921 2.74538C16.7117 2.9504 16.4384 4.19012 16.2658 4.76674C15.9277 5.90396 15.7479 7.07961 15.5897 8.24566C15.5106 8.82227 15.4315 9.40209 15.4135 9.98512C15.3452 11.9776 15.9457 13.7844 16.8987 15.5655C18.3911 18.3589 20.3366 21.0049 22.5662 23.3786C22.6418 23.4555 22.7173 23.5356 22.7928 23.6125C22.8971 23.7182 22.7604 23.4972 22.8072 23.6509C22.9726 24.2211 23.1057 24.7977 23.2279 25.3776C23.5012 26.6878 23.6523 28.014 23.53 29.3466C23.174 33.1619 22.7784 36.974 22.3972 40.7892C21.829 46.4561 21.2608 52.1229 20.6891 57.793C20.6855 57.8507 20.7322 57.9339 20.7933 57.9564C25.8891 59.8912 32.1716 60.3878 37.4436 58.8501C37.7061 58.7732 37.5946 58.4049 37.3321 58.4817C32.9879 59.7471 28.3129 59.5068 23.94 58.4817C22.9618 58.2511 21.9909 57.9788 21.0523 57.6424C20.8796 57.5816 21.1026 57.9179 21.1242 57.7001C21.1386 57.5559 21.1566 57.4086 21.1709 57.2612C21.5593 53.4011 21.9477 49.541 22.3361 45.6777C22.8072 40.9814 23.2783 36.282 23.7386 31.5826C23.8968 29.9809 24.0946 28.424 23.8968 26.8159C23.8069 26.0567 23.6523 25.3007 23.4797 24.5543C23.4006 24.2211 23.3718 23.7278 23.174 23.4299C22.7856 22.8405 22.1347 22.3087 21.6744 21.7641C20.4985 20.3802 19.4304 18.9227 18.4666 17.4139C17.154 15.3669 16.0284 13.2718 15.8558 10.8821C15.7263 9.0369 16.1147 7.07961 16.5607 5.29531C16.6937 4.75713 16.8555 4.21575 17.1073 3.70961C17.3626 3.20347 17.6179 3.10737 18.1969 2.99525C19.6498 2.71335 21.099 2.42824 22.5519 2.14634C22.7029 2.11431 23.1021 2.1079 23.1812 1.94452C23.4437 1.40955 23.8393 0.640731 24.4794 0.410085C25.1231 0.173031 26.4285 0.599088 26.9967 0.877785C27.5433 1.14687 27.4175 2.47629 27.4498 2.97923C27.457 3.05932 27.4606 3.1394 27.4678 3.21628C27.4786 3.39888 27.7591 3.48857 27.8634 3.31559C28.1331 2.87031 28.5431 2.49231 29.0861 2.33534C29.6831 2.16876 31.5854 2.5756 31.8228 3.18105C32.0242 3.68398 31.9774 4.37272 32.0242 4.90449C32.0385 5.09029 31.9522 5.60924 32.204 5.71175C32.4701 5.81746 32.7973 5.45548 32.9771 5.34336C33.8654 4.77635 34.955 5.21842 35.7893 5.64768C36.4223 5.97443 36.5014 6.25313 36.6308 6.85217C36.7171 7.259 36.7891 7.66584 36.8574 8.07267C36.8862 8.24886 37.1559 8.23925 37.2458 8.11752C37.7888 7.39675 39.274 8.20081 39.8386 8.51475C40.4356 8.8479 40.8347 9.55906 41.198 10.078C41.8309 10.991 41.7266 11.9424 41.7302 12.9835C41.7374 14.8319 41.5971 16.6771 41.3454 18.5094C41.0505 20.6333 40.7628 22.8821 39.4538 24.7177C39.0726 25.2558 38.6087 25.746 38.1089 26.1976C37.9794 26.313 37.5874 26.5212 37.5838 26.7134C37.5802 26.912 37.5766 27.1138 37.573 27.3124C37.5515 28.7091 37.5299 30.1026 37.5083 31.4993C37.3788 40.2414 37.199 48.9836 37.1703 57.7289C37.1667 58.0397 37.1631 58.3536 37.1739 58.6643C37.1846 58.911 37.6126 58.911 37.6018 58.6643Z" fill="#1B3A5D"/>
<path d="M20.5305 2.17183C20.5305 2.17183 20.8614 2.75805 22.4509 2.69399C24.0404 2.62992 26.0686 2.34481 26.0686 1.68811C25.9212 0.618169 20.5305 2.17183 20.5305 2.17183Z" fill="#FFBFFC"/>
<path d="M27.9241 12.1475C26.6403 11.9777 26.59 13.4417 26.59 13.4417C26.59 13.4417 27.5825 15.7738 27.6077 16.2767C28.6829 16.7989 28.8807 15.3157 28.8807 15.3157C28.8807 15.3157 30.0495 12.4326 27.9241 12.1475Z" fill="#FFE7FF"/>
<path d="M29.9779 20.2265C29.9779 20.2265 28.9027 20.076 29.0753 18.6761C29.2443 17.2794 30.4418 15.8827 31.5638 16.5362C32.6894 17.1929 32.1536 18.0738 32.0529 18.2981C31.9558 18.5255 31.0999 20.4668 29.9779 20.2265Z" fill="#FFE7FF"/>
<path d="M34.1311 20.2488C34.1311 20.2488 33.3759 19.9125 33.5953 18.9451C33.8146 17.9776 34.2785 16.9974 35.3286 17.2793C36.3787 17.5644 35.9148 18.676 35.9148 18.676C35.9148 18.676 35.3754 20.4218 34.1311 20.2488Z" fill="#FFE7FF"/>
<path d="M4.99503 71.9072C5.05976 70.4369 4.58866 39.9563 4.58866 39.9563C4.58866 39.9563 1.80523 37.9477 1.41325 34.8885C0.140207 29.4298 0.485439 24.9322 0.485439 24.3204C0.485439 23.7117 1.80523 22.1805 1.99942 21.9178C2.19361 21.6583 3.46666 21.0016 4.24702 20.9151C5.02739 20.8286 5.32228 21.2643 5.32228 21.2643C5.32228 21.2643 5.61356 19.5184 5.76101 19.2558C5.90845 18.9931 7.22824 18.2082 8.35024 18.1186C9.47584 18.0321 10.1124 19.0379 10.1124 18.7304C10.1124 18.4261 10.2562 16.8532 10.3569 16.3727C10.454 15.8922 11.8709 15.4565 12.9461 15.37C14.0214 15.2803 14.7047 16.4592 14.7047 16.4592C14.7047 16.4592 14.8018 14.7998 14.9492 14.2776C15.0966 13.7523 17.0494 13.4031 17.8333 13.448C18.6137 13.4896 19.3977 15.1073 19.3977 15.1073C19.3977 15.1073 23.4038 15.8922 24.7739 16.1549C26.1405 16.4175 26.7266 22.7059 26.7266 22.7059C26.7266 22.7059 26.9963 24.9771 26.0434 27.2483C23.5009 32.6621 19.3977 36.7689 19.3977 36.7689C19.3977 36.7689 18.4195 39.9979 18.6137 42.2692C18.8115 44.5404 21.4834 71.0359 21.4834 71.0359C21.4834 71.0359 12.9461 74.297 4.99503 71.9072Z" fill="#F7B5A2"/>
<path d="M19.2214 15.1202C18.7862 15.0625 18.3547 15.008 17.9195 14.9792C17.7002 14.9632 17.4844 14.9504 17.2686 14.9472C17.0529 14.944 16.8371 14.9504 16.6321 14.9856C16.5314 15.0016 16.4343 15.0273 16.3624 15.0657C16.3228 15.0849 16.3013 15.1041 16.2833 15.1266C16.2797 15.1298 16.2761 15.1362 16.2725 15.1426V15.1458H16.2689V15.149C16.2653 15.1586 16.2725 15.1362 16.2725 15.1394L16.2653 15.1586L16.2473 15.2291C16.2293 15.2771 16.2329 15.3188 16.2258 15.3604C16.2186 15.4021 16.215 15.4437 16.2186 15.4917C16.215 15.5846 16.215 15.6807 16.2293 15.7736L16.2437 15.9146L16.2689 16.0523L16.2941 16.1933L16.3336 16.331C16.3804 16.5136 16.4595 16.693 16.535 16.866L16.6681 17.1255C16.7148 17.212 16.776 17.2889 16.8263 17.3722C16.9234 17.5419 17.0637 17.6861 17.1859 17.8431C17.2543 17.9135 17.3262 17.984 17.3945 18.0577C17.47 18.125 17.5348 18.2018 17.6175 18.2627C17.7793 18.3876 17.9267 18.5318 18.1101 18.6343C18.2828 18.7464 18.4554 18.865 18.6496 18.9546C18.8366 19.0475 19.02 19.1533 19.2249 19.2205L19.6781 19.3935C19.7284 19.4095 19.7824 19.4223 19.8327 19.4352L20.4584 19.6049L20.4872 19.6114L20.4944 19.6306L20.5663 19.8068C20.5879 19.8644 20.6167 19.9221 20.6275 19.9829L20.6742 20.1623C20.6922 20.2232 20.6922 20.2873 20.703 20.3481C20.7066 20.409 20.721 20.4731 20.7138 20.5339L20.7102 20.7197C20.7066 20.7838 20.6958 20.8447 20.685 20.9055C20.6814 20.9696 20.6634 21.0305 20.649 21.0913C20.6346 21.1522 20.6203 21.2131 20.5951 21.2707C20.5735 21.3284 20.5555 21.3925 20.5268 21.4469C20.4764 21.5654 20.4153 21.6776 20.347 21.7865C20.275 21.8954 20.2031 22.0011 20.1168 22.1004C20.0736 22.1485 20.0305 22.1997 19.9837 22.2478C19.937 22.2958 19.8902 22.3407 19.8363 22.3855L19.8327 22.3887L19.8183 22.3983C19.6097 22.5201 19.4012 22.6642 19.1998 22.8084C18.9948 22.9525 18.797 23.1031 18.6064 23.26C18.5093 23.3369 18.4158 23.4138 18.3259 23.4971C18.236 23.5804 18.1389 23.6573 18.049 23.7438L17.7829 23.9968C17.6966 24.0801 17.6139 24.1698 17.5312 24.2563C17.3549 24.4293 17.2075 24.6183 17.0457 24.7977C16.9018 24.9899 16.7472 25.1757 16.6105 25.3711C16.4775 25.5665 16.3336 25.7587 16.2186 25.9669L16.0388 26.2713C15.9812 26.3738 15.9309 26.4795 15.8733 26.582C15.823 26.6877 15.7654 26.7902 15.7151 26.8991L15.582 27.2227C15.5389 27.3284 15.4849 27.4373 15.449 27.5462L15.3303 27.8794L14.8484 29.2184L14.7226 29.5516C14.683 29.6637 14.6506 29.7758 14.6111 29.8879L14.3953 30.5606L14.2838 30.897C14.2479 31.0091 14.2191 31.1245 14.1867 31.2366C14.1292 31.464 14.0573 31.6915 14.0141 31.9221L13.9781 31.9189C13.9925 31.6818 14.0429 31.4512 14.0824 31.2174C14.1184 30.9835 14.1723 30.7529 14.2335 30.5254L14.4061 29.8367C14.46 29.6028 14.5248 29.3754 14.5967 29.1511L15.021 27.7993L15.1289 27.4597C15.1613 27.3412 15.2116 27.2323 15.2548 27.1202L15.3878 26.7806C15.4382 26.6685 15.4957 26.5628 15.5461 26.4539C15.6 26.3417 15.6504 26.2328 15.7115 26.1239L15.8985 25.81C16.0208 25.5953 16.1682 25.3967 16.3085 25.1949C16.4487 24.9931 16.6141 24.8041 16.7688 24.6119C16.9414 24.4293 17.0996 24.2371 17.2794 24.0641C17.3693 23.9744 17.4556 23.8847 17.5491 23.7982L17.826 23.5452C18.0166 23.3818 18.2108 23.2152 18.4158 23.0646C18.6172 22.9109 18.8258 22.7635 19.0379 22.6226C19.2537 22.4784 19.4731 22.3503 19.7068 22.2285L19.6925 22.2382C19.7356 22.2029 19.786 22.1613 19.8291 22.1196C19.8759 22.078 19.919 22.0363 19.9622 21.9883C20.0485 21.8986 20.124 21.8057 20.1959 21.7064C20.2642 21.6039 20.329 21.5014 20.3829 21.3925C20.4153 21.3412 20.4297 21.2835 20.4548 21.2291C20.4836 21.1746 20.498 21.117 20.516 21.0593C20.534 21.0048 20.5555 20.9472 20.5627 20.8895C20.5699 20.8287 20.5807 20.771 20.5879 20.7133L20.5951 20.5339C20.6023 20.4763 20.5879 20.4154 20.5843 20.3577C20.5771 20.3001 20.5807 20.2392 20.5627 20.1816L20.5196 20.0054C20.5124 19.9477 20.4836 19.8933 20.4656 19.8356L20.4009 19.6658L20.4369 19.6914L19.7967 19.5313C19.7464 19.5152 19.6925 19.5056 19.6385 19.4896L19.4839 19.4352L19.1746 19.3294C18.9624 19.2686 18.7646 19.1757 18.5669 19.0892C18.3619 19.0091 18.1749 18.8938 17.9879 18.7881C17.7901 18.6888 17.6283 18.551 17.4484 18.4261C17.3585 18.3684 17.283 18.2915 17.2003 18.2211C17.1248 18.1506 17.0421 18.0801 16.9666 18.0032L16.758 17.763C16.6861 17.6861 16.6249 17.5996 16.5674 17.5131C16.5098 17.4234 16.4451 17.3401 16.3984 17.2504L16.2545 16.9717C16.1754 16.7827 16.0927 16.5937 16.0459 16.3919L16.0064 16.2446L15.956 15.9434C15.9488 15.8922 15.9488 15.8409 15.9452 15.7897C15.9345 15.6872 15.9381 15.5846 15.9417 15.4821C15.9417 15.4341 15.9488 15.3764 15.9596 15.322C15.9704 15.2675 15.974 15.2066 15.992 15.165L16.0136 15.0945L16.0208 15.0753C16.0208 15.0785 16.028 15.0561 16.028 15.0625V15.0593L16.0388 15.0401L16.0711 14.992C16.1215 14.9344 16.179 14.8927 16.2401 14.8671C16.3624 14.8126 16.4811 14.7902 16.5962 14.7774C16.8299 14.7518 17.0529 14.7582 17.2758 14.771C17.4988 14.7838 17.7182 14.8094 17.9375 14.8382C18.3727 14.9055 18.8042 14.9856 19.2285 15.0913L19.2214 15.1202Z" fill="#1B3A5D"/>
<path d="M14.55 16.4592C14.55 16.4592 14.604 16.5842 14.6759 16.8052C14.7514 17.0262 14.8449 17.3434 14.9384 17.7278C14.9852 17.92 15.0355 18.1282 15.0751 18.3525C15.1182 18.5735 15.1398 18.8137 15.1686 19.0572C15.1938 19.3039 15.2369 19.5569 15.2945 19.81C15.352 20.0631 15.4311 20.3161 15.5138 20.566C15.5965 20.8191 15.6864 21.069 15.7548 21.3188C15.8339 21.5687 15.9094 21.8121 15.9813 22.046C16.0532 22.2831 16.1431 22.4945 16.2043 22.7091C16.2942 22.9077 16.3805 23.1191 16.4704 23.2857C16.5495 23.4619 16.6466 23.6189 16.7221 23.7598C16.7653 23.8303 16.8012 23.8944 16.8408 23.9552C16.8768 24.0161 16.9127 24.0674 16.9451 24.1186C17.0062 24.2179 17.0638 24.2916 17.0997 24.3429C17.1393 24.3941 17.1573 24.4229 17.1573 24.4229L17.1357 24.4454C17.1357 24.4454 17.1033 24.4229 17.053 24.3813C16.999 24.3396 16.9271 24.2756 16.8372 24.1923C16.7437 24.1058 16.643 23.9969 16.5315 23.8655C16.4272 23.7342 16.3086 23.5836 16.1971 23.4042C16.0748 23.2249 15.9813 23.0423 15.8734 22.8244C15.8303 22.7155 15.7907 22.6034 15.7512 22.4849C15.7116 22.3695 15.6649 22.2478 15.6397 22.1293C15.5821 21.8858 15.521 21.636 15.4599 21.3797C15.4059 21.1266 15.37 20.8639 15.3304 20.6013C15.2873 20.3418 15.2513 20.0791 15.1938 19.826C15.1398 19.573 15.0643 19.3263 14.9888 19.0892C14.9133 18.8522 14.8341 18.6215 14.7802 18.4005C14.7263 18.1827 14.6903 17.9712 14.6543 17.7758C14.5896 17.385 14.55 17.0583 14.5357 16.8276C14.5141 16.597 14.5177 16.4624 14.5177 16.4624L14.55 16.4592Z" fill="#1B3A5D"/>
<path d="M9.95802 18.7272C9.95802 18.7272 10.0228 18.913 10.127 19.2333C10.2277 19.5537 10.3644 20.0149 10.519 20.5691C10.5945 20.8478 10.6737 21.149 10.7564 21.4661C10.8355 21.7832 10.893 22.126 10.9865 22.4752C11.0584 22.8276 11.1879 23.1703 11.321 23.5323C11.4612 23.8847 11.5871 24.2531 11.713 24.6183C11.7741 24.8041 11.8352 24.9867 11.8928 25.1693C11.9467 25.3551 12.0006 25.5377 12.051 25.7234C12.1445 26.0886 12.238 26.4474 12.3279 26.7966C12.371 26.9696 12.4178 27.1362 12.461 27.3027C12.4789 27.3924 12.5113 27.4469 12.5329 27.5206C12.5401 27.5398 12.5401 27.5494 12.5545 27.5782C12.5616 27.5975 12.5724 27.6167 12.5832 27.6455C12.6012 27.6936 12.6156 27.7288 12.63 27.7704C12.7379 28.0876 12.8314 28.3759 12.9572 28.6257C13.0795 28.8756 13.2341 29.0838 13.4103 29.228C13.5002 29.2985 13.5937 29.3497 13.6872 29.3882C13.7843 29.4234 13.8778 29.4426 13.9641 29.4554C14.1404 29.4779 14.2842 29.4554 14.3813 29.4458C14.4784 29.4266 14.5287 29.417 14.5287 29.417L14.5395 29.4458C14.5395 29.4458 14.4892 29.465 14.3957 29.5003C14.2986 29.5291 14.1547 29.574 13.957 29.5772C13.7592 29.5836 13.5038 29.5291 13.2737 29.3818C13.0399 29.2376 12.8421 29.007 12.6839 28.7475C12.5257 28.4816 12.4034 28.1773 12.2919 27.8697C12.2632 27.7897 12.2308 27.7416 12.1984 27.6519C12.1661 27.5654 12.1229 27.4629 12.1049 27.3828C12.0618 27.213 12.015 27.0369 11.9827 26.8607C11.9071 26.5115 11.8316 26.1463 11.7561 25.7779C11.6806 25.4095 11.6087 25.0347 11.5331 24.6599C11.4468 24.2883 11.3677 23.9167 11.2203 23.5611C11.0944 23.2088 10.9326 22.8596 10.8103 22.5168C10.6773 22.1773 10.5586 21.8473 10.4651 21.5302C10.368 21.2098 10.3033 20.9055 10.2349 20.6268C10.1127 20.063 10.0299 19.5921 9.9832 19.2589C9.96522 19.0924 9.94724 18.961 9.93645 18.8713C9.92926 18.7816 9.92566 18.7336 9.92566 18.7336L9.95802 18.7272Z" fill="#1B3A5D"/>
<path d="M12.7842 28.5776C12.8669 28.7314 12.9388 28.8884 13.0035 29.0485C13.0719 29.2087 13.133 29.3689 13.1905 29.5323C13.2984 29.859 13.3847 30.1922 13.4315 30.5349C13.4531 30.7047 13.471 30.8777 13.4674 31.0539C13.4674 31.2269 13.4531 31.4063 13.4099 31.5792C13.3703 31.7554 13.3128 31.9316 13.2121 32.095C13.115 32.2584 12.9748 32.4057 12.8057 32.5178L12.6763 32.5979C12.6295 32.6204 12.5828 32.6396 12.536 32.662C12.4893 32.6812 12.4389 32.6972 12.3886 32.71C12.3346 32.7229 12.2987 32.7421 12.234 32.7485C12.047 32.7805 11.8671 32.8158 11.655 32.8094H11.5003C11.45 32.8062 11.4032 32.7997 11.3529 32.7933C11.2558 32.7773 11.1551 32.7773 11.0616 32.7485C10.9681 32.7197 10.871 32.7004 10.7811 32.6684L10.5114 32.5627L10.2597 32.4281C10.1805 32.3801 10.105 32.3288 10.0259 32.2776C9.87487 32.1719 9.73462 32.0566 9.59797 31.9348C9.46851 31.8099 9.34264 31.6785 9.22756 31.544C9.11249 31.4063 9.0082 31.2653 8.9111 31.1147V31.1115L8.90751 31.1083C8.56587 30.2979 8.19187 29.497 7.85023 28.6833C7.67762 28.2765 7.51219 27.8697 7.35037 27.4596L7.10583 26.8478C7.02671 26.6396 6.9476 26.4377 6.87208 26.2231L6.67429 25.5888L6.45852 24.9866L6.0054 23.7533L5.78244 23.135L5.56308 22.5136C5.41204 22.1003 5.27179 21.6871 5.13513 21.2706L5.1675 21.2578C5.36169 21.655 5.55588 22.0555 5.73569 22.4591C5.9191 22.8595 6.1025 23.26 6.27512 23.6668C6.45133 24.0704 6.62035 24.4773 6.78577 24.8873L7.03031 25.5184C7.06987 25.6241 7.09504 25.7266 7.131 25.8323L7.22091 26.1334L7.44027 26.7485L7.66683 27.3635L8.11995 28.5969C8.42922 29.4201 8.70252 30.253 9.01899 31.0731L9.01539 31.0667C9.0981 31.2108 9.20239 31.3518 9.31387 31.4863C9.36781 31.5536 9.42535 31.6177 9.48649 31.6818C9.55122 31.7426 9.61235 31.8067 9.67708 31.8675C9.74541 31.922 9.81014 31.9829 9.88207 32.0373C9.95399 32.0854 10.0259 32.1398 10.1014 32.1879C10.1805 32.2327 10.2561 32.2808 10.3352 32.3192L10.5833 32.4281L10.8386 32.5114C10.9285 32.5339 11.0185 32.5467 11.1048 32.5659C11.1911 32.5883 11.2846 32.5819 11.3745 32.5883C11.4176 32.5915 11.4644 32.5947 11.5075 32.5947L11.7665 32.5755L11.8312 32.5723L11.8995 32.5563L12.1764 32.4986C12.3275 32.457 12.4965 32.3929 12.6223 32.3032C12.7554 32.2103 12.8597 32.095 12.946 31.9637C13.0323 31.8323 13.0862 31.6818 13.1258 31.528C13.2013 31.2173 13.2085 30.8841 13.1833 30.5573C13.1582 30.2274 13.1006 29.8974 13.0251 29.5675C12.9532 29.2375 12.8597 28.914 12.7518 28.5904L12.7842 28.5776Z" fill="#1B3A5D"/>
<path d="M1.94218 24.4324C1.94218 24.4324 1.99252 24.6278 2.07524 24.9705C2.11839 25.1403 2.17233 25.3486 2.23706 25.5824C2.30179 25.8163 2.37731 26.0821 2.49599 26.348C2.55353 26.4858 2.62185 26.5915 2.73333 26.7324C2.83043 26.8734 2.92753 27.0175 3.02103 27.1681C3.21162 27.4692 3.39143 27.7992 3.57843 28.1355C3.76184 28.4751 3.95962 28.8179 4.1718 29.167C4.27609 29.34 4.38397 29.5162 4.49186 29.6892C4.5458 29.7789 4.59974 29.8686 4.65009 29.9615C4.66088 29.9807 4.67166 30.0127 4.68245 30.0416L4.69684 30.0768C4.70403 30.0896 4.70403 30.1024 4.71122 30.112C4.72561 30.1505 4.74718 30.1985 4.76876 30.2434C4.94857 30.6022 5.16794 30.9513 5.38371 31.2877C5.60307 31.6241 5.84042 31.9412 6.10294 32.2167C6.36546 32.4858 6.66034 32.726 6.96242 32.8093C7.00198 32.8221 7.03794 32.8253 7.0739 32.8317C7.10986 32.835 7.14582 32.835 7.18179 32.835C7.21775 32.8285 7.25371 32.8285 7.28607 32.8189C7.33283 32.8093 7.37598 32.7997 7.41913 32.7869C7.51263 32.7709 7.57377 32.7388 7.65288 32.7164C7.72481 32.6908 7.79673 32.6556 7.86506 32.6235C8.14196 32.489 8.36133 32.3096 8.52675 32.1334C8.69577 31.954 8.80366 31.7714 8.87198 31.6144C8.94031 31.4575 8.96548 31.3229 8.96189 31.2332C8.96189 31.1435 8.94391 31.0955 8.9475 31.0955L8.97987 31.0859C8.97627 31.0859 9.00864 31.1307 9.02662 31.2268C9.04819 31.3261 9.04819 31.4703 9.00144 31.6497C8.95829 31.8291 8.86119 32.0341 8.70656 32.2487C8.54833 32.4634 8.32177 32.6812 8.02329 32.8574C7.94417 32.8958 7.86865 32.9407 7.78235 32.9791C7.69604 33.0079 7.59535 33.056 7.51263 33.0752C7.46948 33.088 7.42633 33.1008 7.38317 33.1136C7.32923 33.1297 7.27169 33.1329 7.21415 33.1425C7.15661 33.1489 7.09907 33.1457 7.03794 33.1457C6.984 33.1361 6.92286 33.1329 6.86892 33.1169C6.64955 33.0656 6.45536 32.9599 6.28634 32.835C6.11732 32.71 5.96628 32.5691 5.83323 32.4153C5.55992 32.111 5.32976 31.7714 5.12119 31.419C4.91261 31.0635 4.7364 30.6887 4.59615 30.301C4.57457 30.253 4.56018 30.2081 4.5422 30.1505C4.53861 30.1345 4.53861 30.1217 4.53501 30.1088C4.53141 30.0896 4.52782 30.0896 4.52422 30.0768C4.51703 30.0576 4.51343 30.0384 4.50265 30.0127C4.46668 29.923 4.41993 29.8333 4.37678 29.7404C4.28328 29.5611 4.18259 29.3849 4.0783 29.2119C3.87332 28.8627 3.65036 28.5296 3.4202 28.2156C3.19364 27.8985 2.96708 27.5974 2.7657 27.3058C2.66501 27.1585 2.56791 27.0175 2.47801 26.8798C2.42766 26.8093 2.38451 26.7484 2.33416 26.6684C2.28741 26.5883 2.25504 26.5146 2.22268 26.4377C2.1112 26.1398 2.05366 25.8675 2.0141 25.6208C1.97095 25.3774 1.94937 25.166 1.93499 24.9898C1.90622 24.6374 1.90981 24.4356 1.90981 24.4356L1.94218 24.4324Z" fill="#1B3A5D"/>
<path d="M5.03826 71.9072C5.15694 68.9376 5.0023 65.9424 4.96275 62.9696C4.89801 57.9499 4.82609 52.9301 4.75057 47.9136C4.71101 45.2611 4.67146 42.6087 4.6319 39.9563C4.6283 39.7833 4.30465 39.6135 4.18597 39.511C3.64655 39.0465 3.17545 38.5179 2.7583 37.9605C1.41333 36.157 1.17599 33.8505 0.870313 31.7523C0.604198 29.9231 0.485525 28.0716 0.485525 26.2264C0.485525 25.1725 0.399216 24.2499 1.01775 23.3209C1.33422 22.8404 1.71901 22.1965 2.22247 21.8505C2.77268 21.4757 4.41972 20.6268 4.96634 21.3604C5.05625 21.4821 5.32596 21.4917 5.35832 21.3155C5.49138 20.5211 5.45542 19.4832 6.24298 18.9931C7.03773 18.4997 8.15614 18.0737 9.08395 18.4997C9.30691 18.6022 9.70968 19.0731 10.0082 18.9546C10.2383 18.8617 10.1664 18.4709 10.1772 18.3011C10.2203 17.7085 10.2779 17.1126 10.3714 16.5264C10.4865 15.8056 12.1515 15.6231 12.7736 15.559C13.4713 15.4885 14.0502 16.0587 14.3487 16.5552C14.4566 16.7314 14.7371 16.6417 14.7479 16.4591C14.7767 15.9594 14.8198 15.4597 14.8774 14.9631C14.9241 14.5435 14.9205 14.268 15.3628 14.0502C15.8447 13.8131 16.4633 13.7266 16.9991 13.6658C17.9701 13.5504 18.3764 14.079 18.8116 14.7806C18.959 15.024 18.9842 15.2547 19.3006 15.3155C20.6528 15.5814 22.0014 15.8473 23.3535 16.11C23.7958 16.1933 24.4935 16.1997 24.8136 16.5104C25.1983 16.8884 25.3494 17.5003 25.4968 17.9744C26.0327 19.6978 26.3455 21.5846 26.3779 23.3785C26.421 25.7138 25.486 27.7448 24.2921 29.7726C23.3283 31.4095 22.2027 32.9728 20.9908 34.4688C20.3939 35.2024 19.7717 35.9231 19.0993 36.6055C18.9698 36.74 18.9554 36.9482 18.9087 37.1116C18.7073 37.8484 18.549 38.5948 18.4232 39.3444C18.1247 41.0807 18.2685 42.7208 18.4376 44.4475C18.8907 49.0636 19.3546 53.6797 19.8185 58.2926C20.2177 62.2969 20.6204 66.298 21.0232 70.3023C21.0484 70.5457 21.0736 70.7892 21.0987 71.0327C21.0807 70.8693 21.3576 70.818 21.0736 70.9173C20.9333 70.9686 20.7895 71.0134 20.6492 71.0615C20.0954 71.2441 19.5344 71.4011 18.9698 71.5516C14.8054 72.6472 10.2887 72.9867 6.04879 72.0353C5.6568 71.9456 5.26842 71.8367 4.88363 71.7246C4.62111 71.6477 4.50963 72.0161 4.76855 72.093C10.0441 73.6306 16.323 73.1341 21.4188 71.1992C21.4799 71.1768 21.5303 71.0935 21.5231 71.0359C20.7283 63.117 19.93 55.1981 19.146 47.2793C18.995 45.7641 18.8439 44.2456 18.7001 42.7304C18.5886 41.5548 18.6713 40.3983 18.8691 39.2323C18.9878 38.5532 19.1424 37.8804 19.3186 37.2141C19.3546 37.086 19.3905 36.9546 19.4301 36.8265C19.387 36.9675 19.4373 36.8425 19.5128 36.7624C21.631 34.5617 23.4362 32.0854 24.925 29.5099C25.9967 27.6551 26.7339 25.826 26.8022 23.7245C26.8202 23.087 26.7483 22.4592 26.6692 21.8281C26.4678 20.1911 26.2808 18.3812 25.5256 16.8596C25.2379 16.2894 24.9574 16.0299 24.2777 15.8985C23.1234 15.6743 21.969 15.4501 20.8146 15.2226C20.4011 15.1425 19.9839 15.0625 19.5704 14.9792C19.4769 14.9599 19.3834 14.9439 19.2899 14.9247C19.4876 14.9631 19.3546 14.8959 19.2467 14.7037C18.8511 14.0053 18.3261 13.2365 17.3623 13.2557C16.4992 13.2749 15.1974 13.4447 14.6364 14.095C14.4027 14.3609 14.4458 14.9952 14.4135 15.3059C14.3739 15.6903 14.3451 16.0747 14.32 16.4591C14.453 16.4271 14.5861 16.3951 14.7191 16.363C13.946 15.0849 12.6945 15.056 11.2776 15.4661C10.749 15.6199 10.0621 15.8761 9.96141 16.4239C9.83914 17.0902 9.79239 17.7693 9.74204 18.4421C9.71687 18.7784 9.70249 18.5061 9.96141 18.6054C9.84993 18.5638 9.72766 18.4389 9.63416 18.3716C9.34647 18.1698 9.04079 18.0416 8.68837 17.9583C7.87204 17.7629 6.89748 18.2082 6.21061 18.5606C5.09221 19.1372 5.12457 20.1591 4.94476 21.213C5.07423 21.197 5.20728 21.1842 5.33675 21.1682C4.57796 20.1559 2.80864 21.0336 2.0103 21.5238C1.61112 21.764 1.36299 22.1741 1.09328 22.52C0.72287 22.9941 0.172658 23.6156 0.111524 24.2178C-0.183362 27.0785 0.147485 30.0833 0.625774 32.9087C0.949429 34.8276 1.28387 36.6663 2.50297 38.3065C2.85899 38.7806 3.27615 39.2227 3.71847 39.6327C3.85513 39.7576 3.99538 39.8762 4.13922 39.9947C4.30105 40.1196 4.20755 40.0844 4.20396 39.9659C4.21834 40.802 4.22913 41.6413 4.24351 42.4806C4.38017 51.4245 4.53121 60.3653 4.60673 69.3092C4.61392 70.1741 4.64628 71.0455 4.61392 71.9072C4.60313 72.1539 5.03107 72.1539 5.03826 71.9072Z" fill="#1B3A5D"/>
<path d="M21.6849 15.4149C21.6849 15.4149 21.3505 16.0011 19.7646 15.937C18.1751 15.8698 16.1469 15.5879 16.1469 14.9312C16.2943 13.8612 21.6849 15.4149 21.6849 15.4149Z" fill="#D7B0F5"/>
<path d="M14.2911 25.3905C15.5749 25.2208 15.6217 26.6847 15.6217 26.6847C15.6217 26.6847 14.6327 29.0168 14.6076 29.5197C13.5323 30.0419 13.3309 28.5587 13.3309 28.5587C13.3309 28.5587 12.1658 25.6756 14.2911 25.3905Z" fill="#D7B0F5"/>
<path d="M12.2375 33.4693C12.2375 33.4693 13.3128 33.3156 13.1402 31.9189C12.9712 30.5222 11.7736 29.1255 10.648 29.779C9.52603 30.4357 10.0619 31.3166 10.159 31.5409C10.2561 31.7683 11.1119 33.7096 12.2375 33.4693Z" fill="#D7B0F5"/>
<path d="M8.08402 33.4918C8.08402 33.4918 8.83921 33.1522 8.61985 32.188C8.40048 31.2206 7.93658 30.2371 6.8865 30.5222C5.83642 30.8073 6.30032 31.9189 6.30032 31.9189C6.30032 31.9189 6.83615 33.6648 8.08402 33.4918Z" fill="#D7B0F5"/>
<path d="M57.2185 70.0334C57.1537 68.5598 57.6248 45.0691 57.6248 45.0691C57.6248 45.0691 60.4119 43.0573 60.8002 40.0013C62.0733 34.5426 61.7316 30.045 61.7316 29.4332C61.7316 28.8213 60.4119 27.2933 60.2141 27.0306C60.0199 26.7679 58.7504 26.1144 57.9665 26.0279C57.1861 25.9382 56.8912 26.3771 56.8912 26.3771C56.8912 26.3771 56.5999 24.6312 56.4525 24.3686C56.305 24.1059 54.9852 23.321 53.8632 23.2313C52.7376 23.1449 52.1047 24.1507 52.1047 23.8432C52.1047 23.5389 51.9573 21.966 51.8602 21.4855C51.7595 21.005 50.3426 20.5693 49.2673 20.4796C48.1921 20.3931 47.5088 21.572 47.5088 21.572C47.5088 21.572 47.4117 19.9126 47.2643 19.3904C47.1168 18.8651 45.1641 18.5159 44.3802 18.5608C43.5998 18.6024 42.8158 20.2201 42.8158 20.2201C42.8158 20.2201 38.8097 21.005 37.4432 21.2676C36.073 21.5303 35.4869 27.8186 35.4869 27.8186C35.4869 27.8186 35.2207 30.0899 36.1701 32.3611C38.7126 37.7749 42.8158 41.8785 42.8158 41.8785C42.8158 41.8785 43.794 45.1107 43.5998 47.382C43.4056 49.6532 40.7337 69.1588 40.7337 69.1588C40.7337 69.1588 49.2673 72.4199 57.2185 70.0334Z" fill="#875A53"/>
<path d="M42.8162 20.2039C43.2369 20.0982 43.6721 20.0181 44.1072 19.9508C44.3266 19.9188 44.5459 19.8963 44.7689 19.8835C44.9918 19.8675 45.2148 19.8643 45.4486 19.8899C45.5636 19.9028 45.6823 19.9252 45.8046 19.9796C45.8657 20.0053 45.9232 20.0469 45.9736 20.1046L46.006 20.1526L46.0167 20.1718V20.175C46.0167 20.1654 46.0239 20.1911 46.0239 20.1879L46.0275 20.2071L46.0527 20.2776C46.0671 20.3192 46.0743 20.3801 46.0851 20.4345C46.0923 20.489 46.1031 20.5434 46.0995 20.5947C46.1067 20.6972 46.1102 20.7997 46.0995 20.9022C46.0959 20.9535 46.0959 21.0047 46.0887 21.056L46.0383 21.3571L45.9988 21.5045C45.952 21.7063 45.8693 21.8953 45.7902 22.0843L45.6463 22.3598C45.596 22.4527 45.5313 22.536 45.4773 22.6257C45.4198 22.7122 45.3587 22.7986 45.2867 22.8755L45.0782 23.1158C45.0026 23.1927 44.9199 23.2599 44.8408 23.3336C44.7617 23.4041 44.6862 23.481 44.5963 23.5386C44.4165 23.6604 44.251 23.8013 44.0568 23.9006C43.8662 24.0063 43.6828 24.1185 43.4779 24.1985C43.2765 24.285 43.0823 24.3811 42.8701 24.442L42.5608 24.5477L42.4062 24.6022C42.3523 24.615 42.2983 24.6278 42.2444 24.6406L41.6079 24.804L41.6438 24.7784L41.5791 24.9481C41.5575 25.0058 41.5323 25.0603 41.5215 25.1179L41.482 25.2941C41.464 25.3518 41.4676 25.4126 41.4604 25.4703C41.4532 25.528 41.4424 25.5888 41.4496 25.6465L41.4568 25.8259C41.464 25.8835 41.4748 25.9412 41.482 25.9989C41.4892 26.0597 41.5108 26.1142 41.5287 26.1718C41.5467 26.2295 41.5611 26.2872 41.5863 26.3416C41.6115 26.3961 41.6294 26.4538 41.6618 26.505C41.7157 26.6139 41.7805 26.7164 41.8488 26.8157C41.9207 26.915 41.9962 27.0111 42.0825 27.1008C42.1257 27.1457 42.1689 27.1905 42.212 27.2322C42.2588 27.2738 42.3091 27.3155 42.3523 27.3507L42.3379 27.3411C42.5716 27.4628 42.791 27.591 43.0032 27.7351C43.2189 27.8761 43.4275 28.0234 43.6289 28.1772C43.8339 28.3278 44.0245 28.4911 44.2151 28.6577L44.4956 28.9108C44.5891 28.9973 44.6754 29.087 44.7617 29.1767C44.9451 29.3496 45.1033 29.5419 45.2723 29.7244C45.4306 29.9167 45.5924 30.1057 45.7362 30.3075C45.8765 30.5093 46.0239 30.7079 46.1462 30.9225L46.3332 31.2365C46.3908 31.3454 46.4411 31.4543 46.4986 31.5632C46.549 31.6753 46.6065 31.781 46.6533 31.8932L46.7899 32.2295C46.8295 32.3448 46.8798 32.4538 46.9158 32.5723L47.0237 32.9086L47.448 34.2637C47.5199 34.4879 47.5847 34.7154 47.6386 34.9492L47.8112 35.638C47.8724 35.8654 47.9263 36.0961 47.9623 36.3299C47.9982 36.5638 48.0486 36.7944 48.063 37.0315H48.0306C47.9874 36.804 47.9155 36.5766 47.8544 36.3491C47.822 36.237 47.7968 36.1217 47.7609 36.0096L47.6494 35.6732L47.43 35.0005C47.3941 34.8884 47.3617 34.7762 47.3222 34.6641L47.1963 34.331L46.5957 32.6556C46.5598 32.5499 46.5058 32.4409 46.4627 32.3352L46.3296 32.0117C46.2793 31.9028 46.2217 31.8003 46.1714 31.6946C46.1138 31.592 46.0635 31.4863 46.006 31.3838L45.8262 31.0763C45.7111 30.8713 45.5672 30.6791 45.4306 30.4837C45.2975 30.2882 45.1429 30.0992 44.999 29.9102C44.8372 29.7309 44.6862 29.5419 44.5136 29.3689C44.4272 29.2824 44.3481 29.1927 44.2582 29.1062L43.9921 28.8563C43.9058 28.7698 43.8087 28.6929 43.7188 28.6097C43.6253 28.5264 43.5318 28.4495 43.4347 28.3726C43.2477 28.2124 43.0499 28.0619 42.8449 27.9209C42.6435 27.7768 42.435 27.6326 42.2264 27.5109L42.212 27.5013L42.2084 27.4981C42.1545 27.4532 42.1077 27.4084 42.061 27.3571C42.0142 27.3123 41.9711 27.261 41.9279 27.213C41.8416 27.1137 41.7661 27.0047 41.6978 26.899C41.6294 26.7901 41.5683 26.678 41.518 26.5595C41.4892 26.5018 41.4712 26.4409 41.446 26.3833C41.4245 26.3256 41.4101 26.2615 41.3957 26.2007C41.3813 26.1398 41.3633 26.0822 41.3561 26.0181C41.3489 25.9572 41.3381 25.8932 41.331 25.8323L41.3274 25.6465C41.3238 25.5824 41.3381 25.5216 41.3417 25.4607C41.3525 25.3998 41.3525 25.3358 41.3705 25.2749L41.4173 25.0955C41.428 25.0314 41.4568 24.977 41.4784 24.9161L41.5503 24.7431L41.5575 24.7239L41.5827 24.7175L42.212 24.5477C42.2624 24.5349 42.3163 24.5221 42.3666 24.5029L42.5177 24.4484L42.8162 24.3331C43.0211 24.2658 43.2081 24.1601 43.3951 24.0672C43.5893 23.9775 43.762 23.859 43.9346 23.7469C44.118 23.6411 44.2654 23.5002 44.4272 23.3753C44.51 23.3144 44.5747 23.2375 44.6466 23.167C44.7185 23.0966 44.7905 23.0261 44.8588 22.9524C44.9775 22.7954 45.1177 22.6513 45.2184 22.4847C45.2687 22.4014 45.3299 22.3213 45.373 22.238L45.5061 21.9786C45.5852 21.8024 45.6643 21.6262 45.7075 21.4436L45.7506 21.3059L45.801 21.0239L45.8154 20.8862C45.8297 20.7901 45.8297 20.6972 45.8262 20.6043C45.8297 20.5562 45.8226 20.5146 45.819 20.473C45.8118 20.4281 45.8154 20.3897 45.7974 20.3416L45.7758 20.2679L45.7722 20.2519C45.7722 20.2487 45.7794 20.2679 45.7758 20.2615L45.7686 20.2551C45.7686 20.2487 45.765 20.2423 45.7614 20.2391C45.7434 20.2167 45.7183 20.1943 45.6823 20.1782C45.6104 20.1398 45.5097 20.1142 45.4126 20.095C45.2076 20.0629 44.9918 20.0565 44.7761 20.0597C44.5603 20.0629 44.3445 20.0757 44.1252 20.0918C43.69 20.1206 43.2549 20.175 42.8234 20.2327L42.8162 20.2039Z" fill="#1B3A5D"/>
<path d="M47.5271 21.5751C47.5271 21.5751 47.5271 21.7097 47.5091 21.9403C47.4911 22.171 47.4552 22.4977 47.3904 22.8885C47.3545 23.0839 47.3185 23.2922 47.2646 23.5132C47.2106 23.7342 47.1315 23.9649 47.056 24.2019C46.9805 24.439 46.905 24.6857 46.851 24.9387C46.7899 25.1918 46.7575 25.4545 46.7144 25.714C46.6712 25.9766 46.6352 26.2393 46.5813 26.4924C46.5202 26.7487 46.4626 26.9985 46.4051 27.2388C46.3799 27.3605 46.3332 27.479 46.2936 27.5976C46.254 27.7129 46.2109 27.8282 46.1713 27.9371C46.0635 28.155 45.9664 28.3376 45.8477 28.517C45.7362 28.6963 45.6175 28.8469 45.5096 28.9782C45.4018 29.1096 45.3011 29.2185 45.2076 29.305C45.1177 29.3883 45.0457 29.4523 44.9918 29.494C44.9379 29.5356 44.9091 29.5549 44.9091 29.5549L44.8839 29.5356C44.8839 29.5356 44.9055 29.5068 44.945 29.4556C44.981 29.4043 45.0349 29.3306 45.0997 29.2313C45.132 29.1801 45.168 29.1256 45.204 29.0679C45.2399 29.0071 45.2795 28.943 45.3226 28.8725C45.3982 28.7316 45.4953 28.5746 45.5744 28.3984C45.6643 28.2318 45.7506 28.0172 45.8369 27.8218C45.9016 27.6072 45.9915 27.3958 46.0635 27.1587C46.1354 26.9248 46.2109 26.6814 46.29 26.4315C46.3583 26.1817 46.4446 25.9318 46.531 25.6787C46.6137 25.4288 46.6928 25.1758 46.7503 24.9195C46.8079 24.6664 46.851 24.4166 46.8762 24.1699C46.905 23.9232 46.9265 23.6862 46.9697 23.4652C47.0092 23.2409 47.0596 23.0327 47.1063 22.8405C47.1998 22.4561 47.2933 22.1389 47.3689 21.9179C47.4408 21.6969 47.4911 21.5687 47.4911 21.5687L47.5271 21.5751Z" fill="#1B3A5D"/>
<path d="M52.1191 23.8464C52.1191 23.8464 52.1155 23.8944 52.1083 23.9841C52.0975 24.0738 52.0796 24.2052 52.058 24.3717C52.0148 24.7017 51.9321 25.1758 51.8099 25.7396C51.7415 26.0183 51.6768 26.3226 51.5797 26.6398C51.4862 26.9601 51.3675 27.2901 51.2345 27.6296C51.1122 27.9692 50.9504 28.3184 50.8209 28.6739C50.6771 29.0263 50.5944 29.4011 50.5116 29.7695C50.4361 30.1475 50.3606 30.5223 50.2887 30.8907C50.2132 31.2591 50.1376 31.6211 50.0621 31.9735C50.0298 32.1496 49.9794 32.3258 49.9363 32.4956C49.9219 32.5757 49.8787 32.6782 49.8464 32.7647C49.8104 32.8544 49.7816 32.8992 49.7529 32.9825C49.6414 33.2901 49.5191 33.5944 49.3609 33.8571C49.199 34.1198 49.0048 34.3504 48.7711 34.4946C48.5373 34.6419 48.2856 34.6964 48.0878 34.69C47.89 34.6868 47.7426 34.6387 47.6455 34.6131C47.552 34.5778 47.5052 34.5586 47.5052 34.5586L47.516 34.5298C47.516 34.5298 47.5664 34.5394 47.6635 34.5554C47.7606 34.5682 47.9044 34.5907 48.0806 34.5682C48.1669 34.5554 48.2604 34.5362 48.3575 34.501C48.451 34.4625 48.5445 34.4113 48.6344 34.3376C48.8107 34.1966 48.9617 33.9884 49.0876 33.7385C49.2134 33.4855 49.3069 33.2004 49.4148 32.8832C49.4292 32.8416 49.4436 32.8063 49.4616 32.7551C49.4723 32.7295 49.4831 32.7102 49.4903 32.691C49.5047 32.6622 49.5047 32.6526 49.5119 32.6334C49.5335 32.5597 49.5659 32.502 49.5838 32.4155C49.627 32.249 49.6737 32.0792 49.7169 31.9094C49.8068 31.5602 49.9003 31.2014 49.9938 30.833C50.0441 30.6504 50.0945 30.4678 50.1484 30.282C50.2096 30.0995 50.2707 29.9169 50.3282 29.7311C50.4541 29.3627 50.5836 28.9975 50.7238 28.6451C50.8569 28.2831 50.9863 27.9403 51.0583 27.5848C51.1482 27.2388 51.2093 26.896 51.2884 26.5789C51.3675 26.2586 51.4502 25.9606 51.5258 25.6819C51.6804 25.1277 51.817 24.6664 51.9177 24.3461C52.022 24.0226 52.0868 23.84 52.0868 23.84L52.1191 23.8464Z" fill="#1B3A5D"/>
<path d="M49.2928 33.7002C49.185 34.0269 49.0915 34.3505 49.0159 34.6804C48.944 35.0072 48.8865 35.3403 48.8613 35.6671C48.8361 35.997 48.8397 36.3302 48.9188 36.6377C48.9584 36.7947 49.0123 36.9452 49.0987 37.0766C49.1814 37.2079 49.2892 37.3232 49.4223 37.4161C49.5482 37.5058 49.7172 37.5699 49.8682 37.6115L50.1451 37.6692L50.2135 37.682L50.2782 37.6884L50.5371 37.7076C50.5803 37.7076 50.627 37.7044 50.6702 37.7012C50.7601 37.6916 50.8536 37.7012 50.9399 37.6788C51.0262 37.6596 51.1161 37.6468 51.2024 37.6244L51.4613 37.5411L51.7095 37.4321C51.7886 37.3937 51.8641 37.3457 51.9432 37.3008C52.0187 37.2528 52.0907 37.1983 52.1626 37.147C52.2345 37.0958 52.2992 37.0349 52.3676 36.9773C52.4323 36.9196 52.4934 36.8555 52.5582 36.7947C52.6157 36.7306 52.6768 36.6665 52.7308 36.5993C52.8423 36.4647 52.9465 36.3238 53.0293 36.1796L53.0257 36.186C53.3385 35.3659 53.6154 34.533 53.9211 33.7098L54.3778 32.4765L54.6044 31.8614L54.8201 31.2463L54.9136 30.9452C54.946 30.8395 54.9748 30.737 55.0143 30.6313L55.2589 30.0002C55.4207 29.5902 55.5933 29.1833 55.7695 28.7797C55.9421 28.3729 56.1256 27.9724 56.309 27.5688C56.4888 27.1684 56.6794 26.768 56.8771 26.3707L56.9095 26.3803C56.7693 26.8 56.6326 27.2132 56.4816 27.6265L56.2622 28.2479L56.0392 28.8662L55.5861 30.0995L55.3668 30.7018L55.1726 31.336C55.097 31.5507 55.0179 31.7525 54.9388 31.9607L54.6943 32.5726C54.5289 32.9826 54.3634 33.3894 54.1908 33.7963C53.8528 34.6067 53.4788 35.4076 53.1335 36.2213V36.2277C53.0364 36.3782 52.9322 36.5192 52.8171 36.6569C52.6984 36.7915 52.5761 36.9228 52.4431 37.0477C52.31 37.1663 52.1698 37.2848 52.0187 37.3905C51.9396 37.4418 51.8641 37.493 51.7814 37.5411L51.5333 37.6756L51.2635 37.7813C51.1736 37.8134 51.0765 37.8326 50.983 37.8582C50.8895 37.8902 50.7888 37.8902 50.6918 37.9063C50.6414 37.9127 50.5911 37.9191 50.5407 37.9223H50.3897C50.1775 37.9255 49.9977 37.8934 49.8107 37.8614C49.746 37.8518 49.7064 37.8358 49.6561 37.823C49.6057 37.8069 49.5554 37.7941 49.5086 37.7717C49.4619 37.7525 49.4151 37.7333 49.3684 37.7108L49.2389 37.6308C49.0699 37.5154 48.9296 37.3713 48.8325 37.2079C48.7282 37.0445 48.6743 36.8683 48.6311 36.6922C48.588 36.516 48.5772 36.3398 48.5772 36.1668C48.5736 35.9906 48.588 35.8176 48.6132 35.6478C48.6599 35.3051 48.7462 34.9687 48.8541 34.6452C48.9081 34.4786 48.9728 34.3184 49.0375 34.1615C49.1058 34.0013 49.1778 33.8443 49.2605 33.6905L49.2928 33.7002Z" fill="#1B3A5D"/>
<path d="M60.1351 29.5452C60.1351 29.5452 60.1387 29.7502 60.11 30.0994C60.0956 30.2756 60.074 30.4902 60.0308 30.7337C59.9877 30.9803 59.9301 31.2526 59.8187 31.5505C59.7899 31.6274 59.7575 31.7011 59.7108 31.778C59.6604 31.8613 59.6173 31.9221 59.5669 31.9926C59.4734 32.1304 59.3799 32.2713 59.2792 32.4155C59.0779 32.7102 58.8477 33.0113 58.6247 33.3284C58.3946 33.6424 58.1716 33.9755 57.963 34.3215C57.8588 34.4945 57.7617 34.6739 57.6682 34.8533C57.625 34.943 57.5783 35.0359 57.5423 35.1256C57.5279 35.1512 57.5243 35.1672 57.5207 35.1864C57.5171 35.1992 57.5135 35.2024 57.5099 35.2217C57.5063 35.2345 57.5063 35.2473 57.4991 35.2601C57.4848 35.321 57.4668 35.3626 57.4488 35.4139C57.3085 35.8015 57.1323 36.1763 56.9238 36.5319C56.7152 36.8842 56.4814 37.2238 56.2117 37.5281C56.0751 37.6819 55.924 37.8228 55.7586 37.9478C55.5896 38.0727 55.3954 38.1784 55.1724 38.2297C55.1185 38.2457 55.0609 38.2489 55.0034 38.2585C54.9459 38.2585 54.8883 38.2617 54.8308 38.2553C54.7733 38.2457 54.7157 38.2425 54.6618 38.2265C54.6186 38.2137 54.5719 38.2008 54.5323 38.188C54.446 38.1688 54.3489 38.1208 54.2626 38.0887C54.1763 38.0535 54.1008 38.0086 54.0217 37.9702C53.7196 37.794 53.493 37.5762 53.3384 37.3615C53.1802 37.1469 53.0867 36.9387 53.0399 36.7625C52.9967 36.5831 52.9967 36.4358 53.0183 36.3397C53.0363 36.2436 53.0687 36.1987 53.0651 36.1987L53.0974 36.2083C53.101 36.2083 53.0795 36.2564 53.0831 36.3461C53.0795 36.4358 53.1046 36.5703 53.173 36.7273C53.2413 36.8842 53.3492 37.0668 53.5146 37.2462C53.6836 37.4224 53.903 37.6018 54.1763 37.7363C54.2482 37.7684 54.3201 37.8036 54.3921 37.8292C54.428 37.8421 54.4676 37.8549 54.5035 37.8645C54.5395 37.8805 54.5791 37.8901 54.6258 37.8997C54.669 37.9093 54.7121 37.9221 54.7589 37.9318C54.7876 37.9414 54.8272 37.9414 54.8632 37.9478C54.8955 37.9478 54.9351 37.9446 54.971 37.9446C55.007 37.9382 55.043 37.935 55.0825 37.9221C55.3846 37.8389 55.6795 37.5986 55.9384 37.3263C56.2045 37.054 56.4419 36.7337 56.6612 36.4005C56.877 36.0642 57.0964 35.715 57.2762 35.3562C57.2978 35.3114 57.3193 35.2633 57.3337 35.2249C57.3373 35.2153 57.3409 35.2024 57.3445 35.1896L57.3589 35.1544C57.3697 35.1256 57.3841 35.0935 57.3949 35.0743C57.4452 34.9782 57.4991 34.8917 57.5531 34.802C57.661 34.629 57.7689 34.4528 57.8731 34.2799C58.0817 33.9307 58.2795 33.5847 58.4629 33.2451C58.6535 32.9088 58.8297 32.582 59.0203 32.2809C59.1174 32.1304 59.2109 31.9862 59.3116 31.8453C59.4195 31.7043 59.4878 31.5986 59.549 31.4608C59.6676 31.195 59.7395 30.9291 59.8079 30.6952C59.8726 30.4582 59.9265 30.2532 59.9697 30.0834C60.0524 29.7406 60.0992 29.542 60.0992 29.542L60.1351 29.5452Z" fill="#1B3A5D"/>
<path d="M57.431 70.0334C57.2908 66.5352 57.5029 62.9986 57.5677 59.5005C57.6432 55.0958 57.7259 50.6911 57.8158 46.2896C57.823 45.9244 57.8302 45.5592 57.8374 45.194C57.841 44.9986 57.859 45.1428 57.7978 45.1876C58.0532 44.9986 58.2869 44.784 58.5135 44.5693C61.0775 42.1379 61.412 38.7359 61.7644 35.5549C61.9298 34.0493 61.9946 32.5373 61.9838 31.0285C61.9802 30.3493 62.0952 29.4812 61.7608 28.8501C61.3005 27.9724 60.6496 26.9697 59.711 26.4444C58.9342 26.0119 57.3843 25.3776 56.7082 26.281C56.8377 26.297 56.9671 26.3098 57.0966 26.3258C56.9348 25.3648 56.9635 24.3686 56.0177 23.7791C55.2877 23.3242 54.306 22.959 53.4105 23.0648C53.112 23.1 52.8423 23.2281 52.5906 23.3691C52.4863 23.4235 52.3856 23.5036 52.2921 23.5677C51.9649 23.7983 52.3173 23.808 52.3101 23.6734C52.2777 23.0039 52.2094 22.3248 52.1015 21.6617C52.0152 21.1011 51.5621 20.8448 50.9867 20.6526C49.5267 20.1657 48.1421 20.1208 47.3258 21.4759C47.4589 21.5079 47.5919 21.5399 47.7214 21.572C47.6746 20.7839 47.8616 19.4032 47.0417 18.9035C46.0851 18.3237 44.3086 18.045 43.4779 18.8747C43.1219 19.2303 42.8594 19.6755 42.64 20.108C42.7083 19.9799 42.7227 20.0439 42.4746 20.092C42.1725 20.1496 41.8704 20.2105 41.5648 20.2682C40.1623 20.5437 38.7022 20.7391 37.3213 21.1011C36.5409 21.3061 36.2676 22.5458 36.095 23.1224C35.757 24.2596 35.5771 25.4353 35.4189 26.5981C35.3398 27.178 35.2643 27.7578 35.2427 28.3408C35.1744 30.3301 35.7749 32.1401 36.7279 33.918C38.2203 36.7145 40.1659 39.3606 42.3955 41.7343C42.471 41.8112 42.5465 41.8913 42.622 41.9682C42.7263 42.0739 42.5897 41.8496 42.6364 42.0066C42.8018 42.5768 42.9349 43.1534 43.0572 43.7332C43.3377 45.0787 43.4923 46.4401 43.3449 47.8048C42.8666 52.2159 42.2193 56.6174 41.6259 61.0157C41.2591 63.7322 40.8923 66.4455 40.5183 69.1588C40.5111 69.2197 40.565 69.303 40.6262 69.3254C45.7183 71.2571 52.0008 71.7536 57.2728 70.2159C57.5353 70.1423 57.4238 69.7739 57.1613 69.8508C52.8171 71.1161 48.1421 70.8759 43.7692 69.8508C42.791 69.6201 41.8201 69.3478 40.8815 69.0115C40.752 68.9634 40.9282 69.2902 40.9642 69.0371C40.9894 68.8449 41.0145 68.6527 41.0397 68.4605C41.6475 64.0269 42.248 59.5902 42.8342 55.1535C43.1183 53.0264 43.3988 50.8961 43.6577 48.7658C43.931 46.5074 43.7081 44.3387 43.1075 42.1251C42.9745 41.6382 42.5789 41.3403 42.2265 40.9527C41.1512 39.761 40.1694 38.4989 39.256 37.2015C37.217 34.3152 35.3542 31.1758 35.7174 27.6617C35.8648 26.2201 36.0842 24.7722 36.4654 23.3627C36.6236 22.7925 36.807 21.8923 37.3644 21.5079C37.591 21.3477 38.0693 21.3413 38.3462 21.2869C38.9036 21.1779 39.4646 21.069 40.022 20.9601C40.9067 20.7903 41.7877 20.6141 42.6724 20.4444C43.1543 20.3483 43.2442 19.8581 43.4923 19.5026C43.8375 19.0028 44.1864 18.7209 44.8552 18.7594C45.5169 18.7978 46.2398 18.9452 46.8259 19.2335C47.4049 19.5186 47.2647 21.0274 47.297 21.572C47.3078 21.7546 47.5883 21.8443 47.6926 21.6681C47.9623 21.226 48.3723 20.848 48.9189 20.691C49.5123 20.5212 51.4146 20.9313 51.652 21.5367C51.8534 22.0397 51.8066 22.7284 51.8534 23.257C51.8678 23.446 51.7815 23.9649 52.0332 24.0674C52.2993 24.1699 52.6266 23.8112 52.8064 23.6958C53.6946 23.1288 54.7842 23.5741 55.6186 24.0034C56.2515 24.3301 56.3306 24.6088 56.4601 25.2079C56.5464 25.6115 56.6183 26.0215 56.6866 26.4284C56.7154 26.6045 56.9851 26.5949 57.0786 26.4732C57.618 25.7524 59.1032 26.5565 59.6678 26.8704C60.2648 27.2036 60.6676 27.9115 61.0272 28.4337C61.6601 29.3435 61.5558 30.2981 61.5594 31.3392C61.5666 33.1844 61.4264 35.0327 61.1746 36.8651C60.8797 38.989 60.5921 41.2346 59.2866 43.0733C58.9019 43.6115 58.4379 44.1016 57.9381 44.5533C57.8086 44.6686 57.4166 44.8769 57.413 45.0691C57.4059 45.3221 57.4023 45.5752 57.3987 45.8283C57.3627 47.5197 57.3303 49.2079 57.298 50.8961C57.2224 54.8203 57.1505 58.7413 57.0858 62.6655C57.0462 65.1129 56.906 67.5859 57.0031 70.0334C57.0139 70.2768 57.4418 70.28 57.431 70.0334Z" fill="#1B3A5D"/>
<path d="M40.3597 20.5243C40.3597 20.5243 40.6906 21.1137 42.2801 21.0496C43.8696 20.9823 45.8978 20.7004 45.8978 20.0437C45.7504 18.9738 40.3597 20.5243 40.3597 20.5243Z" fill="#F794B9"/>
<path d="M47.7534 30.503C46.4695 30.3332 46.4192 31.7971 46.4192 31.7971C46.4192 31.7971 47.4117 34.1292 47.4369 34.6322C48.5122 35.1543 48.7099 33.6679 48.7099 33.6679C48.7099 33.6679 49.8787 30.7881 47.7534 30.503Z" fill="#F794B9"/>
<path d="M49.8069 38.582C49.8069 38.582 48.7316 38.4282 48.9043 37.0316C49.0733 35.6349 50.2708 34.2382 51.3964 34.8917C52.5184 35.5484 51.979 36.4293 51.8819 36.6535C51.7848 36.881 50.9289 38.8223 49.8069 38.582Z" fill="#F794B9"/>
<path d="M53.9606 38.6045C53.9606 38.6045 53.2054 38.2649 53.4247 37.3007C53.6441 36.3332 54.108 35.3498 55.1581 35.6349C56.2082 35.92 55.7443 37.0316 55.7443 37.0316C55.7443 37.0316 55.2084 38.7775 53.9606 38.6045Z" fill="#F794B9"/>
</svg>
